<?xml version="1.0" encoding="utf-8"?>
<!-- Generator: Adobe Illustrator 27.5.0, SVG Export Plug-In . SVG Version: 6.00 Build 0)  -->
<svg version="1.1" xmlns="http://www.w3.org/2000/svg" xmlns:xlink="http://www.w3.org/1999/xlink" x="0px" y="0px"
	 viewBox="0 0 500 500" style="enable-background:new 0 0 500 500;" xml:space="preserve">
<g id="BACKGROUND">
	<rect style="fill:#C5D8FC;" width="500" height="500"/>
</g>
<g id="OBJECTS">
	<g>
		<rect x="57.245" y="92.438" style="fill:#5176C6;" width="393.883" height="132.025"/>
		<rect x="386.302" y="92.438" style="fill:#153B6A;" width="64.825" height="132.025"/>
		<rect x="57.245" y="233.228" style="fill:#5176C6;" width="329.058" height="208.902"/>
		
			<rect x="386.302" y="233.228" transform="matrix(-1 -1.224647e-16 1.224647e-16 -1 837.4304 675.3592)" style="fill:#153B6A;" width="64.825" height="208.902"/>
		<rect x="57.245" y="368.845" style="fill:#7DA7E2;" width="329.058" height="73.286"/>
		<g style="opacity:0.44;">
			<path style="fill:#153B6A;" d="M129.599,411.088h-19.63c-0.832,0-1.506,0.674-1.506,1.507v3.926c0,0.832,0.674,1.506,1.506,1.506
				h19.63c0.832,0,1.507-0.674,1.507-1.506v-3.926C131.106,411.762,130.431,411.088,129.599,411.088z"/>
			<path style="fill:#153B6A;" d="M141.895,402.688h-19.63c-0.832,0-1.507,0.674-1.507,1.507v3.926c0,0.832,0.674,1.507,1.507,1.507
				h19.63c0.832,0,1.507-0.674,1.507-1.507v-3.926C143.401,403.362,142.727,402.688,141.895,402.688z"/>
			<path style="fill:#153B6A;" d="M117.426,402.688h-19.63c-0.832,0-1.506,0.674-1.506,1.507v3.926c0,0.832,0.674,1.507,1.506,1.507
				h19.63c0.832,0,1.507-0.674,1.507-1.507v-3.926C118.932,403.362,118.258,402.688,117.426,402.688z"/>
		</g>
		<g style="opacity:0.44;">
			<path style="fill:#153B6A;" d="M264.58,427.34h-19.63c-0.832,0-1.506,0.674-1.506,1.507v3.926c0,0.832,0.675,1.506,1.506,1.506
				h19.63c0.832,0,1.507-0.674,1.507-1.506v-3.926C266.086,428.014,265.412,427.34,264.58,427.34z"/>
			<path style="fill:#153B6A;" d="M276.875,418.94h-19.63c-0.832,0-1.506,0.674-1.506,1.507v3.926c0,0.832,0.675,1.507,1.506,1.507
				h19.63c0.832,0,1.507-0.674,1.507-1.507v-3.926C278.382,419.614,277.707,418.94,276.875,418.94z"/>
			<path style="fill:#153B6A;" d="M252.406,418.94h-19.63c-0.832,0-1.506,0.674-1.506,1.507v3.926c0,0.832,0.674,1.507,1.506,1.507
				h19.63c0.832,0,1.507-0.674,1.507-1.507v-3.926C253.912,419.614,253.238,418.94,252.406,418.94z"/>
		</g>
		<g>
			<rect x="57.245" y="358.223" style="fill:#7DA7E2;" width="329.058" height="4.322"/>
			<rect x="57.245" y="349.914" style="fill:#7DA7E2;" width="329.058" height="4.322"/>
		</g>
		<rect x="273.725" y="286.915" style="fill:#153B6A;" width="86.191" height="155.216"/>
		<path style="fill:#E6EFFF;" d="M349.182,301.055h-64.723c-1.592,0-2.882,1.29-2.882,2.882v79.525c0,1.592,1.29,2.882,2.882,2.882
			h64.723c1.592,0,2.882-1.29,2.882-2.882v-79.525C352.064,302.345,350.773,301.055,349.182,301.055z"/>
		<path style="opacity:0.14;fill:#5176C6;" d="M349.182,389.905h-64.723c-1.592,0-2.882,1.29-2.882,2.882v41.492
			c0,1.591,1.29,2.882,2.882,2.882h64.723c1.592,0,2.882-1.29,2.882-2.882v-41.492C352.064,391.195,350.773,389.905,349.182,389.905
			z"/>
		<path style="fill:#E6EFFF;" d="M277.621,351.923L277.621,351.923c-1.008,0-1.826,0.818-1.826,1.826v13.27
			c0,1.009,0.818,1.826,1.826,1.826l0,0c1.008,0,1.826-0.818,1.826-1.826v-13.27C279.447,352.741,278.629,351.923,277.621,351.923z"
			/>
		
			<rect x="106.036" y="254.264" transform="matrix(-1.836970e-16 1 -1 -1.836970e-16 502.4798 176.8969)" style="fill:#153B6A;" width="113.511" height="170.849"/>
		<rect x="81.349" y="286.915" style="fill:#E6EFFF;" width="162.885" height="105.547"/>
		<g style="opacity:0.14;">
			<polygon style="fill:#7DA7E2;" points="156.426,286.915 129.036,286.915 81.349,373.71 81.349,392.462 98.437,392.462 			"/>
			<polygon style="fill:#7DA7E2;" points="103.174,392.462 112.685,392.462 170.675,286.915 161.164,286.915 			"/>
			<polygon style="fill:#7DA7E2;" points="133.405,392.462 176.925,392.462 234.914,286.915 191.395,286.915 			"/>
			<polygon style="fill:#7DA7E2;" points="194.857,392.462 244.234,302.591 244.234,286.915 243.336,286.915 185.346,392.462 			"/>
		</g>
		<rect x="50.245" y="224.463" style="fill:#5176C6;" width="405.935" height="8.765"/>
		<rect x="50.245" y="208.394" style="fill:#5176C6;" width="405.935" height="8.765"/>
		<rect x="381.007" y="224.463" style="fill:#153B6A;" width="75.173" height="8.765"/>
		<rect x="381.007" y="208.394" style="fill:#153B6A;" width="75.173" height="8.765"/>
		<rect x="43.001" y="106.499" style="fill:#507BFF;" width="315.197" height="92.764"/>
		
			<rect x="162.181" y="3.246" transform="matrix(-1.836970e-16 1 -1 -1.836970e-16 353.481 -47.7186)" style="fill:#071B33;" width="76.837" height="299.27"/>
		<rect x="56.267" y="114.463" style="fill:#507BFF;" width="293.968" height="70.993"/>
		
			<rect x="358.198" y="106.499" transform="matrix(-1 -1.224647e-16 1.224647e-16 -1 733.7271 305.7626)" style="fill:#071B33;" width="17.33" height="92.764"/>
		<rect x="286.234" y="40.943" style="fill:#5176C6;" width="100.069" height="19.174"/>
		
			<rect x="386.302" y="40.943" transform="matrix(-1 -1.224647e-16 1.224647e-16 -1 796.7091 101.0601)" style="fill:#153B6A;" width="24.104" height="19.174"/>
		<rect x="290.342" y="60.117" style="fill:#5176C6;" width="90.664" height="32.321"/>
		
			<rect x="381.007" y="60.117" transform="matrix(-1 -1.224647e-16 1.224647e-16 -1 786.3918 152.5553)" style="fill:#153B6A;" width="24.378" height="32.321"/>
		<rect x="49.21" y="442.131" style="fill:#153B6A;" width="411.231" height="6.939"/>
		<rect x="40.627" y="449.07" style="fill:#5176C6;" width="426.205" height="11.322"/>
		<g>
			<path style="fill:#5176C6;" d="M428.469,279.567h-19.63c-0.832,0-1.506,0.674-1.506,1.507v3.926c0,0.832,0.674,1.506,1.506,1.506
				h19.63c0.832,0,1.507-0.674,1.507-1.506v-3.926C429.976,280.241,429.301,279.567,428.469,279.567z"/>
			<path style="fill:#5176C6;" d="M440.765,271.167h-19.63c-0.832,0-1.506,0.674-1.506,1.507v3.926c0,0.832,0.674,1.507,1.506,1.507
				h19.63c0.832,0,1.506-0.674,1.506-1.507v-3.926C442.271,271.841,441.597,271.167,440.765,271.167z"/>
			<path style="fill:#5176C6;" d="M416.296,271.167h-19.63c-0.832,0-1.506,0.674-1.506,1.507v3.926c0,0.832,0.674,1.507,1.506,1.507
				h19.63c0.832,0,1.507-0.674,1.507-1.507v-3.926C417.802,271.841,417.128,271.167,416.296,271.167z"/>
		</g>
		<g>
			<path style="fill:#5176C6;" d="M446.088,393.923h-19.63c-0.832,0-1.506,0.674-1.506,1.507v3.926c0,0.832,0.674,1.507,1.506,1.507
				h19.63c0.832,0,1.507-0.674,1.507-1.507v-3.926C447.594,394.597,446.92,393.923,446.088,393.923z"/>
			<path style="fill:#5176C6;" d="M433.914,385.523h-19.63c-0.832,0-1.506,0.674-1.506,1.507v3.926c0,0.832,0.674,1.506,1.506,1.506
				h19.63c0.832,0,1.507-0.674,1.507-1.506v-3.926C435.421,386.197,434.746,385.523,433.914,385.523z"/>
		</g>
		<g>
			<polygon style="fill:#153B6A;" points="75.348,374.749 72.162,374.749 72.162,385.593 60.425,397.331 54.896,391.802 
				54.896,344.801 51.71,344.801 51.71,393.122 62.941,404.352 62.941,420.401 66.126,420.401 66.126,403.032 62.677,399.583 
				75.348,386.913 			"/>
			
				<ellipse transform="matrix(0.7071 -0.7071 0.7071 0.7071 -228.1725 138.7455)" style="fill:#D3470B;" cx="53.394" cy="344.801" rx="22.004" ry="22.004"/>
			
				<ellipse transform="matrix(0.7071 -0.7071 0.7071 0.7071 -243.3746 162.0611)" style="fill:#D3470B;" cx="73.938" cy="374.81" rx="11.2" ry="11.2"/>
			<polygon style="fill:#507BFF;" points="42.575,411.088 53.623,442.131 73.618,442.131 84.666,411.088 			"/>
			<polygon style="fill:#E6EFFF;" points="81.113,421.07 82.803,416.322 44.438,416.322 46.127,421.07 			"/>
			<polygon style="fill:#E6EFFF;" points="79.142,426.609 80.333,423.261 46.907,423.261 48.099,426.609 			"/>
		</g>
		<g>
			<path style="fill:#FFFFFF;" d="M386.302,238.661v52.958H352.52l-12.053-19.265C340.467,272.354,356.812,238.933,386.302,238.661z
				"/>
			<g>
				<path style="fill:#507BFF;" d="M90.053,238.661l-18.838,16.497c-9.501,8.318-14.948,20.327-14.948,32.954v1.509
					c0,7.761-6.291,14.052-14.052,14.052h-1.688c-7.761,0-14.052-6.291-14.052-14.052v-1.509c0-12.626,5.447-24.636,14.944-32.954
					l18.838-16.497H90.053z"/>
				<path style="fill:#FFFFFF;" d="M119.845,238.661l-18.838,16.497c-9.497,8.318-14.944,20.327-14.944,32.954v1.509
					c0,7.761-6.291,14.052-14.052,14.052h-1.692c-7.761,0-14.052-6.291-14.052-14.052v-1.509c0-12.626,5.447-24.636,14.948-32.954
					l18.838-16.497H119.845z"/>
				<path style="fill:#507BFF;" d="M149.641,238.661l-18.838,16.497c-9.497,8.318-14.944,20.327-14.944,32.954v1.509
					c0,7.761-6.291,14.052-14.052,14.052h-1.692c-7.761,0-14.052-6.291-14.052-14.052v-1.509c0-12.626,5.447-24.636,14.944-32.954
					l18.838-16.497H149.641z"/>
				<path style="fill:#FFFFFF;" d="M179.434,238.661l-18.838,16.497c-9.497,8.318-14.944,20.327-14.944,32.954v1.509
					c0,7.761-6.291,14.052-14.052,14.052h-1.688c-7.761,0-14.052-6.291-14.052-14.052v-1.509c0-12.626,5.447-24.636,14.944-32.954
					l18.838-16.497H179.434z"/>
				<path style="fill:#507BFF;" d="M209.23,238.661l-18.838,16.497c-9.497,8.318-14.944,20.327-14.944,32.954v1.509
					c0,7.761-6.291,14.052-14.052,14.052h-1.692c-7.761,0-14.052-6.291-14.052-14.052v-1.509c0-12.626,5.447-24.636,14.944-32.954
					l18.838-16.497H209.23z"/>
				<path style="fill:#FFFFFF;" d="M239.022,238.661l-18.838,16.497c-9.497,8.318-14.944,20.327-14.944,32.954v1.509
					c0,7.761-6.291,14.052-14.052,14.052H189.5c-7.761,0-14.052-6.291-14.052-14.052v-1.509c0-12.626,5.447-24.636,14.944-32.954
					l18.838-16.497H239.022z"/>
				<path style="fill:#507BFF;" d="M268.818,238.661l-18.838,16.497c-9.497,8.318-14.944,20.327-14.944,32.954v1.509
					c0,7.761-6.291,14.052-14.052,14.052h-1.692c-7.761,0-14.052-6.291-14.052-14.052v-1.509c0-12.626,5.447-24.636,14.944-32.954
					l18.838-16.497H268.818z"/>
				<path style="fill:#FFFFFF;" d="M298.61,238.661l-18.838,16.497c-9.497,8.318-14.944,20.327-14.944,32.954v1.509
					c0,7.761-6.291,14.052-14.052,14.052h-1.688c-7.761,0-14.052-6.291-14.052-14.052v-1.509c0-12.626,5.447-24.636,14.944-32.954
					l18.838-16.497H298.61z"/>
				<path style="fill:#507BFF;" d="M328.406,238.661l-18.838,16.497c-9.497,8.318-14.944,20.327-14.944,32.954v1.509
					c0,7.761-6.291,14.052-14.052,14.052h-1.692c-7.761,0-14.052-6.291-14.052-14.052v-1.509c0-12.626,5.447-24.636,14.944-32.954
					l18.838-16.497H328.406z"/>
				<path style="fill:#FFFFFF;" d="M358.198,238.661l-18.838,16.497c-9.497,8.318-14.944,20.327-14.944,32.954v1.509
					c0,7.761-6.291,14.052-14.052,14.052h-1.688c-7.761,0-14.052-6.291-14.052-14.052v-1.509c0-12.626,5.447-24.636,14.944-32.954
					l18.838-16.497H358.198z"/>
				<path style="fill:#507BFF;" d="M386.302,238.661l-18.838,16.497c-9.497,8.318-14.944,20.327-14.944,32.954v1.509
					c0,7.761-6.291,14.052-14.052,14.052l0,0c-7.761,0-14.052-6.291-14.052-14.052v-1.509c0-12.626,5.447-24.636,14.944-32.954
					l18.838-16.497H386.302z"/>
			</g>
		</g>
		<line style="fill:none;stroke:#153B6A;stroke-miterlimit:10;" x1="286.234" y1="60.117" x2="410.407" y2="60.117"/>
		<line style="fill:none;stroke:#153B6A;stroke-miterlimit:10;" x1="290.342" y1="92.438" x2="386.302" y2="92.438"/>
		<line style="fill:none;stroke:#153B6A;stroke-miterlimit:10;" x1="57.245" y1="208.394" x2="381.007" y2="208.394"/>
		<line style="fill:none;stroke:#153B6A;stroke-miterlimit:10;" x1="381.007" y1="217.159" x2="57.245" y2="217.159"/>
		<line style="fill:none;stroke:#153B6A;stroke-miterlimit:10;" x1="57.245" y1="224.463" x2="381.007" y2="224.463"/>
		<line style="fill:none;stroke:#153B6A;stroke-miterlimit:10;" x1="381.007" y1="233.228" x2="57.245" y2="233.228"/>
		<line style="fill:none;stroke:#5176C6;stroke-miterlimit:10;" x1="386.302" y1="208.394" x2="451.128" y2="208.394"/>
		<line style="fill:none;stroke:#5176C6;stroke-miterlimit:10;" x1="386.302" y1="217.159" x2="451.128" y2="217.159"/>
		<line style="fill:none;stroke:#5176C6;stroke-miterlimit:10;" x1="386.302" y1="224.463" x2="451.128" y2="224.463"/>
		<line style="fill:none;stroke:#5176C6;stroke-miterlimit:10;" x1="386.302" y1="233.228" x2="451.128" y2="233.228"/>
		<line style="fill:none;stroke:#5176C6;stroke-miterlimit:10;" x1="273.725" y1="442.131" x2="359.916" y2="442.131"/>
		<line style="fill:none;stroke:#5176C6;stroke-miterlimit:10;" x1="386.302" y1="442.131" x2="451.128" y2="442.131"/>
		<polyline style="fill:none;stroke:#153B6A;stroke-miterlimit:10;" points="56.267,114.463 350.235,114.463 350.235,185.456 		"/>
		<g style="opacity:0.25;">
			<rect x="96.289" y="333.674" style="fill:#507BFF;" width="147.945" height="12.15"/>
			<path style="fill:#507BFF;" d="M116.242,334.384h-7.472c-1.99,0-3.603-1.613-3.603-3.603v-7.472c0-1.99,1.613-3.603,3.603-3.603
				h7.472c1.99,0,3.603,1.613,3.603,3.603v7.472C119.845,332.771,118.232,334.384,116.242,334.384z"/>
			<path style="fill:#507BFF;" d="M132.032,334.384h-7.472c-1.99,0-3.603-1.613-3.603-3.603v-7.472c0-1.99,1.613-3.603,3.603-3.603
				h7.472c1.99,0,3.603,1.613,3.603,3.603v7.472C135.635,332.771,134.022,334.384,132.032,334.384z"/>
			<path style="fill:#507BFF;" d="M147.822,334.384h-7.472c-1.99,0-3.603-1.613-3.603-3.603v-7.472c0-1.99,1.613-3.603,3.603-3.603
				h7.472c1.99,0,3.603,1.613,3.603,3.603v7.472C151.424,332.771,149.811,334.384,147.822,334.384z"/>
			<path style="fill:#507BFF;" d="M163.611,334.384h-7.472c-1.99,0-3.603-1.613-3.603-3.603v-7.472c0-1.99,1.613-3.603,3.603-3.603
				h7.472c1.99,0,3.603,1.613,3.603,3.603v7.472C167.214,332.771,165.601,334.384,163.611,334.384z"/>
			<path style="fill:#507BFF;" d="M179.401,334.384h-7.472c-1.99,0-3.603-1.613-3.603-3.603v-7.472c0-1.99,1.613-3.603,3.603-3.603
				h7.472c1.99,0,3.603,1.613,3.603,3.603v7.472C183.004,332.771,181.391,334.384,179.401,334.384z"/>
			<path style="fill:#507BFF;" d="M195.191,334.384h-7.472c-1.99,0-3.603-1.613-3.603-3.603v-7.472c0-1.99,1.613-3.603,3.603-3.603
				h7.472c1.99,0,3.603,1.613,3.603,3.603v7.472C198.793,332.771,197.18,334.384,195.191,334.384z"/>
			<path style="fill:#507BFF;" d="M210.98,334.384h-7.472c-1.99,0-3.603-1.613-3.603-3.603v-7.472c0-1.99,1.613-3.603,3.603-3.603
				h7.472c1.99,0,3.603,1.613,3.603,3.603v7.472C214.583,332.771,212.97,334.384,210.98,334.384z"/>
			<path style="fill:#507BFF;" d="M226.77,334.384h-7.472c-1.99,0-3.603-1.613-3.603-3.603v-7.472c0-1.99,1.613-3.603,3.603-3.603
				h7.472c1.99,0,3.603,1.613,3.603,3.603v7.472C230.372,332.771,228.759,334.384,226.77,334.384z"/>
			<path style="fill:#507BFF;" d="M116.242,364.592h-7.472c-1.99,0-3.603-1.613-3.603-3.603v-7.472c0-1.99,1.613-3.603,3.603-3.603
				h7.472c1.99,0,3.603,1.613,3.603,3.603v7.472C119.845,362.979,118.232,364.592,116.242,364.592z"/>
			<path style="fill:#507BFF;" d="M132.032,364.592h-7.472c-1.99,0-3.603-1.613-3.603-3.603v-7.472c0-1.99,1.613-3.603,3.603-3.603
				h7.472c1.99,0,3.603,1.613,3.603,3.603v7.472C135.635,362.979,134.022,364.592,132.032,364.592z"/>
			<path style="fill:#507BFF;" d="M147.822,364.592h-7.472c-1.99,0-3.603-1.613-3.603-3.603v-7.472c0-1.99,1.613-3.603,3.603-3.603
				h7.472c1.99,0,3.603,1.613,3.603,3.603v7.472C151.424,362.979,149.811,364.592,147.822,364.592z"/>
			<path style="fill:#507BFF;" d="M163.611,364.592h-7.472c-1.99,0-3.603-1.613-3.603-3.603v-7.472c0-1.99,1.613-3.603,3.603-3.603
				h7.472c1.99,0,3.603,1.613,3.603,3.603v7.472C167.214,362.979,165.601,364.592,163.611,364.592z"/>
			<path style="fill:#507BFF;" d="M179.401,364.592h-7.472c-1.99,0-3.603-1.613-3.603-3.603v-7.472c0-1.99,1.613-3.603,3.603-3.603
				h7.472c1.99,0,3.603,1.613,3.603,3.603v7.472C183.004,362.979,181.391,364.592,179.401,364.592z"/>
			<path style="fill:#507BFF;" d="M195.191,364.592h-7.472c-1.99,0-3.603-1.613-3.603-3.603v-7.472c0-1.99,1.613-3.603,3.603-3.603
				h7.472c1.99,0,3.603,1.613,3.603,3.603v7.472C198.793,362.979,197.18,364.592,195.191,364.592z"/>
			<path style="fill:#507BFF;" d="M210.98,364.592h-7.472c-1.99,0-3.603-1.613-3.603-3.603v-7.472c0-1.99,1.613-3.603,3.603-3.603
				h7.472c1.99,0,3.603,1.613,3.603,3.603v7.472C214.583,362.979,212.97,364.592,210.98,364.592z"/>
			<path style="fill:#507BFF;" d="M226.77,364.592h-7.472c-1.99,0-3.603-1.613-3.603-3.603v-7.472c0-1.99,1.613-3.603,3.603-3.603
				h7.472c1.99,0,3.603,1.613,3.603,3.603v7.472C230.372,362.979,228.759,364.592,226.77,364.592z"/>
			<rect x="96.289" y="363.392" style="fill:#507BFF;" width="147.945" height="12.15"/>
		</g>
		<path style="opacity:0.25;fill:#507BFF;" d="M334.682,343.405h-33.899c-2.3,0-4.165-1.865-4.165-4.165v-10.422
			c0-2.3,1.865-4.165,4.165-4.165h33.899c2.3,0,4.165,1.865,4.165,4.165v10.422C338.847,341.54,336.982,343.405,334.682,343.405z"/>
		<polyline style="fill:none;stroke:#153B6A;stroke-miterlimit:10;" points="53.394,152.583 185.346,152.583 237.029,114.463 		"/>
		<path style="fill:none;stroke:#5176C6;stroke-miterlimit:10;" d="M309.837,325.915c0,0,4.26-15.737,9.145-15.842
			c4.885-0.104,9.425,15.842,9.425,15.842"/>
	</g>
	<g>
		<path style="fill:#071B33;" d="M381.443,441.752c0,0-4.682,4.682-8.218,5.351c-3.536,0.669,1.051,3.249,10.703,2.389l5.638-0.764
			l0.796-5.829L381.443,441.752z"/>
		<path style="fill:#071B33;" d="M402.931,442.134c0,0-0.969,5.925,0,6.594c0.969,0.669,6.296,3.011,10.812,2.198
			c4.778-0.86,1.507-1.559,0.456-3.531c-1.051-1.972-2.049-5.26-2.049-5.26H402.931z"/>
		<path style="opacity:0.35;fill:#E6EFFF;" d="M372.734,447.227c-2.539,0.811,2.054,3.08,11.193,2.266l5.638-0.764l0.199-1.456
			C385.45,447.765,376.839,447.429,372.734,447.227z"/>
		<path style="opacity:0.35;fill:#E6EFFF;" d="M413.742,450.926c3.428-0.617,2.713-1.152,1.647-2.133
			c-6.428,1.293-10.893-0.872-12.888-2.189c-0.009,1.029,0.094,1.892,0.43,2.124C403.9,449.397,409.227,451.739,413.742,450.926z"/>
		<path style="fill:#FFD0C5;" d="M358.604,336.445c0,0,0.287-1.083-0.86-1.911c-1.147-0.828-3.313-1.975-3.822-3.122
			c-0.51-1.147-1.338,0.036-0.637,1.451c0.701,1.416-2.421-0.186-4.905-1.042c-2.485-0.856-4.396,2.839,5.797,6.343L358.604,336.445
			z"/>
		<path style="fill:#D3470B;" d="M376.601,335.264c0,0,0.37-2.671,3.306-3.119c2.937-0.447,16.488-0.93,19.906-0.704
			c3.417,0.226,3.812,9.116,2.213,15.133c-1.599,6.017,0,17.838,0,17.838s-7.299,4.714-16.744,5.097
			c-9.445,0.382-7.697-5.74-7.697-5.74S375.2,346.505,376.601,335.264z"/>
		<path style="fill:#071B33;" d="M393.724,308.573c0,0-7.721-2.552-10.663,1.177c-2.941,3.729,0,10.873,0,10.873l11.398,0.639
			c0,0,2.364-2.951,4.622-5.262C399.082,316,399.758,308.458,393.724,308.573z"/>
		<path style="fill:#FFD0C5;" d="M394.01,322.292l-0.754,8.941c0,0-1.501,3.046-5.559,2.941c-4.058-0.105-1.694-3.309-1.694-3.309
			l0.788-5.725L394.01,322.292z"/>
		<path style="fill:#F9AC9D;" d="M386.186,329.539c2.619-0.619,5.635-2.807,7.586-4.419l0.238-2.827l-7.219,2.848L386.186,329.539z"
			/>
		<path style="fill:#FFD0C5;" d="M384.033,314.241c0,0-3.624,10.4,0.945,13c0,0,9.14,0.315,10.085-8.667
			c0.945-8.982-4.255-8.431-4.255-8.431S386.397,309.198,384.033,314.241z"/>
		<path style="fill:#071B33;" d="M391.098,312.376c0,0-3.992,3.729-8.719,3.204c0,0,0-8.667,9.245-6.723c0,0,5.83-0.778,4.36,9.801
			C395.983,318.658,392.306,320.203,391.098,312.376z"/>
		<path style="fill:#FFD0C5;" d="M394.145,319.572c0,0,0.423-2.626,2.076-2.154c1.653,0.473,0.228,4.494-2.211,4.873
			L394.145,319.572z"/>
		<path style="fill:none;stroke:#071B33;stroke-width:0.5;stroke-miterlimit:10;" d="M386.003,318.141
			c0,0.197-0.512,1.717-1.615,1.686c0,0-0.236,0.993,1.024,1.111"/>
		<path style="fill:#FBF6F1;" d="M384.624,322.292c0,0,1.458,0.3,3.073-0.172c0,0-0.591,1.93-2.088,1.655
			C384.112,323.499,384.624,322.292,384.624,322.292z"/>
		<path style="fill:#494916;" d="M389.3,317.254c0,0.403-0.156,0.729-0.348,0.729c-0.192,0-0.348-0.326-0.348-0.729
			c0-0.402,0.156-0.729,0.348-0.729C389.144,316.526,389.3,316.852,389.3,317.254z"/>
		<path style="fill:#494916;" d="M385.091,317.254c0,0.403-0.156,0.729-0.348,0.729c-0.192,0-0.348-0.326-0.348-0.729
			c0-0.402,0.156-0.729,0.348-0.729C384.935,316.526,385.091,316.852,385.091,317.254z"/>
		<path style="fill:none;stroke:#071B33;stroke-width:0.5;stroke-miterlimit:10;" d="M388.288,315.213c0,0,1.392-0.762,1.865,0.499"
			/>
		<path style="fill:#D3470B;" d="M378.751,332.481c0,0-3.902,1.766-4.857,5.684c-0.956,3.918-6.02,11.162-6.02,11.162
			s-0.956-2.753-8.696-13.265c0,0-3.631-0.287-5.638,2.198c0,0,4.3,20.641,11.658,21.501c7.358,0.86,14.71-13.952,14.71-13.952
			L378.751,332.481z"/>
		<path style="fill:#FFFFFF;" d="M377.481,364.412c0,0-1.167,12.869,1.27,18.857c2.437,5.988,2.692,58.483,2.692,58.483
			s3.185,2.548,8.919,1.147c0,0,3.185-22.552,1.274-31.598s4.587-27.263,1.656-46.44L377.481,364.412z"/>
		<path style="fill:#FFFFFF;" d="M386.06,367.881c0,0,1.738,10.597,4.557,14.751c2.818,4.155,12.314,59.502,12.314,59.502
			s3.485,2.293,9.219,0c0,0-0.953-28.309-4.617-38.044c-3.665-9.736-0.849-20.311-5.506-39.678L386.06,367.881z"/>
		<path style="fill:#153B6A;" d="M380.243,332.189c0,0,1.074-1.613,2.427-0.303c0,0-0.191,7.112,0,7.399
			c0.191,0.287-2.075,2.289-2.762-0.259C379.228,336.504,380.243,332.189,380.243,332.189z"/>
		<path style="fill:#153B6A;" d="M396.474,331.383c0,0-1.052-1.513-2.292-0.096c0,0,0.169,6.862,0.002,7.164
			c-0.167,0.301,1.332,2.257,2.037-0.286C396.979,335.43,396.474,331.383,396.474,331.383z"/>
		<path style="fill:#5176C6;" d="M380.197,337.97c3.477-0.267,10.251-0.67,15.635-0.279c2.099,0.152,3.702,1.944,3.638,4.048
			c-0.158,5.216-0.138,14.374,1.911,15.074c0,0,3.642,6.328,4.282,14.956c0.289,3.903,0.911,10.239,0.911,22.49
			c0,0-11.98,3.286-29.85-0.632c0,0,0.572-41.547,1.08-53.325C377.875,338.7,378.598,338.093,380.197,337.97z"/>
		<path style="fill:#FFD0C5;" d="M402.084,362.31c0,0-2.357-0.127-3.568,0.701c-1.21,0.828-1.784,3.504-2.867,5.16
			c0,0,2.148,1.911,4.164,0c1.512-1.433,2.535-0.858,3.355-1.88c0.636-0.792,0.556-1.945-0.081-2.736L402.084,362.31z"/>
		<path style="fill:#D3470B;" d="M399.813,331.441c0,0,4.755-0.156,6.571,3.189c1.816,3.345,8.771,15.317,9.46,17.962
			c0.956,3.666-11.085,14.624-11.085,14.624s-3.03-0.573-3.808-4.874c0,0,1.979-4.124,7.471-9.75c0,0-7.152-6.864-8.609-11.027
			S399.813,331.441,399.813,331.441z"/>
		<path style="fill:none;stroke:#FFFFFF;stroke-miterlimit:10;" d="M381.199,360.487h14.45c0,0,2.951,11.232-7.361,11.593
			C377.976,372.441,381.199,360.487,381.199,360.487z"/>
	</g>
	<g>
		<g>
			<path style="fill:#071B33;" d="M411.396,155.583h-119.62c-4.349,0-7.875,3.526-7.875,7.875v58.685
				c0,4.349,3.525,7.874,7.874,7.874h119.622c4.349,0,7.874-3.525,7.874-7.874v-58.686
				C419.27,159.108,415.745,155.583,411.396,155.583z"/>
			<g>
				
					<text transform="matrix(1 0 0 1 309.8369 179.5536)" style="fill:#071B33; font-family:'BebasNeue-Regular'; font-size:19.5244px;">WE ARE</text>
				
					<text transform="matrix(1 0 0 1 307.5762 220.9345)" style="fill:#071B33; font-family:'BebasNeue-Regular'; font-size:55.8499px;">OPEN</text>
			</g>
		</g>
		<g>
			<path style="fill:#D3470B;" d="M408.396,152.583h-119.62c-4.349,0-7.875,3.526-7.875,7.875v58.685
				c0,4.349,3.525,7.874,7.874,7.874h119.622c4.349,0,7.874-3.525,7.874-7.874v-58.686
				C416.27,156.108,412.745,152.583,408.396,152.583z"/>
			<g>
				
					<text transform="matrix(1 0 0 1 310.8369 176.5536)" style="fill:#FFFFFF; font-family:'BebasNeue-Regular'; font-size:19.5244px;">WE ARE</text>
				
					<text transform="matrix(1 0 0 1 308.5762 217.9345)" style="fill:#FFFFFF; font-family:'BebasNeue-Regular'; font-size:55.8499px;">OPEN</text>
			</g>
		</g>
	</g>
</g>
</svg>
