<svg width="494" height="480" viewBox="0 0 494 480" fill="none" xmlns="http://www.w3.org/2000/svg">
<rect width="494" height="480" rx="100" fill="#3BB4C1"/>
<path d="M310 290H176.5C127.3 298.4 109.667 262.833 107 244C96.1999 202.8 134.5 182.833 155 178C163.8 115.6 216 102 241 103C301.4 105.4 319.833 158 321.5 184C357.9 183.2 369 220.333 370 239C364.8 283.8 327.833 291.667 310 290Z" fill="#F6F5F5"/>
<path d="M294 290H293.042L317.884 242.029L317.929 241.943L317.97 241.854C318.896 239.9 320.089 236.529 319.904 233.162C319.808 231.398 319.3 229.123 317.621 227.185C315.85 225.14 313.407 224.194 310.892 224.014L310.696 224H310.5H195.385L192.41 210.987C192.191 209.62 191.624 207.879 190.509 206.268C189.224 204.414 187.032 202.52 183.778 202.055L183.391 202H183H164H162.476L161.17 202.784C158.544 204.36 156.368 207.366 155.827 210.873C155.211 214.866 156.778 218.958 160.7 221.9L162.167 223H164H172.746L184.01 299.972C184.099 301.978 184.759 304.618 186.553 306.933C188.689 309.687 192.073 311.5 196.5 311.5H290.564C290.692 311.63 290.816 311.765 290.932 311.905C291.387 312.451 291.567 312.864 291.619 313.08C291.647 313.192 291.654 313.238 291.576 313.402C291.495 313.57 291.262 313.956 290.657 314.5H193.5H191.667L190.2 315.6C188.367 316.975 185.627 319.716 184.744 323.5C184.261 325.569 184.353 327.927 185.464 330.249C186.541 332.501 188.365 334.276 190.585 335.664L191.923 336.5H193.5H292.5H293.334L294.13 336.253C297.193 335.302 301.583 333.199 305.412 329.802C309.272 326.378 312.913 321.304 313.477 314.501C313.816 311.098 313.25 306.154 310.645 301.466C307.916 296.556 303.066 292.159 295.374 290.174L294.698 290H294Z" fill="#F6F5F5" stroke="#3BB4C1" stroke-width="11"/>
<ellipse cx="215" cy="351" rx="17" ry="16" fill="#F6F5F5"/>
<ellipse cx="271" cy="351" rx="17" ry="16" fill="#F6F5F5"/>
</svg>
