<?xml version="1.0" encoding="utf-8"?>
<!-- Generator: Adobe Illustrator 27.5.0, SVG Export Plug-In . SVG Version: 6.00 Build 0)  -->
<svg version="1.1" xmlns="http://www.w3.org/2000/svg" xmlns:xlink="http://www.w3.org/1999/xlink" x="0px" y="0px"
	 viewBox="0 0 500 500" style="enable-background:new 0 0 500 500;" xml:space="preserve">
<g id="Background_Complete">
	<g>
		<rect y="382.398" style="fill:#EBEBEB;" width="500" height="0.25"/>
		<rect x="416.779" y="398.494" style="fill:#EBEBEB;" width="33.122" height="0.25"/>
		<rect x="322.527" y="401.208" style="fill:#EBEBEB;" width="8.693" height="0.25"/>
		<rect x="396.586" y="389.208" style="fill:#EBEBEB;" width="19.192" height="0.25"/>
		<rect x="52.459" y="390.888" style="fill:#EBEBEB;" width="43.193" height="0.25"/>
		<rect x="104.556" y="390.888" style="fill:#EBEBEB;" width="6.333" height="0.25"/>
		<rect x="131.471" y="395.111" style="fill:#EBEBEB;" width="93.676" height="0.25"/>
		<path style="fill:#EBEBEB;" d="M237.014,337.8H43.915c-3.147,0-5.708-2.561-5.708-5.708V60.66c0-3.147,2.561-5.708,5.708-5.708
			h193.099c3.146,0,5.707,2.561,5.707,5.708v271.432C242.721,335.239,240.16,337.8,237.014,337.8z M43.915,55.203
			c-3.01,0-5.458,2.448-5.458,5.458v271.432c0,3.01,2.448,5.458,5.458,5.458h193.099c3.009,0,5.457-2.448,5.457-5.458V60.66
			c0-3.009-2.448-5.458-5.457-5.458H43.915z"/>
		<path style="fill:#EBEBEB;" d="M453.31,337.8H260.212c-3.147,0-5.707-2.561-5.707-5.708V60.66c0-3.147,2.561-5.708,5.707-5.708
			H453.31c3.148,0,5.708,2.561,5.708,5.708v271.432C459.019,335.239,456.458,337.8,453.31,337.8z M260.212,55.203
			c-3.009,0-5.457,2.448-5.457,5.458v271.432c0,3.01,2.448,5.458,5.457,5.458H453.31c3.01,0,5.458-2.448,5.458-5.458V60.66
			c0-3.009-2.448-5.458-5.458-5.458H260.212z"/>
	</g>
	<g>
		<polygon style="fill:#E6E6E6;" points="433.34,371.382 433.34,324.561 429.337,324.561 429.337,302.252 423.485,302.252 
			423.485,224.686 415.025,224.686 415.025,214.678 396.962,206.254 396.962,196.162 394.46,196.162 394.46,224.686 
			390.957,224.686 390.957,302.252 387.454,302.252 387.454,261.468 377.946,261.468 377.946,240.45 375.293,240.45 
			375.293,302.252 368.071,302.252 368.071,278.732 363.317,278.732 363.317,272.727 352.308,272.727 352.308,252.21 
			346.279,252.21 346.279,237.697 338.867,237.697 338.867,216.554 336.223,216.554 336.223,237.697 328.812,237.697 
			328.812,252.21 322.783,252.21 322.783,272.727 311.773,272.727 311.773,278.732 307.019,278.732 307.019,302.252 301.38,302.252 
			301.38,272.727 290.371,272.727 290.371,209.173 286.868,209.173 286.868,202.167 263.348,202.167 263.348,209.173 
			258.344,209.173 258.344,255.212 238.327,255.212 238.327,259.716 230.82,259.716 230.82,263.219 238.327,263.219 
			238.327,281.234 217.309,281.234 217.309,221.183 212.805,221.183 212.805,208.423 203.047,208.423 203.047,163.134 
			200.294,163.134 200.294,208.423 193.288,208.423 193.288,221.183 152.215,221.183 152.215,216.983 149.713,216.983 
			149.713,245.507 146.21,245.507 146.21,246.008 144.106,246.008 144.106,274.532 140.603,274.532 140.603,282.289 
			133.199,282.289 133.199,261.271 130.546,261.271 130.546,311.314 127.592,311.314 127.592,290.296 124.939,290.296 
			124.939,323.073 123.325,323.073 123.325,299.553 118.57,299.553 118.57,293.548 107.561,293.548 107.561,273.031 
			101.532,273.031 101.532,258.518 94.121,258.518 94.121,237.375 91.476,237.375 91.476,258.518 84.065,258.518 84.065,273.031 
			78.036,273.031 78.036,293.548 67.026,293.548 67.026,299.553 62.272,299.553 62.272,322.573 61.419,322.573 61.419,323.073 
			59.065,323.073 59.065,371.382 		"/>
		<g>
			<rect x="175.133" y="223.989" style="fill:#F0F0F0;" width="2.836" height="2.836"/>
			<rect x="175.133" y="228.743" style="fill:#F0F0F0;" width="2.836" height="2.836"/>
			<rect x="175.133" y="247.76" style="fill:#F0F0F0;" width="2.836" height="2.836"/>
			<rect x="175.133" y="252.514" style="fill:#F0F0F0;" width="2.836" height="2.836"/>
			<rect x="175.133" y="257.268" style="fill:#F0F0F0;" width="2.836" height="2.836"/>
			<rect x="175.133" y="271.53" style="fill:#F0F0F0;" width="2.836" height="2.836"/>
			<rect x="175.133" y="276.284" style="fill:#F0F0F0;" width="2.836" height="2.836"/>
			<rect x="179.636" y="243.006" style="fill:#F0F0F0;" width="2.836" height="2.836"/>
			<rect x="179.636" y="247.76" style="fill:#F0F0F0;" width="2.836" height="2.836"/>
			<rect x="179.636" y="252.514" style="fill:#F0F0F0;" width="2.836" height="2.836"/>
			<rect x="179.636" y="257.268" style="fill:#F0F0F0;" width="2.836" height="2.836"/>
			<rect x="179.636" y="262.022" style="fill:#F0F0F0;" width="2.836" height="2.836"/>
			<rect x="179.636" y="271.53" style="fill:#F0F0F0;" width="2.836" height="2.836"/>
			<rect x="179.636" y="276.284" style="fill:#F0F0F0;" width="2.836" height="2.836"/>
			<rect x="184.14" y="223.989" style="fill:#F0F0F0;" width="2.836" height="2.836"/>
			<rect x="184.14" y="228.743" style="fill:#F0F0F0;" width="2.836" height="2.836"/>
			<rect x="184.14" y="233.497" style="fill:#F0F0F0;" width="2.836" height="2.836"/>
			<rect x="184.14" y="238.251" style="fill:#F0F0F0;" width="2.836" height="2.836"/>
			<rect x="184.14" y="243.006" style="fill:#F0F0F0;" width="2.836" height="2.836"/>
			<rect x="184.14" y="247.76" style="fill:#F0F0F0;" width="2.836" height="2.836"/>
			<rect x="184.14" y="252.514" style="fill:#F0F0F0;" width="2.836" height="2.836"/>
			<rect x="184.14" y="257.268" style="fill:#F0F0F0;" width="2.836" height="2.836"/>
			<rect x="184.14" y="262.022" style="fill:#F0F0F0;" width="2.836" height="2.836"/>
			<rect x="184.14" y="266.776" style="fill:#F0F0F0;" width="2.836" height="2.836"/>
			<rect x="184.14" y="276.284" style="fill:#F0F0F0;" width="2.836" height="2.836"/>
			<rect x="188.644" y="223.989" style="fill:#F0F0F0;" width="2.836" height="2.836"/>
			<rect x="188.644" y="228.743" style="fill:#F0F0F0;" width="2.836" height="2.836"/>
			<rect x="188.644" y="233.497" style="fill:#F0F0F0;" width="2.836" height="2.836"/>
			<rect x="188.644" y="238.251" style="fill:#F0F0F0;" width="2.836" height="2.836"/>
			<rect x="188.644" y="243.006" style="fill:#F0F0F0;" width="2.836" height="2.836"/>
			<rect x="188.644" y="247.76" style="fill:#F0F0F0;" width="2.836" height="2.836"/>
			<rect x="188.644" y="252.514" style="fill:#F0F0F0;" width="2.836" height="2.836"/>
			<rect x="188.644" y="295.3" style="fill:#F0F0F0;" width="2.836" height="2.836"/>
			<rect x="193.148" y="223.989" style="fill:#F0F0F0;" width="2.836" height="2.836"/>
			<rect x="193.148" y="228.743" style="fill:#F0F0F0;" width="2.836" height="2.836"/>
			<rect x="193.148" y="233.497" style="fill:#F0F0F0;" width="2.836" height="2.836"/>
			<rect x="193.148" y="238.251" style="fill:#F0F0F0;" width="2.836" height="2.836"/>
			<rect x="193.148" y="243.006" style="fill:#F0F0F0;" width="2.836" height="2.836"/>
			<rect x="193.148" y="247.76" style="fill:#F0F0F0;" width="2.836" height="2.836"/>
			<rect x="193.148" y="252.514" style="fill:#F0F0F0;" width="2.836" height="2.836"/>
			<rect x="193.148" y="257.268" style="fill:#F0F0F0;" width="2.836" height="2.836"/>
			<rect x="193.148" y="285.792" style="fill:#F0F0F0;" width="2.836" height="2.836"/>
			<rect x="193.148" y="290.546" style="fill:#F0F0F0;" width="2.836" height="2.836"/>
			<rect x="193.148" y="295.3" style="fill:#F0F0F0;" width="2.836" height="2.836"/>
			<rect x="193.148" y="300.054" style="fill:#F0F0F0;" width="2.836" height="2.836"/>
			<rect x="193.148" y="319.07" style="fill:#F0F0F0;" width="2.836" height="2.836"/>
			<rect x="197.652" y="223.989" style="fill:#F0F0F0;" width="2.836" height="2.836"/>
			<rect x="197.652" y="228.743" style="fill:#F0F0F0;" width="2.836" height="2.836"/>
			<rect x="197.652" y="233.497" style="fill:#F0F0F0;" width="2.836" height="2.836"/>
			<rect x="197.652" y="238.251" style="fill:#F0F0F0;" width="2.836" height="2.836"/>
			<rect x="197.652" y="243.006" style="fill:#F0F0F0;" width="2.836" height="2.836"/>
			<rect x="197.652" y="247.76" style="fill:#F0F0F0;" width="2.836" height="2.836"/>
			<rect x="197.652" y="252.514" style="fill:#F0F0F0;" width="2.836" height="2.836"/>
			<rect x="197.652" y="257.268" style="fill:#F0F0F0;" width="2.836" height="2.836"/>
			<rect x="197.652" y="262.022" style="fill:#F0F0F0;" width="2.836" height="2.836"/>
			<rect x="197.652" y="266.776" style="fill:#F0F0F0;" width="2.836" height="2.836"/>
			<rect x="197.652" y="281.038" style="fill:#F0F0F0;" width="2.836" height="2.836"/>
			<rect x="197.652" y="285.792" style="fill:#F0F0F0;" width="2.836" height="2.836"/>
			<rect x="197.652" y="290.546" style="fill:#F0F0F0;" width="2.836" height="2.836"/>
			<rect x="197.652" y="295.3" style="fill:#F0F0F0;" width="2.836" height="2.836"/>
			<rect x="197.652" y="300.054" style="fill:#F0F0F0;" width="2.836" height="2.836"/>
			<rect x="197.652" y="319.07" style="fill:#F0F0F0;" width="2.836" height="2.836"/>
			<rect x="202.156" y="223.989" style="fill:#F0F0F0;" width="2.836" height="2.836"/>
			<rect x="202.156" y="228.743" style="fill:#F0F0F0;" width="2.836" height="2.836"/>
			<rect x="202.156" y="233.497" style="fill:#F0F0F0;" width="2.836" height="2.836"/>
			<rect x="202.156" y="238.251" style="fill:#F0F0F0;" width="2.836" height="2.836"/>
			<rect x="202.156" y="243.006" style="fill:#F0F0F0;" width="2.836" height="2.836"/>
			<rect x="202.156" y="247.76" style="fill:#F0F0F0;" width="2.836" height="2.836"/>
			<rect x="202.156" y="252.514" style="fill:#F0F0F0;" width="2.836" height="2.836"/>
			<rect x="202.156" y="257.268" style="fill:#F0F0F0;" width="2.836" height="2.836"/>
			<rect x="202.156" y="262.022" style="fill:#F0F0F0;" width="2.836" height="2.836"/>
			<rect x="202.156" y="266.776" style="fill:#F0F0F0;" width="2.836" height="2.836"/>
			<rect x="202.156" y="271.53" style="fill:#F0F0F0;" width="2.836" height="2.836"/>
			<rect x="202.156" y="276.284" style="fill:#F0F0F0;" width="2.836" height="2.836"/>
			<rect x="202.156" y="281.038" style="fill:#F0F0F0;" width="2.836" height="2.836"/>
			<rect x="202.156" y="285.792" style="fill:#F0F0F0;" width="2.836" height="2.836"/>
			<rect x="202.156" y="290.546" style="fill:#F0F0F0;" width="2.836" height="2.836"/>
			<rect x="202.156" y="295.3" style="fill:#F0F0F0;" width="2.836" height="2.836"/>
			<rect x="202.156" y="300.054" style="fill:#F0F0F0;" width="2.836" height="2.836"/>
			<rect x="202.156" y="304.808" style="fill:#F0F0F0;" width="2.836" height="2.836"/>
			<rect x="206.659" y="223.989" style="fill:#F0F0F0;" width="2.836" height="2.836"/>
			<rect x="206.659" y="228.743" style="fill:#F0F0F0;" width="2.836" height="2.836"/>
			<rect x="206.659" y="233.497" style="fill:#F0F0F0;" width="2.836" height="2.836"/>
			<rect x="206.659" y="238.251" style="fill:#F0F0F0;" width="2.836" height="2.836"/>
			<rect x="206.659" y="243.006" style="fill:#F0F0F0;" width="2.836" height="2.836"/>
			<rect x="206.659" y="247.76" style="fill:#F0F0F0;" width="2.836" height="2.836"/>
			<rect x="206.659" y="252.514" style="fill:#F0F0F0;" width="2.836" height="2.836"/>
			<rect x="206.659" y="257.268" style="fill:#F0F0F0;" width="2.836" height="2.836"/>
			<rect x="206.659" y="262.022" style="fill:#F0F0F0;" width="2.836" height="2.836"/>
			<rect x="206.659" y="266.776" style="fill:#F0F0F0;" width="2.836" height="2.836"/>
			<rect x="206.659" y="281.038" style="fill:#F0F0F0;" width="2.836" height="2.836"/>
			<rect x="206.659" y="285.792" style="fill:#F0F0F0;" width="2.836" height="2.836"/>
			<rect x="206.659" y="290.546" style="fill:#F0F0F0;" width="2.836" height="2.836"/>
			<rect x="206.659" y="295.3" style="fill:#F0F0F0;" width="2.836" height="2.836"/>
			<rect x="211.163" y="223.989" style="fill:#F0F0F0;" width="2.836" height="2.836"/>
			<rect x="211.163" y="228.743" style="fill:#F0F0F0;" width="2.836" height="2.836"/>
			<rect x="211.163" y="233.497" style="fill:#F0F0F0;" width="2.836" height="2.836"/>
			<rect x="211.163" y="238.251" style="fill:#F0F0F0;" width="2.836" height="2.836"/>
			<rect x="211.163" y="243.006" style="fill:#F0F0F0;" width="2.836" height="2.836"/>
			<rect x="211.163" y="247.76" style="fill:#F0F0F0;" width="2.836" height="2.836"/>
			<rect x="211.163" y="252.514" style="fill:#F0F0F0;" width="2.836" height="2.836"/>
			<rect x="211.163" y="257.268" style="fill:#F0F0F0;" width="2.836" height="2.836"/>
			<rect x="211.163" y="262.022" style="fill:#F0F0F0;" width="2.836" height="2.836"/>
			<rect x="211.163" y="266.776" style="fill:#F0F0F0;" width="2.836" height="2.836"/>
			<rect x="211.163" y="281.038" style="fill:#F0F0F0;" width="2.836" height="2.836"/>
			<rect x="211.163" y="285.792" style="fill:#F0F0F0;" width="2.836" height="2.836"/>
			<rect x="211.163" y="290.546" style="fill:#F0F0F0;" width="2.836" height="2.836"/>
			<rect x="261.873" y="211.646" style="fill:#F0F0F0;" width="2.836" height="2.836"/>
			<rect x="261.873" y="216.4" style="fill:#F0F0F0;" width="2.836" height="2.836"/>
			<rect x="261.873" y="221.154" style="fill:#F0F0F0;" width="2.836" height="2.836"/>
			<rect x="261.873" y="225.908" style="fill:#F0F0F0;" width="2.836" height="2.836"/>
			<rect x="261.873" y="230.662" style="fill:#F0F0F0;" width="2.836" height="2.836"/>
			<rect x="261.873" y="235.416" style="fill:#F0F0F0;" width="2.836" height="2.836"/>
			<rect x="261.873" y="240.17" style="fill:#F0F0F0;" width="2.836" height="2.836"/>
			<rect x="261.873" y="244.924" style="fill:#F0F0F0;" width="2.836" height="2.836"/>
			<rect x="261.873" y="259.186" style="fill:#F0F0F0;" width="2.836" height="2.836"/>
			<rect x="261.873" y="263.94" style="fill:#F0F0F0;" width="2.836" height="2.836"/>
			<rect x="266.377" y="211.646" style="fill:#F0F0F0;" width="2.836" height="2.836"/>
			<rect x="266.377" y="216.4" style="fill:#F0F0F0;" width="2.836" height="2.836"/>
			<rect x="266.377" y="221.154" style="fill:#F0F0F0;" width="2.836" height="2.836"/>
			<rect x="266.377" y="225.908" style="fill:#F0F0F0;" width="2.836" height="2.836"/>
			<rect x="266.377" y="230.662" style="fill:#F0F0F0;" width="2.836" height="2.836"/>
			<rect x="266.377" y="235.416" style="fill:#F0F0F0;" width="2.836" height="2.836"/>
			<rect x="266.377" y="240.17" style="fill:#F0F0F0;" width="2.836" height="2.836"/>
			<rect x="266.377" y="244.924" style="fill:#F0F0F0;" width="2.836" height="2.836"/>
			<rect x="266.377" y="263.94" style="fill:#F0F0F0;" width="2.836" height="2.836"/>
			<rect x="270.881" y="211.646" style="fill:#F0F0F0;" width="2.836" height="2.836"/>
			<rect x="270.881" y="216.4" style="fill:#F0F0F0;" width="2.836" height="2.836"/>
			<rect x="270.881" y="221.154" style="fill:#F0F0F0;" width="2.836" height="2.836"/>
			<rect x="270.881" y="225.908" style="fill:#F0F0F0;" width="2.836" height="2.836"/>
			<rect x="270.881" y="230.662" style="fill:#F0F0F0;" width="2.836" height="2.836"/>
			<rect x="270.881" y="235.416" style="fill:#F0F0F0;" width="2.836" height="2.836"/>
			<rect x="270.881" y="240.17" style="fill:#F0F0F0;" width="2.836" height="2.836"/>
			<rect x="270.881" y="244.924" style="fill:#F0F0F0;" width="2.836" height="2.836"/>
			<rect x="275.384" y="211.646" style="fill:#F0F0F0;" width="2.836" height="2.836"/>
			<rect x="275.384" y="216.4" style="fill:#F0F0F0;" width="2.836" height="2.836"/>
			<rect x="275.384" y="221.154" style="fill:#F0F0F0;" width="2.836" height="2.836"/>
			<rect x="275.384" y="225.908" style="fill:#F0F0F0;" width="2.836" height="2.836"/>
			<rect x="275.384" y="230.662" style="fill:#F0F0F0;" width="2.836" height="2.836"/>
			<rect x="275.384" y="235.416" style="fill:#F0F0F0;" width="2.836" height="2.836"/>
			<rect x="275.384" y="244.924" style="fill:#F0F0F0;" width="2.836" height="2.836"/>
			<rect x="275.384" y="249.678" style="fill:#F0F0F0;" width="2.836" height="2.836"/>
			<rect x="275.384" y="263.94" style="fill:#F0F0F0;" width="2.836" height="2.836"/>
			<rect x="275.384" y="268.694" style="fill:#F0F0F0;" width="2.836" height="2.836"/>
			<rect x="275.384" y="273.448" style="fill:#F0F0F0;" width="2.836" height="2.836"/>
			<rect x="275.384" y="278.202" style="fill:#F0F0F0;" width="2.836" height="2.836"/>
			<rect x="275.384" y="282.956" style="fill:#F0F0F0;" width="2.836" height="2.836"/>
			<rect x="275.384" y="287.711" style="fill:#F0F0F0;" width="2.836" height="2.836"/>
			<rect x="275.384" y="292.465" style="fill:#F0F0F0;" width="2.836" height="2.836"/>
			<rect x="279.888" y="211.646" style="fill:#F0F0F0;" width="2.836" height="2.836"/>
			<rect x="279.888" y="216.4" style="fill:#F0F0F0;" width="2.836" height="2.836"/>
			<rect x="279.888" y="221.154" style="fill:#F0F0F0;" width="2.836" height="2.836"/>
			<rect x="279.888" y="225.908" style="fill:#F0F0F0;" width="2.836" height="2.836"/>
			<rect x="279.888" y="230.662" style="fill:#F0F0F0;" width="2.836" height="2.836"/>
			<rect x="279.888" y="235.416" style="fill:#F0F0F0;" width="2.836" height="2.836"/>
			<rect x="279.888" y="249.678" style="fill:#F0F0F0;" width="2.836" height="2.836"/>
			<rect x="279.888" y="254.432" style="fill:#F0F0F0;" width="2.836" height="2.836"/>
			<rect x="279.888" y="259.186" style="fill:#F0F0F0;" width="2.836" height="2.836"/>
			<rect x="279.888" y="263.94" style="fill:#F0F0F0;" width="2.836" height="2.836"/>
			<rect x="279.888" y="268.694" style="fill:#F0F0F0;" width="2.836" height="2.836"/>
			<rect x="279.888" y="273.448" style="fill:#F0F0F0;" width="2.836" height="2.836"/>
			<rect x="279.888" y="278.202" style="fill:#F0F0F0;" width="2.836" height="2.836"/>
			<rect x="279.888" y="282.956" style="fill:#F0F0F0;" width="2.836" height="2.836"/>
			<rect x="279.888" y="287.711" style="fill:#F0F0F0;" width="2.836" height="2.836"/>
			<rect x="279.888" y="292.465" style="fill:#F0F0F0;" width="2.836" height="2.836"/>
			<rect x="279.888" y="297.219" style="fill:#F0F0F0;" width="2.836" height="2.836"/>
			<rect x="279.888" y="306.727" style="fill:#F0F0F0;" width="2.836" height="2.836"/>
			<rect x="284.392" y="211.646" style="fill:#F0F0F0;" width="2.836" height="2.836"/>
			<rect x="284.392" y="216.4" style="fill:#F0F0F0;" width="2.836" height="2.836"/>
			<rect x="284.392" y="221.154" style="fill:#F0F0F0;" width="2.836" height="2.836"/>
			<rect x="284.392" y="225.908" style="fill:#F0F0F0;" width="2.836" height="2.836"/>
			<rect x="284.392" y="230.662" style="fill:#F0F0F0;" width="2.836" height="2.836"/>
			<rect x="284.392" y="235.416" style="fill:#F0F0F0;" width="2.836" height="2.836"/>
			<rect x="284.392" y="249.678" style="fill:#F0F0F0;" width="2.836" height="2.836"/>
			<rect x="284.392" y="254.432" style="fill:#F0F0F0;" width="2.836" height="2.836"/>
			<rect x="284.392" y="259.186" style="fill:#F0F0F0;" width="2.836" height="2.836"/>
			<rect x="284.392" y="263.94" style="fill:#F0F0F0;" width="2.836" height="2.836"/>
			<rect x="284.392" y="278.202" style="fill:#F0F0F0;" width="2.836" height="2.836"/>
			<rect x="284.392" y="282.956" style="fill:#F0F0F0;" width="2.836" height="2.836"/>
			<rect x="284.392" y="287.711" style="fill:#F0F0F0;" width="2.836" height="2.836"/>
			<rect x="284.392" y="292.465" style="fill:#F0F0F0;" width="2.836" height="2.836"/>
			<rect x="284.392" y="297.219" style="fill:#F0F0F0;" width="2.836" height="2.836"/>
			<rect x="284.392" y="306.727" style="fill:#F0F0F0;" width="2.836" height="2.836"/>
			<rect x="284.392" y="311.481" style="fill:#F0F0F0;" width="2.836" height="2.836"/>
			<rect x="325.26" y="255.85" style="fill:#F0F0F0;" width="2.836" height="2.836"/>
			<rect x="325.26" y="260.604" style="fill:#F0F0F0;" width="2.836" height="2.836"/>
			<rect x="325.26" y="265.358" style="fill:#F0F0F0;" width="2.836" height="2.836"/>
			<rect x="325.26" y="270.112" style="fill:#F0F0F0;" width="2.836" height="2.836"/>
			<rect x="325.26" y="274.866" style="fill:#F0F0F0;" width="2.836" height="2.836"/>
			<rect x="325.26" y="279.62" style="fill:#F0F0F0;" width="2.836" height="2.836"/>
			<rect x="325.26" y="284.374" style="fill:#F0F0F0;" width="2.836" height="2.836"/>
			<rect x="325.26" y="298.637" style="fill:#F0F0F0;" width="2.836" height="2.836"/>
			<rect x="325.26" y="303.391" style="fill:#F0F0F0;" width="2.836" height="2.836"/>
			<rect x="325.26" y="308.145" style="fill:#F0F0F0;" width="2.836" height="2.836"/>
			<rect x="329.764" y="255.85" style="fill:#F0F0F0;" width="2.836" height="2.836"/>
			<rect x="329.764" y="260.604" style="fill:#F0F0F0;" width="2.836" height="2.836"/>
			<rect x="329.764" y="265.358" style="fill:#F0F0F0;" width="2.836" height="2.836"/>
			<rect x="329.764" y="270.112" style="fill:#F0F0F0;" width="2.836" height="2.836"/>
			<rect x="329.764" y="274.866" style="fill:#F0F0F0;" width="2.836" height="2.836"/>
			<rect x="329.764" y="279.62" style="fill:#F0F0F0;" width="2.836" height="2.836"/>
			<rect x="329.764" y="284.374" style="fill:#F0F0F0;" width="2.836" height="2.836"/>
			<rect x="334.268" y="255.85" style="fill:#F0F0F0;" width="2.836" height="2.836"/>
			<rect x="334.268" y="260.604" style="fill:#F0F0F0;" width="2.836" height="2.836"/>
			<rect x="334.268" y="265.358" style="fill:#F0F0F0;" width="2.836" height="2.836"/>
			<rect x="334.268" y="270.112" style="fill:#F0F0F0;" width="2.836" height="2.836"/>
			<rect x="334.268" y="274.866" style="fill:#F0F0F0;" width="2.836" height="2.836"/>
			<rect x="334.268" y="279.62" style="fill:#F0F0F0;" width="2.836" height="2.836"/>
			<rect x="334.268" y="284.374" style="fill:#F0F0F0;" width="2.836" height="2.836"/>
			<rect x="338.772" y="255.85" style="fill:#F0F0F0;" width="2.836" height="2.836"/>
			<rect x="338.772" y="260.604" style="fill:#F0F0F0;" width="2.836" height="2.836"/>
			<rect x="338.772" y="265.358" style="fill:#F0F0F0;" width="2.836" height="2.836"/>
			<rect x="338.772" y="270.112" style="fill:#F0F0F0;" width="2.836" height="2.836"/>
			<rect x="338.772" y="274.866" style="fill:#F0F0F0;" width="2.836" height="2.836"/>
			<rect x="338.772" y="279.62" style="fill:#F0F0F0;" width="2.836" height="2.836"/>
			<rect x="338.772" y="284.374" style="fill:#F0F0F0;" width="2.836" height="2.836"/>
			<rect x="338.772" y="289.128" style="fill:#F0F0F0;" width="2.836" height="2.836"/>
			<rect x="338.772" y="293.883" style="fill:#F0F0F0;" width="2.836" height="2.836"/>
			<rect x="338.772" y="298.637" style="fill:#F0F0F0;" width="2.836" height="2.836"/>
			<rect x="338.772" y="303.391" style="fill:#F0F0F0;" width="2.836" height="2.836"/>
			<rect x="343.276" y="255.85" style="fill:#F0F0F0;" width="2.836" height="2.836"/>
			<rect x="343.276" y="260.604" style="fill:#F0F0F0;" width="2.836" height="2.836"/>
			<rect x="343.276" y="265.358" style="fill:#F0F0F0;" width="2.836" height="2.836"/>
			<rect x="343.276" y="270.112" style="fill:#F0F0F0;" width="2.836" height="2.836"/>
			<rect x="343.276" y="274.866" style="fill:#F0F0F0;" width="2.836" height="2.836"/>
			<rect x="343.276" y="279.62" style="fill:#F0F0F0;" width="2.836" height="2.836"/>
			<rect x="343.276" y="284.374" style="fill:#F0F0F0;" width="2.836" height="2.836"/>
			<rect x="343.276" y="289.128" style="fill:#F0F0F0;" width="2.836" height="2.836"/>
			<rect x="343.276" y="293.883" style="fill:#F0F0F0;" width="2.836" height="2.836"/>
			<rect x="343.276" y="298.637" style="fill:#F0F0F0;" width="2.836" height="2.836"/>
			<rect x="343.276" y="303.391" style="fill:#F0F0F0;" width="2.836" height="2.836"/>
			<rect x="343.276" y="308.145" style="fill:#F0F0F0;" width="2.836" height="2.836"/>
			<rect x="343.276" y="322.407" style="fill:#F0F0F0;" width="2.836" height="2.836"/>
			<rect x="343.276" y="327.161" style="fill:#F0F0F0;" width="2.836" height="2.836"/>
			<rect x="347.78" y="255.85" style="fill:#F0F0F0;" width="2.836" height="2.836"/>
			<rect x="347.78" y="260.604" style="fill:#F0F0F0;" width="2.836" height="2.836"/>
			<rect x="347.78" y="265.358" style="fill:#F0F0F0;" width="2.836" height="2.836"/>
			<rect x="347.78" y="279.62" style="fill:#F0F0F0;" width="2.836" height="2.836"/>
			<rect x="347.78" y="284.374" style="fill:#F0F0F0;" width="2.836" height="2.836"/>
			<rect x="347.78" y="289.128" style="fill:#F0F0F0;" width="2.836" height="2.836"/>
			<rect x="347.78" y="293.883" style="fill:#F0F0F0;" width="2.836" height="2.836"/>
			<rect x="347.78" y="298.637" style="fill:#F0F0F0;" width="2.836" height="2.836"/>
			<rect x="347.78" y="303.391" style="fill:#F0F0F0;" width="2.836" height="2.836"/>
			<rect x="347.78" y="308.145" style="fill:#F0F0F0;" width="2.836" height="2.836"/>
			<rect x="347.78" y="322.407" style="fill:#F0F0F0;" width="2.836" height="2.836"/>
			<rect x="347.78" y="327.161" style="fill:#F0F0F0;" width="2.836" height="2.836"/>
			<rect x="347.78" y="331.915" style="fill:#F0F0F0;" width="2.836" height="2.836"/>
			<rect x="394.986" y="227.326" style="fill:#F0F0F0;" width="2.836" height="2.836"/>
			<rect x="394.986" y="232.08" style="fill:#F0F0F0;" width="2.836" height="2.836"/>
			<rect x="394.986" y="236.834" style="fill:#F0F0F0;" width="2.836" height="2.836"/>
			<rect x="394.986" y="241.588" style="fill:#F0F0F0;" width="2.836" height="2.836"/>
			<rect x="394.986" y="246.342" style="fill:#F0F0F0;" width="2.836" height="2.836"/>
			<rect x="394.986" y="251.096" style="fill:#F0F0F0;" width="2.836" height="2.836"/>
			<rect x="394.986" y="255.85" style="fill:#F0F0F0;" width="2.836" height="2.836"/>
			<rect x="394.986" y="260.604" style="fill:#F0F0F0;" width="2.836" height="2.836"/>
			<rect x="394.986" y="265.358" style="fill:#F0F0F0;" width="2.836" height="2.836"/>
			<rect x="394.986" y="270.112" style="fill:#F0F0F0;" width="2.836" height="2.836"/>
			<rect x="394.986" y="274.866" style="fill:#F0F0F0;" width="2.836" height="2.836"/>
			<rect x="394.986" y="279.62" style="fill:#F0F0F0;" width="2.836" height="2.836"/>
			<rect x="394.986" y="284.374" style="fill:#F0F0F0;" width="2.836" height="2.836"/>
			<rect x="394.986" y="289.128" style="fill:#F0F0F0;" width="2.836" height="2.836"/>
			<rect x="394.986" y="293.883" style="fill:#F0F0F0;" width="2.836" height="2.836"/>
			<rect x="394.986" y="298.637" style="fill:#F0F0F0;" width="2.836" height="2.836"/>
			<rect x="394.986" y="303.391" style="fill:#F0F0F0;" width="2.836" height="2.836"/>
			<rect x="394.986" y="308.145" style="fill:#F0F0F0;" width="2.836" height="2.836"/>
			<rect x="394.986" y="312.899" style="fill:#F0F0F0;" width="2.836" height="2.836"/>
			<rect x="394.986" y="317.653" style="fill:#F0F0F0;" width="2.836" height="2.836"/>
			<rect x="394.986" y="322.407" style="fill:#F0F0F0;" width="2.836" height="2.836"/>
			<rect x="394.986" y="327.161" style="fill:#F0F0F0;" width="2.836" height="2.836"/>
			<rect x="394.986" y="331.915" style="fill:#F0F0F0;" width="2.836" height="2.836"/>
			<rect x="399.49" y="227.326" style="fill:#F0F0F0;" width="2.836" height="2.836"/>
			<rect x="399.49" y="232.08" style="fill:#F0F0F0;" width="2.836" height="2.836"/>
			<rect x="399.49" y="236.834" style="fill:#F0F0F0;" width="2.836" height="2.836"/>
			<rect x="399.49" y="241.588" style="fill:#F0F0F0;" width="2.836" height="2.836"/>
			<rect x="399.49" y="246.342" style="fill:#F0F0F0;" width="2.836" height="2.836"/>
			<rect x="399.49" y="251.096" style="fill:#F0F0F0;" width="2.836" height="2.836"/>
			<rect x="399.49" y="255.85" style="fill:#F0F0F0;" width="2.836" height="2.836"/>
			<rect x="399.49" y="260.604" style="fill:#F0F0F0;" width="2.836" height="2.836"/>
			<rect x="399.49" y="265.358" style="fill:#F0F0F0;" width="2.836" height="2.836"/>
			<rect x="399.49" y="270.112" style="fill:#F0F0F0;" width="2.836" height="2.836"/>
			<rect x="399.49" y="274.866" style="fill:#F0F0F0;" width="2.836" height="2.836"/>
			<rect x="399.49" y="279.62" style="fill:#F0F0F0;" width="2.836" height="2.836"/>
			<rect x="399.49" y="284.374" style="fill:#F0F0F0;" width="2.836" height="2.836"/>
			<rect x="399.49" y="289.128" style="fill:#F0F0F0;" width="2.836" height="2.836"/>
			<rect x="399.49" y="293.883" style="fill:#F0F0F0;" width="2.836" height="2.836"/>
			<rect x="399.49" y="298.637" style="fill:#F0F0F0;" width="2.836" height="2.836"/>
			<rect x="399.49" y="303.391" style="fill:#F0F0F0;" width="2.836" height="2.836"/>
			<rect x="399.49" y="308.145" style="fill:#F0F0F0;" width="2.836" height="2.836"/>
			<rect x="399.49" y="312.899" style="fill:#F0F0F0;" width="2.836" height="2.836"/>
			<rect x="403.994" y="227.326" style="fill:#F0F0F0;" width="2.836" height="2.836"/>
			<rect x="403.994" y="232.08" style="fill:#F0F0F0;" width="2.836" height="2.836"/>
			<rect x="403.994" y="236.834" style="fill:#F0F0F0;" width="2.836" height="2.836"/>
			<rect x="403.994" y="241.588" style="fill:#F0F0F0;" width="2.836" height="2.836"/>
			<rect x="403.994" y="246.342" style="fill:#F0F0F0;" width="2.836" height="2.836"/>
			<rect x="403.994" y="251.096" style="fill:#F0F0F0;" width="2.836" height="2.836"/>
			<rect x="403.994" y="255.85" style="fill:#F0F0F0;" width="2.836" height="2.836"/>
			<rect x="403.994" y="260.604" style="fill:#F0F0F0;" width="2.836" height="2.836"/>
			<rect x="403.994" y="265.358" style="fill:#F0F0F0;" width="2.836" height="2.836"/>
			<rect x="403.994" y="270.112" style="fill:#F0F0F0;" width="2.836" height="2.836"/>
			<rect x="403.994" y="274.866" style="fill:#F0F0F0;" width="2.836" height="2.836"/>
			<rect x="403.994" y="279.62" style="fill:#F0F0F0;" width="2.836" height="2.836"/>
			<rect x="403.994" y="284.374" style="fill:#F0F0F0;" width="2.836" height="2.836"/>
			<rect x="403.994" y="289.128" style="fill:#F0F0F0;" width="2.836" height="2.836"/>
			<rect x="403.994" y="293.883" style="fill:#F0F0F0;" width="2.836" height="2.836"/>
			<rect x="403.994" y="298.637" style="fill:#F0F0F0;" width="2.836" height="2.836"/>
			<rect x="403.994" y="303.391" style="fill:#F0F0F0;" width="2.836" height="2.836"/>
			<rect x="403.994" y="308.145" style="fill:#F0F0F0;" width="2.836" height="2.836"/>
			<rect x="403.994" y="312.899" style="fill:#F0F0F0;" width="2.836" height="2.836"/>
			<rect x="408.498" y="227.326" style="fill:#F0F0F0;" width="2.836" height="2.836"/>
			<rect x="408.498" y="232.08" style="fill:#F0F0F0;" width="2.836" height="2.836"/>
			<rect x="408.498" y="236.834" style="fill:#F0F0F0;" width="2.836" height="2.836"/>
			<rect x="408.498" y="241.588" style="fill:#F0F0F0;" width="2.836" height="2.836"/>
			<rect x="408.498" y="246.342" style="fill:#F0F0F0;" width="2.836" height="2.836"/>
			<rect x="408.498" y="251.096" style="fill:#F0F0F0;" width="2.836" height="2.836"/>
			<rect x="408.498" y="255.85" style="fill:#F0F0F0;" width="2.836" height="2.836"/>
			<rect x="408.498" y="260.604" style="fill:#F0F0F0;" width="2.836" height="2.836"/>
			<rect x="408.498" y="265.358" style="fill:#F0F0F0;" width="2.836" height="2.836"/>
			<rect x="408.498" y="270.112" style="fill:#F0F0F0;" width="2.836" height="2.836"/>
			<rect x="408.498" y="274.866" style="fill:#F0F0F0;" width="2.836" height="2.836"/>
			<rect x="408.498" y="279.62" style="fill:#F0F0F0;" width="2.836" height="2.836"/>
			<rect x="408.498" y="284.374" style="fill:#F0F0F0;" width="2.836" height="2.836"/>
			<rect x="408.498" y="289.128" style="fill:#F0F0F0;" width="2.836" height="2.836"/>
			<rect x="408.498" y="293.883" style="fill:#F0F0F0;" width="2.836" height="2.836"/>
			<rect x="413.002" y="227.326" style="fill:#F0F0F0;" width="2.836" height="2.836"/>
			<rect x="413.002" y="232.08" style="fill:#F0F0F0;" width="2.836" height="2.836"/>
			<rect x="413.002" y="236.834" style="fill:#F0F0F0;" width="2.836" height="2.836"/>
			<rect x="413.002" y="241.588" style="fill:#F0F0F0;" width="2.836" height="2.836"/>
			<rect x="413.002" y="246.342" style="fill:#F0F0F0;" width="2.836" height="2.836"/>
			<rect x="413.002" y="251.096" style="fill:#F0F0F0;" width="2.836" height="2.836"/>
			<rect x="413.002" y="255.85" style="fill:#F0F0F0;" width="2.836" height="2.836"/>
			<rect x="413.002" y="260.604" style="fill:#F0F0F0;" width="2.836" height="2.836"/>
			<rect x="413.002" y="265.358" style="fill:#F0F0F0;" width="2.836" height="2.836"/>
			<rect x="413.002" y="270.112" style="fill:#F0F0F0;" width="2.836" height="2.836"/>
			<rect x="413.002" y="274.866" style="fill:#F0F0F0;" width="2.836" height="2.836"/>
			<rect x="413.002" y="279.62" style="fill:#F0F0F0;" width="2.836" height="2.836"/>
			<rect x="413.002" y="284.374" style="fill:#F0F0F0;" width="2.836" height="2.836"/>
			<rect x="417.506" y="227.326" style="fill:#F0F0F0;" width="2.836" height="2.836"/>
			<rect x="417.506" y="232.08" style="fill:#F0F0F0;" width="2.836" height="2.836"/>
			<rect x="417.506" y="236.834" style="fill:#F0F0F0;" width="2.836" height="2.836"/>
			<rect x="417.506" y="241.588" style="fill:#F0F0F0;" width="2.836" height="2.836"/>
			<rect x="417.506" y="246.342" style="fill:#F0F0F0;" width="2.836" height="2.836"/>
			<rect x="417.506" y="251.096" style="fill:#F0F0F0;" width="2.836" height="2.836"/>
			<rect x="417.506" y="255.85" style="fill:#F0F0F0;" width="2.836" height="2.836"/>
			<rect x="417.506" y="260.604" style="fill:#F0F0F0;" width="2.836" height="2.836"/>
			<rect x="417.506" y="265.358" style="fill:#F0F0F0;" width="2.836" height="2.836"/>
			<rect x="417.506" y="270.112" style="fill:#F0F0F0;" width="2.836" height="2.836"/>
			<rect x="417.506" y="274.866" style="fill:#F0F0F0;" width="2.836" height="2.836"/>
			<rect x="417.506" y="279.62" style="fill:#F0F0F0;" width="2.836" height="2.836"/>
			<rect x="86.557" y="262.022" style="fill:#F0F0F0;" width="2.836" height="2.836"/>
			<rect x="86.557" y="266.776" style="fill:#F0F0F0;" width="2.836" height="2.836"/>
			<rect x="86.557" y="271.53" style="fill:#F0F0F0;" width="2.836" height="2.836"/>
			<rect x="86.557" y="276.284" style="fill:#F0F0F0;" width="2.836" height="2.836"/>
			<rect x="86.557" y="281.038" style="fill:#F0F0F0;" width="2.836" height="2.836"/>
			<rect x="86.557" y="285.792" style="fill:#F0F0F0;" width="2.836" height="2.836"/>
			<rect x="86.557" y="290.546" style="fill:#F0F0F0;" width="2.836" height="2.836"/>
			<rect x="86.557" y="295.3" style="fill:#F0F0F0;" width="2.836" height="2.836"/>
			<rect x="86.557" y="300.054" style="fill:#F0F0F0;" width="2.836" height="2.836"/>
			<rect x="86.557" y="304.808" style="fill:#F0F0F0;" width="2.836" height="2.836"/>
			<rect x="86.557" y="309.562" style="fill:#F0F0F0;" width="2.836" height="2.836"/>
			<rect x="86.557" y="314.316" style="fill:#F0F0F0;" width="2.836" height="2.836"/>
			<rect x="86.557" y="319.07" style="fill:#F0F0F0;" width="2.836" height="2.836"/>
			<rect x="86.557" y="323.824" style="fill:#F0F0F0;" width="2.836" height="2.836"/>
			<rect x="86.557" y="328.578" style="fill:#F0F0F0;" width="2.836" height="2.836"/>
			<rect x="86.557" y="333.333" style="fill:#F0F0F0;" width="2.836" height="2.836"/>
			<rect x="86.557" y="338.087" style="fill:#F0F0F0;" width="2.836" height="2.836"/>
			<rect x="86.557" y="342.841" style="fill:#F0F0F0;" width="2.836" height="2.836"/>
			<rect x="86.557" y="347.595" style="fill:#F0F0F0;" width="2.836" height="2.836"/>
			<rect x="86.557" y="352.349" style="fill:#F0F0F0;" width="2.836" height="2.836"/>
			<rect x="91.061" y="262.022" style="fill:#F0F0F0;" width="2.836" height="2.836"/>
			<rect x="91.061" y="266.776" style="fill:#F0F0F0;" width="2.836" height="2.836"/>
			<rect x="91.061" y="271.53" style="fill:#F0F0F0;" width="2.836" height="2.836"/>
			<rect x="91.061" y="276.284" style="fill:#F0F0F0;" width="2.836" height="2.836"/>
			<rect x="91.061" y="281.038" style="fill:#F0F0F0;" width="2.836" height="2.836"/>
			<rect x="91.061" y="285.792" style="fill:#F0F0F0;" width="2.836" height="2.836"/>
			<rect x="91.061" y="290.546" style="fill:#F0F0F0;" width="2.836" height="2.836"/>
			<rect x="91.061" y="295.3" style="fill:#F0F0F0;" width="2.836" height="2.836"/>
			<rect x="91.061" y="300.054" style="fill:#F0F0F0;" width="2.836" height="2.836"/>
			<rect x="91.061" y="304.808" style="fill:#F0F0F0;" width="2.836" height="2.836"/>
			<rect x="91.061" y="309.562" style="fill:#F0F0F0;" width="2.836" height="2.836"/>
			<rect x="91.061" y="314.316" style="fill:#F0F0F0;" width="2.836" height="2.836"/>
			<rect x="91.061" y="319.07" style="fill:#F0F0F0;" width="2.836" height="2.836"/>
			<rect x="91.061" y="323.824" style="fill:#F0F0F0;" width="2.836" height="2.836"/>
			<rect x="91.061" y="328.578" style="fill:#F0F0F0;" width="2.836" height="2.836"/>
			<rect x="91.061" y="333.333" style="fill:#F0F0F0;" width="2.836" height="2.836"/>
			<rect x="91.061" y="338.087" style="fill:#F0F0F0;" width="2.836" height="2.836"/>
			<rect x="91.061" y="342.841" style="fill:#F0F0F0;" width="2.836" height="2.836"/>
			<rect x="95.565" y="262.022" style="fill:#F0F0F0;" width="2.836" height="2.836"/>
			<rect x="95.565" y="266.776" style="fill:#F0F0F0;" width="2.836" height="2.836"/>
			<rect x="95.565" y="271.53" style="fill:#F0F0F0;" width="2.836" height="2.836"/>
			<rect x="95.565" y="276.284" style="fill:#F0F0F0;" width="2.836" height="2.836"/>
			<rect x="95.565" y="281.038" style="fill:#F0F0F0;" width="2.836" height="2.836"/>
			<rect x="95.565" y="285.792" style="fill:#F0F0F0;" width="2.836" height="2.836"/>
			<rect x="95.565" y="290.546" style="fill:#F0F0F0;" width="2.836" height="2.836"/>
			<rect x="95.565" y="295.3" style="fill:#F0F0F0;" width="2.836" height="2.836"/>
			<rect x="95.565" y="300.054" style="fill:#F0F0F0;" width="2.836" height="2.836"/>
			<rect x="95.565" y="304.808" style="fill:#F0F0F0;" width="2.836" height="2.836"/>
			<rect x="95.565" y="309.562" style="fill:#F0F0F0;" width="2.836" height="2.836"/>
			<rect x="95.565" y="314.316" style="fill:#F0F0F0;" width="2.836" height="2.836"/>
			<rect x="95.565" y="319.07" style="fill:#F0F0F0;" width="2.836" height="2.836"/>
			<rect x="95.565" y="323.824" style="fill:#F0F0F0;" width="2.836" height="2.836"/>
			<rect x="95.565" y="328.578" style="fill:#F0F0F0;" width="2.836" height="2.836"/>
			<rect x="95.565" y="333.333" style="fill:#F0F0F0;" width="2.836" height="2.836"/>
			<rect x="95.565" y="338.087" style="fill:#F0F0F0;" width="2.836" height="2.836"/>
			<rect x="95.565" y="342.841" style="fill:#F0F0F0;" width="2.836" height="2.836"/>
			<rect x="69.709" y="296.718" style="fill:#F0F0F0;" width="2.836" height="2.836"/>
			<rect x="69.709" y="301.472" style="fill:#F0F0F0;" width="2.836" height="2.836"/>
			<rect x="69.709" y="306.226" style="fill:#F0F0F0;" width="2.836" height="2.836"/>
			<rect x="69.709" y="310.98" style="fill:#F0F0F0;" width="2.836" height="2.836"/>
			<rect x="69.709" y="315.734" style="fill:#F0F0F0;" width="2.836" height="2.836"/>
			<rect x="69.709" y="320.488" style="fill:#F0F0F0;" width="2.836" height="2.836"/>
			<rect x="69.709" y="325.242" style="fill:#F0F0F0;" width="2.836" height="2.836"/>
			<rect x="69.709" y="329.996" style="fill:#F0F0F0;" width="2.836" height="2.836"/>
			<rect x="69.709" y="334.75" style="fill:#F0F0F0;" width="2.836" height="2.836"/>
			<rect x="69.709" y="339.505" style="fill:#F0F0F0;" width="2.836" height="2.836"/>
			<rect x="69.709" y="344.259" style="fill:#F0F0F0;" width="2.836" height="2.836"/>
			<rect x="69.709" y="349.013" style="fill:#F0F0F0;" width="2.836" height="2.836"/>
			<rect x="69.709" y="353.767" style="fill:#F0F0F0;" width="2.836" height="2.836"/>
			<rect x="74.213" y="296.718" style="fill:#F0F0F0;" width="2.836" height="2.836"/>
			<rect x="74.213" y="301.472" style="fill:#F0F0F0;" width="2.836" height="2.836"/>
			<rect x="74.213" y="306.226" style="fill:#F0F0F0;" width="2.836" height="2.836"/>
			<rect x="74.213" y="310.98" style="fill:#F0F0F0;" width="2.836" height="2.836"/>
			<rect x="74.213" y="315.734" style="fill:#F0F0F0;" width="2.836" height="2.836"/>
			<rect x="74.213" y="320.488" style="fill:#F0F0F0;" width="2.836" height="2.836"/>
			<rect x="74.213" y="325.242" style="fill:#F0F0F0;" width="2.836" height="2.836"/>
			<rect x="74.213" y="329.996" style="fill:#F0F0F0;" width="2.836" height="2.836"/>
			<rect x="74.213" y="334.75" style="fill:#F0F0F0;" width="2.836" height="2.836"/>
			<rect x="74.213" y="339.505" style="fill:#F0F0F0;" width="2.836" height="2.836"/>
			<rect x="74.213" y="344.259" style="fill:#F0F0F0;" width="2.836" height="2.836"/>
			<rect x="74.213" y="349.013" style="fill:#F0F0F0;" width="2.836" height="2.836"/>
			<rect x="74.213" y="353.767" style="fill:#F0F0F0;" width="2.836" height="2.836"/>
			<rect x="78.717" y="296.718" style="fill:#F0F0F0;" width="2.836" height="2.836"/>
			<rect x="78.717" y="301.472" style="fill:#F0F0F0;" width="2.836" height="2.836"/>
			<rect x="78.717" y="306.226" style="fill:#F0F0F0;" width="2.836" height="2.836"/>
			<rect x="78.717" y="310.98" style="fill:#F0F0F0;" width="2.836" height="2.836"/>
			<rect x="78.717" y="315.734" style="fill:#F0F0F0;" width="2.836" height="2.836"/>
			<rect x="78.717" y="320.488" style="fill:#F0F0F0;" width="2.836" height="2.836"/>
			<rect x="78.717" y="325.242" style="fill:#F0F0F0;" width="2.836" height="2.836"/>
			<rect x="78.717" y="329.996" style="fill:#F0F0F0;" width="2.836" height="2.836"/>
			<rect x="78.717" y="334.75" style="fill:#F0F0F0;" width="2.836" height="2.836"/>
			<rect x="78.717" y="339.505" style="fill:#F0F0F0;" width="2.836" height="2.836"/>
			<rect x="78.717" y="344.259" style="fill:#F0F0F0;" width="2.836" height="2.836"/>
			<rect x="78.717" y="349.013" style="fill:#F0F0F0;" width="2.836" height="2.836"/>
			<rect x="78.717" y="353.767" style="fill:#F0F0F0;" width="2.836" height="2.836"/>
			<rect x="78.717" y="358.521" style="fill:#F0F0F0;" width="2.836" height="2.836"/>
			<rect x="103.738" y="298.136" style="fill:#F0F0F0;" width="2.836" height="2.836"/>
			<rect x="103.738" y="302.89" style="fill:#F0F0F0;" width="2.836" height="2.836"/>
			<rect x="103.738" y="307.644" style="fill:#F0F0F0;" width="2.836" height="2.836"/>
			<rect x="103.738" y="312.398" style="fill:#F0F0F0;" width="2.836" height="2.836"/>
			<rect x="103.738" y="317.152" style="fill:#F0F0F0;" width="2.836" height="2.836"/>
			<rect x="103.738" y="321.906" style="fill:#F0F0F0;" width="2.836" height="2.836"/>
			<rect x="103.738" y="326.66" style="fill:#F0F0F0;" width="2.836" height="2.836"/>
			<rect x="103.738" y="331.414" style="fill:#F0F0F0;" width="2.836" height="2.836"/>
			<rect x="103.738" y="336.168" style="fill:#F0F0F0;" width="2.836" height="2.836"/>
			<rect x="103.738" y="340.922" style="fill:#F0F0F0;" width="2.836" height="2.836"/>
			<rect x="103.738" y="355.185" style="fill:#F0F0F0;" width="2.836" height="2.836"/>
			<rect x="108.242" y="298.136" style="fill:#F0F0F0;" width="2.836" height="2.836"/>
			<rect x="108.242" y="302.89" style="fill:#F0F0F0;" width="2.836" height="2.836"/>
			<rect x="108.242" y="307.644" style="fill:#F0F0F0;" width="2.836" height="2.836"/>
			<rect x="108.242" y="312.398" style="fill:#F0F0F0;" width="2.836" height="2.836"/>
			<rect x="108.242" y="317.152" style="fill:#F0F0F0;" width="2.836" height="2.836"/>
			<rect x="108.242" y="321.906" style="fill:#F0F0F0;" width="2.836" height="2.836"/>
			<rect x="108.242" y="326.66" style="fill:#F0F0F0;" width="2.836" height="2.836"/>
			<rect x="108.242" y="331.414" style="fill:#F0F0F0;" width="2.836" height="2.836"/>
			<rect x="108.242" y="336.168" style="fill:#F0F0F0;" width="2.836" height="2.836"/>
			<rect x="108.242" y="350.431" style="fill:#F0F0F0;" width="2.836" height="2.836"/>
			<rect x="108.242" y="355.185" style="fill:#F0F0F0;" width="2.836" height="2.836"/>
			<rect x="112.746" y="298.136" style="fill:#F0F0F0;" width="2.836" height="2.836"/>
			<rect x="112.746" y="302.89" style="fill:#F0F0F0;" width="2.836" height="2.836"/>
			<rect x="112.746" y="307.644" style="fill:#F0F0F0;" width="2.836" height="2.836"/>
			<rect x="112.746" y="312.398" style="fill:#F0F0F0;" width="2.836" height="2.836"/>
			<rect x="112.746" y="317.152" style="fill:#F0F0F0;" width="2.836" height="2.836"/>
			<rect x="112.746" y="321.906" style="fill:#F0F0F0;" width="2.836" height="2.836"/>
			<rect x="112.746" y="326.66" style="fill:#F0F0F0;" width="2.836" height="2.836"/>
			<rect x="112.746" y="331.414" style="fill:#F0F0F0;" width="2.836" height="2.836"/>
			<rect x="112.746" y="345.677" style="fill:#F0F0F0;" width="2.836" height="2.836"/>
			<rect x="112.746" y="350.431" style="fill:#F0F0F0;" width="2.836" height="2.836"/>
			<rect x="112.746" y="355.185" style="fill:#F0F0F0;" width="2.836" height="2.836"/>
			<rect x="154.615" y="225.908" style="fill:#F0F0F0;" width="2.836" height="2.836"/>
			<rect x="154.615" y="230.662" style="fill:#F0F0F0;" width="2.836" height="2.836"/>
			<rect x="154.615" y="235.416" style="fill:#F0F0F0;" width="2.836" height="2.836"/>
			<rect x="154.615" y="240.17" style="fill:#F0F0F0;" width="2.836" height="2.836"/>
			<rect x="154.615" y="244.924" style="fill:#F0F0F0;" width="2.836" height="2.836"/>
			<rect x="154.615" y="249.678" style="fill:#F0F0F0;" width="2.836" height="2.836"/>
			<rect x="154.615" y="254.432" style="fill:#F0F0F0;" width="2.836" height="2.836"/>
			<rect x="154.615" y="259.186" style="fill:#F0F0F0;" width="2.836" height="2.836"/>
			<rect x="154.615" y="263.94" style="fill:#F0F0F0;" width="2.836" height="2.836"/>
			<rect x="154.615" y="268.694" style="fill:#F0F0F0;" width="2.836" height="2.836"/>
			<rect x="154.615" y="273.448" style="fill:#F0F0F0;" width="2.836" height="2.836"/>
			<rect x="154.615" y="278.202" style="fill:#F0F0F0;" width="2.836" height="2.836"/>
			<rect x="154.615" y="282.956" style="fill:#F0F0F0;" width="2.836" height="2.836"/>
			<rect x="154.615" y="287.711" style="fill:#F0F0F0;" width="2.836" height="2.836"/>
			<rect x="154.615" y="292.465" style="fill:#F0F0F0;" width="2.836" height="2.836"/>
			<rect x="154.615" y="297.219" style="fill:#F0F0F0;" width="2.836" height="2.836"/>
			<rect x="154.615" y="301.973" style="fill:#F0F0F0;" width="2.836" height="2.836"/>
			<rect x="154.615" y="311.481" style="fill:#F0F0F0;" width="2.836" height="2.836"/>
			<rect x="154.615" y="316.235" style="fill:#F0F0F0;" width="2.836" height="2.836"/>
			<rect x="154.615" y="320.989" style="fill:#F0F0F0;" width="2.836" height="2.836"/>
			<rect x="154.615" y="325.743" style="fill:#F0F0F0;" width="2.836" height="2.836"/>
			<rect x="154.615" y="330.497" style="fill:#F0F0F0;" width="2.836" height="2.836"/>
			<rect x="159.119" y="225.908" style="fill:#F0F0F0;" width="2.836" height="2.836"/>
			<rect x="159.119" y="230.662" style="fill:#F0F0F0;" width="2.836" height="2.836"/>
			<rect x="159.119" y="235.416" style="fill:#F0F0F0;" width="2.836" height="2.836"/>
			<rect x="159.119" y="240.17" style="fill:#F0F0F0;" width="2.836" height="2.836"/>
			<rect x="159.119" y="244.924" style="fill:#F0F0F0;" width="2.836" height="2.836"/>
			<rect x="159.119" y="249.678" style="fill:#F0F0F0;" width="2.836" height="2.836"/>
			<rect x="159.119" y="254.432" style="fill:#F0F0F0;" width="2.836" height="2.836"/>
			<rect x="159.119" y="259.186" style="fill:#F0F0F0;" width="2.836" height="2.836"/>
			<rect x="159.119" y="263.94" style="fill:#F0F0F0;" width="2.836" height="2.836"/>
			<rect x="159.119" y="268.694" style="fill:#F0F0F0;" width="2.836" height="2.836"/>
			<rect x="159.119" y="273.448" style="fill:#F0F0F0;" width="2.836" height="2.836"/>
			<rect x="159.119" y="278.202" style="fill:#F0F0F0;" width="2.836" height="2.836"/>
			<rect x="159.119" y="282.956" style="fill:#F0F0F0;" width="2.836" height="2.836"/>
			<rect x="159.119" y="287.711" style="fill:#F0F0F0;" width="2.836" height="2.836"/>
			<rect x="159.119" y="292.465" style="fill:#F0F0F0;" width="2.836" height="2.836"/>
			<rect x="159.119" y="297.219" style="fill:#F0F0F0;" width="2.836" height="2.836"/>
			<rect x="159.119" y="325.743" style="fill:#F0F0F0;" width="2.836" height="2.836"/>
			<rect x="159.119" y="330.497" style="fill:#F0F0F0;" width="2.836" height="2.836"/>
			<rect x="163.623" y="225.908" style="fill:#F0F0F0;" width="2.836" height="2.836"/>
			<rect x="163.623" y="230.662" style="fill:#F0F0F0;" width="2.836" height="2.836"/>
			<rect x="163.623" y="235.416" style="fill:#F0F0F0;" width="2.836" height="2.836"/>
			<rect x="163.623" y="240.17" style="fill:#F0F0F0;" width="2.836" height="2.836"/>
			<rect x="163.623" y="244.924" style="fill:#F0F0F0;" width="2.836" height="2.836"/>
			<rect x="163.623" y="249.678" style="fill:#F0F0F0;" width="2.836" height="2.836"/>
			<rect x="163.623" y="254.432" style="fill:#F0F0F0;" width="2.836" height="2.836"/>
			<rect x="163.623" y="259.186" style="fill:#F0F0F0;" width="2.836" height="2.836"/>
			<rect x="163.623" y="263.94" style="fill:#F0F0F0;" width="2.836" height="2.836"/>
			<rect x="163.623" y="268.694" style="fill:#F0F0F0;" width="2.836" height="2.836"/>
			<rect x="163.623" y="273.448" style="fill:#F0F0F0;" width="2.836" height="2.836"/>
			<rect x="163.623" y="278.202" style="fill:#F0F0F0;" width="2.836" height="2.836"/>
			<rect x="163.623" y="282.956" style="fill:#F0F0F0;" width="2.836" height="2.836"/>
			<rect x="163.623" y="287.711" style="fill:#F0F0F0;" width="2.836" height="2.836"/>
			<rect x="163.623" y="292.465" style="fill:#F0F0F0;" width="2.836" height="2.836"/>
			<rect x="163.623" y="297.219" style="fill:#F0F0F0;" width="2.836" height="2.836"/>
			<rect x="163.623" y="306.727" style="fill:#F0F0F0;" width="2.836" height="2.836"/>
			<rect x="163.623" y="311.481" style="fill:#F0F0F0;" width="2.836" height="2.836"/>
			<rect x="163.623" y="316.235" style="fill:#F0F0F0;" width="2.836" height="2.836"/>
			<rect x="163.623" y="320.989" style="fill:#F0F0F0;" width="2.836" height="2.836"/>
			<rect x="163.623" y="330.497" style="fill:#F0F0F0;" width="2.836" height="2.836"/>
			<rect x="138.268" y="285.792" style="fill:#F0F0F0;" width="2.836" height="2.836"/>
			<rect x="138.268" y="290.546" style="fill:#F0F0F0;" width="2.836" height="2.836"/>
			<rect x="138.268" y="295.3" style="fill:#F0F0F0;" width="2.836" height="2.836"/>
			<rect x="138.268" y="300.054" style="fill:#F0F0F0;" width="2.836" height="2.836"/>
			<rect x="138.268" y="304.808" style="fill:#F0F0F0;" width="2.836" height="2.836"/>
			<rect x="138.268" y="309.562" style="fill:#F0F0F0;" width="2.836" height="2.836"/>
			<rect x="138.268" y="314.316" style="fill:#F0F0F0;" width="2.836" height="2.836"/>
			<rect x="138.268" y="323.824" style="fill:#F0F0F0;" width="2.836" height="2.836"/>
			<rect x="138.268" y="328.578" style="fill:#F0F0F0;" width="2.836" height="2.836"/>
			<rect x="138.268" y="333.333" style="fill:#F0F0F0;" width="2.836" height="2.836"/>
			<rect x="138.268" y="338.087" style="fill:#F0F0F0;" width="2.836" height="2.836"/>
			<rect x="138.268" y="342.841" style="fill:#F0F0F0;" width="2.836" height="2.836"/>
			<rect x="138.268" y="347.595" style="fill:#F0F0F0;" width="2.836" height="2.836"/>
			<rect x="138.268" y="352.349" style="fill:#F0F0F0;" width="2.836" height="2.836"/>
			<rect x="138.268" y="357.103" style="fill:#F0F0F0;" width="2.836" height="2.836"/>
			<rect x="142.771" y="285.792" style="fill:#F0F0F0;" width="2.836" height="2.836"/>
			<rect x="142.771" y="290.546" style="fill:#F0F0F0;" width="2.836" height="2.836"/>
			<rect x="142.771" y="295.3" style="fill:#F0F0F0;" width="2.836" height="2.836"/>
			<rect x="142.771" y="300.054" style="fill:#F0F0F0;" width="2.836" height="2.836"/>
			<rect x="142.771" y="304.808" style="fill:#F0F0F0;" width="2.836" height="2.836"/>
			<rect x="142.771" y="309.562" style="fill:#F0F0F0;" width="2.836" height="2.836"/>
			<rect x="142.771" y="323.824" style="fill:#F0F0F0;" width="2.836" height="2.836"/>
			<rect x="142.771" y="328.578" style="fill:#F0F0F0;" width="2.836" height="2.836"/>
			<rect x="142.771" y="333.333" style="fill:#F0F0F0;" width="2.836" height="2.836"/>
			<rect x="142.771" y="338.087" style="fill:#F0F0F0;" width="2.836" height="2.836"/>
			<rect x="142.771" y="342.841" style="fill:#F0F0F0;" width="2.836" height="2.836"/>
			<rect x="142.771" y="347.595" style="fill:#F0F0F0;" width="2.836" height="2.836"/>
			<rect x="142.771" y="352.349" style="fill:#F0F0F0;" width="2.836" height="2.836"/>
			<rect x="142.771" y="357.103" style="fill:#F0F0F0;" width="2.836" height="2.836"/>
			<rect x="147.275" y="285.792" style="fill:#F0F0F0;" width="2.836" height="2.836"/>
			<rect x="147.275" y="290.546" style="fill:#F0F0F0;" width="2.836" height="2.836"/>
			<rect x="147.275" y="295.3" style="fill:#F0F0F0;" width="2.836" height="2.836"/>
			<rect x="147.275" y="300.054" style="fill:#F0F0F0;" width="2.836" height="2.836"/>
			<rect x="147.275" y="304.808" style="fill:#F0F0F0;" width="2.836" height="2.836"/>
			<rect x="147.275" y="309.562" style="fill:#F0F0F0;" width="2.836" height="2.836"/>
			<rect x="147.275" y="319.07" style="fill:#F0F0F0;" width="2.836" height="2.836"/>
			<rect x="147.275" y="323.824" style="fill:#F0F0F0;" width="2.836" height="2.836"/>
			<rect x="147.275" y="328.578" style="fill:#F0F0F0;" width="2.836" height="2.836"/>
			<rect x="147.275" y="333.333" style="fill:#F0F0F0;" width="2.836" height="2.836"/>
			<rect x="147.275" y="338.087" style="fill:#F0F0F0;" width="2.836" height="2.836"/>
			<rect x="147.275" y="342.841" style="fill:#F0F0F0;" width="2.836" height="2.836"/>
			<rect x="147.275" y="347.595" style="fill:#F0F0F0;" width="2.836" height="2.836"/>
			<rect x="147.275" y="352.349" style="fill:#F0F0F0;" width="2.836" height="2.836"/>
			<rect x="147.275" y="357.103" style="fill:#F0F0F0;" width="2.836" height="2.836"/>
			<rect x="242.19" y="259.186" style="fill:#F0F0F0;" width="2.836" height="2.836"/>
			<rect x="242.19" y="263.94" style="fill:#F0F0F0;" width="2.836" height="2.836"/>
			<rect x="242.19" y="268.694" style="fill:#F0F0F0;" width="2.836" height="2.836"/>
			<rect x="242.19" y="273.448" style="fill:#F0F0F0;" width="2.836" height="2.836"/>
			<rect x="242.19" y="278.202" style="fill:#F0F0F0;" width="2.836" height="2.836"/>
			<rect x="242.19" y="282.956" style="fill:#F0F0F0;" width="2.836" height="2.836"/>
			<rect x="242.19" y="287.711" style="fill:#F0F0F0;" width="2.836" height="2.836"/>
			<rect x="242.19" y="292.465" style="fill:#F0F0F0;" width="2.836" height="2.836"/>
			<rect x="242.19" y="297.219" style="fill:#F0F0F0;" width="2.836" height="2.836"/>
			<rect x="242.19" y="301.973" style="fill:#F0F0F0;" width="2.836" height="2.836"/>
			<rect x="242.19" y="306.727" style="fill:#F0F0F0;" width="2.836" height="2.836"/>
			<rect x="242.19" y="311.481" style="fill:#F0F0F0;" width="2.836" height="2.836"/>
			<rect x="242.19" y="316.235" style="fill:#F0F0F0;" width="2.836" height="2.836"/>
			<rect x="242.19" y="325.743" style="fill:#F0F0F0;" width="2.836" height="2.836"/>
			<rect x="242.19" y="330.497" style="fill:#F0F0F0;" width="2.836" height="2.836"/>
			<rect x="242.19" y="335.251" style="fill:#F0F0F0;" width="2.836" height="2.836"/>
			<rect x="242.19" y="340.005" style="fill:#F0F0F0;" width="2.836" height="2.836"/>
			<rect x="242.19" y="349.513" style="fill:#F0F0F0;" width="2.836" height="2.836"/>
			<rect x="242.19" y="354.267" style="fill:#F0F0F0;" width="2.836" height="2.836"/>
			<rect x="242.19" y="359.021" style="fill:#F0F0F0;" width="2.836" height="2.836"/>
			<rect x="246.693" y="259.186" style="fill:#F0F0F0;" width="2.836" height="2.836"/>
			<rect x="246.693" y="263.94" style="fill:#F0F0F0;" width="2.836" height="2.836"/>
			<rect x="246.693" y="268.694" style="fill:#F0F0F0;" width="2.836" height="2.836"/>
			<rect x="246.693" y="273.448" style="fill:#F0F0F0;" width="2.836" height="2.836"/>
			<rect x="246.693" y="278.202" style="fill:#F0F0F0;" width="2.836" height="2.836"/>
			<rect x="246.693" y="282.956" style="fill:#F0F0F0;" width="2.836" height="2.836"/>
			<rect x="246.693" y="287.711" style="fill:#F0F0F0;" width="2.836" height="2.836"/>
			<rect x="246.693" y="292.465" style="fill:#F0F0F0;" width="2.836" height="2.836"/>
			<rect x="246.693" y="297.219" style="fill:#F0F0F0;" width="2.836" height="2.836"/>
			<rect x="246.693" y="301.973" style="fill:#F0F0F0;" width="2.836" height="2.836"/>
			<rect x="246.693" y="306.727" style="fill:#F0F0F0;" width="2.836" height="2.836"/>
			<rect x="246.693" y="311.481" style="fill:#F0F0F0;" width="2.836" height="2.836"/>
			<rect x="246.693" y="316.235" style="fill:#F0F0F0;" width="2.836" height="2.836"/>
			<rect x="246.693" y="330.497" style="fill:#F0F0F0;" width="2.836" height="2.836"/>
			<rect x="246.693" y="335.251" style="fill:#F0F0F0;" width="2.836" height="2.836"/>
			<rect x="246.693" y="344.759" style="fill:#F0F0F0;" width="2.836" height="2.836"/>
			<rect x="246.693" y="349.513" style="fill:#F0F0F0;" width="2.836" height="2.836"/>
			<rect x="246.693" y="354.267" style="fill:#F0F0F0;" width="2.836" height="2.836"/>
			<rect x="246.693" y="359.021" style="fill:#F0F0F0;" width="2.836" height="2.836"/>
			<rect x="251.197" y="259.186" style="fill:#F0F0F0;" width="2.836" height="2.836"/>
			<rect x="251.197" y="263.94" style="fill:#F0F0F0;" width="2.836" height="2.836"/>
			<rect x="251.197" y="268.694" style="fill:#F0F0F0;" width="2.836" height="2.836"/>
			<rect x="251.197" y="273.448" style="fill:#F0F0F0;" width="2.836" height="2.836"/>
			<rect x="251.197" y="278.202" style="fill:#F0F0F0;" width="2.836" height="2.836"/>
			<rect x="251.197" y="282.956" style="fill:#F0F0F0;" width="2.836" height="2.836"/>
			<rect x="251.197" y="287.711" style="fill:#F0F0F0;" width="2.836" height="2.836"/>
			<rect x="251.197" y="292.465" style="fill:#F0F0F0;" width="2.836" height="2.836"/>
			<rect x="251.197" y="297.219" style="fill:#F0F0F0;" width="2.836" height="2.836"/>
			<rect x="251.197" y="301.973" style="fill:#F0F0F0;" width="2.836" height="2.836"/>
			<rect x="251.197" y="306.727" style="fill:#F0F0F0;" width="2.836" height="2.836"/>
			<rect x="251.197" y="311.481" style="fill:#F0F0F0;" width="2.836" height="2.836"/>
			<rect x="251.197" y="316.235" style="fill:#F0F0F0;" width="2.836" height="2.836"/>
			<rect x="251.197" y="320.989" style="fill:#F0F0F0;" width="2.836" height="2.836"/>
			<rect x="251.197" y="330.497" style="fill:#F0F0F0;" width="2.836" height="2.836"/>
			<rect x="251.197" y="340.005" style="fill:#F0F0F0;" width="2.836" height="2.836"/>
			<rect x="251.197" y="344.759" style="fill:#F0F0F0;" width="2.836" height="2.836"/>
			<rect x="251.197" y="349.513" style="fill:#F0F0F0;" width="2.836" height="2.836"/>
			<rect x="251.197" y="354.267" style="fill:#F0F0F0;" width="2.836" height="2.836"/>
			<rect x="251.197" y="359.021" style="fill:#F0F0F0;" width="2.836" height="2.836"/>
			<rect x="223.841" y="286.293" style="fill:#F0F0F0;" width="2.836" height="2.836"/>
			<rect x="223.841" y="291.047" style="fill:#F0F0F0;" width="2.836" height="2.836"/>
			<rect x="223.841" y="295.801" style="fill:#F0F0F0;" width="2.836" height="2.836"/>
			<rect x="223.841" y="300.555" style="fill:#F0F0F0;" width="2.836" height="2.836"/>
			<rect x="223.841" y="305.309" style="fill:#F0F0F0;" width="2.836" height="2.836"/>
			<rect x="223.841" y="310.063" style="fill:#F0F0F0;" width="2.836" height="2.836"/>
			<rect x="223.841" y="324.325" style="fill:#F0F0F0;" width="2.836" height="2.836"/>
			<rect x="223.841" y="329.079" style="fill:#F0F0F0;" width="2.836" height="2.836"/>
			<rect x="223.841" y="333.833" style="fill:#F0F0F0;" width="2.836" height="2.836"/>
			<rect x="223.841" y="338.587" style="fill:#F0F0F0;" width="2.836" height="2.836"/>
			<rect x="223.841" y="343.341" style="fill:#F0F0F0;" width="2.836" height="2.836"/>
			<rect x="223.841" y="348.095" style="fill:#F0F0F0;" width="2.836" height="2.836"/>
			<rect x="223.841" y="352.849" style="fill:#F0F0F0;" width="2.836" height="2.836"/>
			<rect x="228.344" y="286.293" style="fill:#F0F0F0;" width="2.836" height="2.836"/>
			<rect x="228.344" y="291.047" style="fill:#F0F0F0;" width="2.836" height="2.836"/>
			<rect x="228.344" y="295.801" style="fill:#F0F0F0;" width="2.836" height="2.836"/>
			<rect x="228.344" y="300.555" style="fill:#F0F0F0;" width="2.836" height="2.836"/>
			<rect x="228.344" y="305.309" style="fill:#F0F0F0;" width="2.836" height="2.836"/>
			<rect x="228.344" y="310.063" style="fill:#F0F0F0;" width="2.836" height="2.836"/>
			<rect x="228.344" y="324.325" style="fill:#F0F0F0;" width="2.836" height="2.836"/>
			<rect x="228.344" y="329.079" style="fill:#F0F0F0;" width="2.836" height="2.836"/>
			<rect x="228.344" y="333.833" style="fill:#F0F0F0;" width="2.836" height="2.836"/>
			<rect x="228.344" y="338.587" style="fill:#F0F0F0;" width="2.836" height="2.836"/>
			<rect x="228.344" y="343.341" style="fill:#F0F0F0;" width="2.836" height="2.836"/>
			<rect x="228.344" y="348.095" style="fill:#F0F0F0;" width="2.836" height="2.836"/>
			<rect x="228.344" y="357.603" style="fill:#F0F0F0;" width="2.836" height="2.836"/>
			<rect x="377.972" y="265.358" style="fill:#F0F0F0;" width="2.836" height="2.836"/>
			<rect x="377.972" y="270.112" style="fill:#F0F0F0;" width="2.836" height="2.836"/>
			<rect x="377.972" y="274.866" style="fill:#F0F0F0;" width="2.836" height="2.836"/>
			<rect x="377.972" y="279.62" style="fill:#F0F0F0;" width="2.836" height="2.836"/>
			<rect x="377.972" y="284.374" style="fill:#F0F0F0;" width="2.836" height="2.836"/>
			<rect x="377.972" y="289.128" style="fill:#F0F0F0;" width="2.836" height="2.836"/>
			<rect x="377.972" y="293.883" style="fill:#F0F0F0;" width="2.836" height="2.836"/>
			<rect x="377.972" y="298.637" style="fill:#F0F0F0;" width="2.836" height="2.836"/>
			<rect x="377.972" y="303.391" style="fill:#F0F0F0;" width="2.836" height="2.836"/>
			<rect x="377.972" y="308.145" style="fill:#F0F0F0;" width="2.836" height="2.836"/>
			<rect x="377.972" y="312.899" style="fill:#F0F0F0;" width="2.836" height="2.836"/>
			<rect x="377.972" y="322.407" style="fill:#F0F0F0;" width="2.836" height="2.836"/>
			<rect x="377.972" y="327.161" style="fill:#F0F0F0;" width="2.836" height="2.836"/>
			<rect x="377.972" y="331.915" style="fill:#F0F0F0;" width="2.836" height="2.836"/>
			<rect x="377.972" y="336.669" style="fill:#F0F0F0;" width="2.836" height="2.836"/>
			<rect x="377.972" y="341.423" style="fill:#F0F0F0;" width="2.836" height="2.836"/>
			<rect x="377.972" y="346.177" style="fill:#F0F0F0;" width="2.836" height="2.836"/>
			<rect x="377.972" y="350.931" style="fill:#F0F0F0;" width="2.836" height="2.836"/>
			<rect x="377.972" y="355.685" style="fill:#F0F0F0;" width="2.836" height="2.836"/>
			<rect x="382.476" y="265.358" style="fill:#F0F0F0;" width="2.836" height="2.836"/>
			<rect x="382.476" y="270.112" style="fill:#F0F0F0;" width="2.836" height="2.836"/>
			<rect x="382.476" y="274.866" style="fill:#F0F0F0;" width="2.836" height="2.836"/>
			<rect x="382.476" y="279.62" style="fill:#F0F0F0;" width="2.836" height="2.836"/>
			<rect x="382.476" y="284.374" style="fill:#F0F0F0;" width="2.836" height="2.836"/>
			<rect x="382.476" y="289.128" style="fill:#F0F0F0;" width="2.836" height="2.836"/>
			<rect x="382.476" y="293.883" style="fill:#F0F0F0;" width="2.836" height="2.836"/>
			<rect x="382.476" y="298.637" style="fill:#F0F0F0;" width="2.836" height="2.836"/>
			<rect x="382.476" y="303.391" style="fill:#F0F0F0;" width="2.836" height="2.836"/>
			<rect x="382.476" y="308.145" style="fill:#F0F0F0;" width="2.836" height="2.836"/>
			<rect x="382.476" y="312.899" style="fill:#F0F0F0;" width="2.836" height="2.836"/>
			<rect x="382.476" y="317.653" style="fill:#F0F0F0;" width="2.836" height="2.836"/>
			<rect x="382.476" y="322.407" style="fill:#F0F0F0;" width="2.836" height="2.836"/>
			<rect x="382.476" y="327.161" style="fill:#F0F0F0;" width="2.836" height="2.836"/>
			<rect x="382.476" y="331.915" style="fill:#F0F0F0;" width="2.836" height="2.836"/>
			<rect x="382.476" y="336.669" style="fill:#F0F0F0;" width="2.836" height="2.836"/>
			<rect x="382.476" y="341.423" style="fill:#F0F0F0;" width="2.836" height="2.836"/>
			<rect x="382.476" y="346.177" style="fill:#F0F0F0;" width="2.836" height="2.836"/>
			<rect x="382.476" y="350.931" style="fill:#F0F0F0;" width="2.836" height="2.836"/>
			<rect x="382.476" y="355.685" style="fill:#F0F0F0;" width="2.836" height="2.836"/>
			<rect x="355.786" y="283.874" style="fill:#F0F0F0;" width="2.836" height="2.836"/>
			<rect x="355.786" y="288.628" style="fill:#F0F0F0;" width="2.836" height="2.836"/>
			<rect x="355.786" y="293.382" style="fill:#F0F0F0;" width="2.836" height="2.836"/>
			<rect x="355.786" y="298.136" style="fill:#F0F0F0;" width="2.836" height="2.836"/>
			<rect x="355.786" y="302.89" style="fill:#F0F0F0;" width="2.836" height="2.836"/>
			<rect x="355.786" y="307.644" style="fill:#F0F0F0;" width="2.836" height="2.836"/>
			<rect x="355.786" y="312.398" style="fill:#F0F0F0;" width="2.836" height="2.836"/>
			<rect x="355.786" y="317.152" style="fill:#F0F0F0;" width="2.836" height="2.836"/>
			<rect x="355.786" y="321.906" style="fill:#F0F0F0;" width="2.836" height="2.836"/>
			<rect x="355.786" y="326.66" style="fill:#F0F0F0;" width="2.836" height="2.836"/>
			<rect x="360.29" y="283.874" style="fill:#F0F0F0;" width="2.836" height="2.836"/>
			<rect x="360.29" y="288.628" style="fill:#F0F0F0;" width="2.836" height="2.836"/>
			<rect x="360.29" y="293.382" style="fill:#F0F0F0;" width="2.836" height="2.836"/>
			<rect x="360.29" y="298.136" style="fill:#F0F0F0;" width="2.836" height="2.836"/>
			<rect x="360.29" y="302.89" style="fill:#F0F0F0;" width="2.836" height="2.836"/>
			<rect x="360.29" y="307.644" style="fill:#F0F0F0;" width="2.836" height="2.836"/>
			<rect x="360.29" y="312.398" style="fill:#F0F0F0;" width="2.836" height="2.836"/>
			<rect x="360.29" y="317.152" style="fill:#F0F0F0;" width="2.836" height="2.836"/>
			<rect x="360.29" y="321.906" style="fill:#F0F0F0;" width="2.836" height="2.836"/>
		</g>
		<path style="fill:#F0F0F0;" d="M136.357,166.237c0-4.869-3.947-8.817-8.817-8.817c-0.881,0-1.729,0.133-2.532,0.373
			c0.129-0.884,0.198-1.788,0.198-2.707c0-10.312-8.359-18.671-18.671-18.671c-1.175,0-2.324,0.114-3.439,0.321
			c-2.87-4.696-8.029-7.842-13.935-7.842c-8.94,0-16.192,7.183-16.325,16.092c-0.091-0.002-0.18-0.014-0.272-0.014
			c-8.307,0-15.041,6.734-15.041,15.041s6.734,15.04,15.041,15.04h55.235l-0.011-0.012
			C132.542,174.909,136.357,171.023,136.357,166.237z"/>
		<path style="fill:#F0F0F0;" d="M368.997,146.843c0-3.109,2.52-5.629,5.629-5.629c0.562,0,1.104,0.085,1.616,0.238
			c-0.082-0.564-0.126-1.141-0.126-1.728c0-6.584,5.337-11.921,11.921-11.921c0.751,0,1.484,0.073,2.196,0.205
			c1.832-2.999,5.126-5.007,8.897-5.007c5.708,0,10.338,4.586,10.423,10.274c0.058-0.001,0.115-0.009,0.173-0.009
			c5.304,0,9.603,4.299,9.603,9.603c0,5.304-4.299,9.603-9.603,9.603h-35.266l0.007-0.008
			C371.433,152.38,368.997,149.898,368.997,146.843z"/>
		<path style="fill:#F0F0F0;" d="M256.882,86.101c0-1.904,1.544-3.448,3.448-3.448c0.344,0,0.676,0.052,0.99,0.146
			c-0.05-0.346-0.077-0.699-0.077-1.059c0-4.033,3.27-7.303,7.303-7.303c0.46,0,0.909,0.044,1.345,0.126
			c1.122-1.837,3.14-3.067,5.45-3.067c3.497,0,6.333,2.81,6.385,6.294c0.036-0.001,0.07-0.005,0.106-0.005
			c3.249,0,5.883,2.634,5.883,5.883s-2.634,5.883-5.883,5.883h-21.604l0.004-0.005C258.374,89.493,256.882,87.973,256.882,86.101z"
			/>
	</g>
</g>
<g id="Backgorund_Simple" style="display:none;">
	<g style="display:inline;">
		<path style="fill:#407BFF;" d="M101.791,81.618c6.972-5.351,14.88-9.366,23.42-11.365c21.182-4.959,44.419,2.618,60.72,16.306
			c14.302,12.009,24.858,29.821,31.069,47.674c5.484,15.762,6.719,35.461,20.107,47.073c9.429,8.178,23.487,9.792,35.298,5.758
			c11.811-4.034,21.449-13.08,28.109-23.636c11.632-18.436,15.509-42.135,31.783-56.64c12.917-11.513,32.632-14.729,48.538-7.917
			c45.795,19.612,27.343,88.336,12.02,122.364c-11.502,25.542-29.636,48.345-53.046,63.73
			c-37.16,24.423-84.728,28.489-128.565,21.024c-33.273-5.666-66.219-17.994-91.275-40.607
			c-22.139-19.979-37.103-47.209-44.748-76.033c-6.165-23.245-7.664-48.37,0.244-71.081
			C80.402,104.095,89.896,90.748,101.791,81.618z"/>
		<path style="opacity:0.9;fill:#FFFFFF;enable-background:new    ;" d="M101.791,81.618c6.972-5.351,14.88-9.366,23.42-11.365
			c21.182-4.959,44.419,2.618,60.72,16.306c14.302,12.009,24.858,29.821,31.069,47.674c5.484,15.762,6.719,35.461,20.107,47.073
			c9.429,8.178,23.487,9.792,35.298,5.758c11.811-4.034,21.449-13.08,28.109-23.636c11.632-18.436,15.509-42.135,31.783-56.64
			c12.917-11.513,32.632-14.729,48.538-7.917c45.795,19.612,27.343,88.336,12.02,122.364c-11.502,25.542-29.636,48.345-53.046,63.73
			c-37.16,24.423-84.728,28.489-128.565,21.024c-33.273-5.666-66.219-17.994-91.275-40.607
			c-22.139-19.979-37.103-47.209-44.748-76.033c-6.165-23.245-7.664-48.37,0.244-71.081
			C80.402,104.095,89.896,90.748,101.791,81.618z"/>
	</g>
</g>
<g id="Shadow_1_">
	<ellipse id="_x3C_Path_x3E__359_" style="fill:#F5F5F5;" cx="250" cy="416.238" rx="193.889" ry="11.323"/>
</g>
<g id="Sidewalk">
	<g>
		<g>
			<path style="fill:#407BFF;" d="M422.968,366.758c0,0,4.696-15.733-4.804-18.867s-15.136-10.491-14.818-18.812
				c0.318-8.321-9.682-16.42-17.182-8.62c-7.5,7.799-6.5-5.997-16.5-9.349c-10-3.352-18.477,4.781-15.738,12.214
				c2.738,7.433-7.13,12.076-18.946,5.755c-11.816-6.321-24.816,5.179-22.316,14.179s0.453,10-7.024,7
				c-7.476-3-20.85,5.5-16.163,16.5S422.968,366.758,422.968,366.758z"/>
			<path style="opacity:0.3;fill:#FFFFFF;enable-background:new    ;" d="M422.968,366.758c0,0,4.696-15.733-4.804-18.867
				s-15.136-10.491-14.818-18.812c0.318-8.321-9.682-16.42-17.182-8.62c-7.5,7.799-6.5-5.997-16.5-9.349
				c-10-3.352-18.477,4.781-15.738,12.214c2.738,7.433-7.13,12.076-18.946,5.755c-11.816-6.321-24.816,5.179-22.316,14.179
				s0.453,10-7.024,7c-7.476-3-20.85,5.5-16.163,16.5S422.968,366.758,422.968,366.758z"/>
		</g>
		<g>
			<path style="fill:#407BFF;" d="M171.664,368.258c5-5,0.5-13.5-4.5-14.5s-10.026-9.798-10.263-15.399
				c-0.237-5.601-9.237-22.829-23.237-12.19c-14,10.639-9.745,1.567-19.872-1.422s-16.516,5.611-12.072,12.061
				c0,0-10.174-2.55-14.365,6.95c-4.191,9.5,0,15.4,0,15.4s-19.134-0.566-17.412,11.267
				C71.664,382.258,171.664,368.258,171.664,368.258z"/>
			<path style="opacity:0.3;fill:#FFFFFF;enable-background:new    ;" d="M171.664,368.258c5-5,0.5-13.5-4.5-14.5
				s-10.026-9.798-10.263-15.399c-0.237-5.601-9.237-22.829-23.237-12.19c-14,10.639-9.745,1.567-19.872-1.422
				s-16.516,5.611-12.072,12.061c0,0-10.174-2.55-14.365,6.95c-4.191,9.5,0,15.4,0,15.4s-19.134-0.566-17.412,11.267
				C71.664,382.258,171.664,368.258,171.664,368.258z"/>
		</g>
		<g>
			<path style="fill:#263238;" d="M440.164,368.558v13.7h-386v-13.7c0-2.38,1.66-4.3,4.04-4.3h377.92
				C438.504,364.258,440.164,366.178,440.164,368.558z"/>
			<g>
				<rect x="76.164" y="364.258" style="fill:#407BFF;" width="24" height="18"/>
				<rect x="122.164" y="364.258" style="fill:#407BFF;" width="23" height="18"/>
				<rect x="167.164" y="364.258" style="fill:#407BFF;" width="24" height="18"/>
				<rect x="213.164" y="364.258" style="fill:#407BFF;" width="23" height="18"/>
				<rect x="258.164" y="364.258" style="fill:#407BFF;" width="23" height="18"/>
				<rect x="303.164" y="364.258" style="fill:#407BFF;" width="24" height="18"/>
				<rect x="349.164" y="364.258" style="fill:#407BFF;" width="23" height="18"/>
				<rect x="394.164" y="364.258" style="fill:#407BFF;" width="24" height="18"/>
				<g style="opacity:0.6;enable-background:new    ;">
					<rect x="76.164" y="364.258" style="fill:#FFFFFF;" width="24" height="18"/>
					<rect x="122.164" y="364.258" style="fill:#FFFFFF;" width="23" height="18"/>
					<rect x="167.164" y="364.258" style="fill:#FFFFFF;" width="24" height="18"/>
					<rect x="213.164" y="364.258" style="fill:#FFFFFF;" width="23" height="18"/>
					<rect x="258.164" y="364.258" style="fill:#FFFFFF;" width="23" height="18"/>
					<rect x="303.164" y="364.258" style="fill:#FFFFFF;" width="24" height="18"/>
					<rect x="349.164" y="364.258" style="fill:#FFFFFF;" width="23" height="18"/>
					<rect x="394.164" y="364.258" style="fill:#FFFFFF;" width="24" height="18"/>
				</g>
			</g>
			<path style="opacity:0.1;fill:#FFFFFF;enable-background:new    ;" d="M440.164,368.558v13.7h-386v-13.7
				c0-2.38,1.66-4.3,4.04-4.3h377.92C438.504,364.258,440.164,366.178,440.164,368.558z"/>
		</g>
	</g>
</g>
<g id="Map">
	<g>
		<g>
			<polygon style="fill:#407BFF;" points="198.387,359.611 198.387,151.561 268.017,143.171 298.616,149.001 308.616,150.901 
				330.086,154.991 344.397,152.171 354.397,150.201 401.497,140.931 401.497,348.981 354.397,358.261 344.397,360.231 
				330.086,363.051 268.017,351.231 263.977,351.721 251.926,353.171 			"/>
			<polygon style="opacity:0.2;enable-background:new    ;" points="198.387,359.611 198.387,151.561 268.017,143.171 
				298.616,149.001 308.616,150.901 330.086,154.991 344.397,152.171 354.397,150.201 401.497,140.931 401.497,348.981 
				354.397,358.261 344.397,360.231 330.086,363.051 268.017,351.231 263.977,351.721 251.926,353.171 			"/>
			<path style="fill:#407BFF;" d="M344.397,257.461v-15.47c0-1.55-1.41-2.72-2.93-2.42l-143.08,27.52v-10.19l56.77-10.91
				c1.41-0.28,2.29-1.69,1.91-3.08l-10.91-39.69c-0.34-1.24-1.58-2.01-2.84-1.76l-44.93,8.66v-10.19l52.12-10.05
				c1.26-0.24,2.5,0.53,2.84,1.77l13.67,49.74c0.34,1.24,1.58,2.01,2.84,1.77l26.76-5.15c1.16-0.22,2-1.24,2-2.42v-58.43
				c0-1.19-0.85-2.21-2.02-2.42l-32.22-5.94c-0.28-0.05-0.56-0.05-0.83-0.01l-65.16,10.25v-10.12l65.29-10.27
				c0.28-0.05,0.56-0.04,0.83,0.01l31.2,5.74c1.52,0.28,2.91-0.88,2.91-2.42v-12.98l10,1.9v81.81c0,1.55,1.41,2.72,2.94,2.43
				l30.84-5.94c1.17-0.22,2-1.24,2-2.42v-74.61l10-1.97v73.71c0,1.55,1.42,2.71,2.94,2.42l20.79-4c1.16-0.22,2-1.24,2-2.42v-51.03
				c0-1.17,0.82-2.18,1.97-2.41l19.4-4.01v10.21l-9.4,1.94c-1.15,0.24-1.97,1.25-1.97,2.42v40.01c0,1.55,1.41,2.71,2.93,2.42
				l8.44-1.62v10.18l-45.1,8.67c-1.16,0.23-2,1.24-2,2.43v69.76c0,1.52,1.37,2.68,2.88,2.43l44.22-7.35v10.14l-45.03,7.48
				c-1.19,0.2-2.07,1.23-2.07,2.44v34.24l-10,1.97v-87.62c0-1.53-1.37-2.69-2.88-2.43l-37.09,6.39c-0.76,0.13-1.41,0.61-1.77,1.29
				l-38.68,73.86l-12.05,1.45l14.78-28.23c0.94-1.79-0.56-3.88-2.56-3.58l-65.76,10.01v-10.11l75.1-11.43
				c0.78-0.12,1.45-0.6,1.82-1.3l20.79-39.69c0.35-0.68,1.01-1.15,1.76-1.28l44.5-7.67
				C343.537,259.681,344.397,258.661,344.397,257.461z"/>
			<path style="fill:#263238;" d="M330.07,357.958l-61.118-11.639l-0.765-0.146l-0.773,0.094l-4.035,0.489l-12.05,1.45
				l-47.943,5.767V155.995l64.457-7.767l29.84,5.685l9.998,1.9l21.47,4.09l0.952,0.181l0.951-0.187l14.31-2.82l9.999-1.97
				l41.135-8.096V344.87l-43.067,8.485l-10,1.97L330.07,357.958 M330.086,363.051l14.31-2.82l10-1.97l47.1-9.28v-208.05l-47.1,9.27
				l-10,1.97l-14.31,2.82l-21.47-4.09l-10-1.9l-30.6-5.83l-69.63,8.39v208.05l53.54-6.44l12.05-1.45l4.04-0.49L330.086,363.051
				L330.086,363.051z"/>
			<path style="opacity:0.1;fill:#FFFFFF;enable-background:new    ;" d="M330.07,357.958l-61.118-11.639l-0.765-0.146l-0.773,0.094
				l-4.035,0.489l-12.05,1.45l-47.943,5.767V155.995l64.457-7.767l29.84,5.685l9.998,1.9l21.47,4.09l0.952,0.181l0.951-0.187
				l14.31-2.82l9.999-1.97l41.135-8.096V344.87l-43.067,8.485l-10,1.97L330.07,357.958 M330.086,363.051l14.31-2.82l10-1.97
				l47.1-9.28v-208.05l-47.1,9.27l-10,1.97l-14.31,2.82l-21.47-4.09l-10-1.9l-30.6-5.83l-69.63,8.39v208.05l53.54-6.44l12.05-1.45
				l4.04-0.49L330.086,363.051L330.086,363.051z"/>
			<polygon style="opacity:0.1;enable-background:new    ;" points="330.086,363.051 330.086,154.991 268.017,143.171 
				268.017,351.231 			"/>
		</g>
		<g style="opacity:0.5;enable-background:new    ;">
			<g>
				<path style="fill:#FFFFFF;" d="M376.424,227.148c0.475,0,0.897,0.34,0.983,0.823c0.098,0.544-0.264,1.064-0.808,1.161
					l-26.199,4.699v29.901c0,0.486-0.35,0.902-0.83,0.985l-48.974,8.455l-24.178,45.86c-0.257,0.488-0.862,0.675-1.351,0.418
					c-0.489-0.258-0.676-0.863-0.418-1.351l24.407-46.296c0.145-0.274,0.409-0.466,0.715-0.519l48.629-8.396v-29.896
					c0-0.484,0.347-0.898,0.823-0.984l27.022-4.847C376.306,227.153,376.365,227.148,376.424,227.148z"/>
			</g>
			<g>
				<path style="fill:#FFFFFF;" d="M273.652,318.568c0-1.04,0.843-1.883,1.883-1.883c1.04,0,1.883,0.843,1.883,1.883
					c0,1.04-0.843,1.883-1.883,1.883C274.495,320.45,273.652,319.607,273.652,318.568z"/>
			</g>
			<g>
				<path style="fill:#FFFFFF;" d="M374.54,228.149c0-1.04,0.843-1.883,1.883-1.883c1.04,0,1.883,0.843,1.883,1.883
					c0,1.04-0.843,1.883-1.883,1.883C375.383,230.031,374.54,229.188,374.54,228.149z"/>
			</g>
		</g>
		<g>
			<path style="fill:#FFFFFF;" d="M276.505,289.077L276.505,289.077c-4.402-4.402-11.54-4.402-15.942,0l0,0
				c-4.402,4.402-4.402,11.54,0,15.942l7.971,7.971l7.971-7.971C280.907,300.616,280.907,293.479,276.505,289.077z M265.293,300.289
				c-1.79-1.79-1.79-4.692,0-6.482c1.79-1.79,4.692-1.79,6.482,0c1.79,1.79,1.79,4.692,0,6.482
				C269.985,302.079,267.083,302.078,265.293,300.289z"/>
			<path style="opacity:0.2;enable-background:new    ;" d="M276.505,289.077c-2.219-2.219-5.134-3.317-8.043-3.298v6.693
				c1.197-0.019,2.4,0.422,3.313,1.335c1.79,1.79,1.79,4.692,0,6.482c-0.913,0.913-2.116,1.354-3.313,1.336v11.293l0.072,0.072
				l7.971-7.971C280.907,300.616,280.907,293.479,276.505,289.077z"/>
		</g>
		<g>
			<path style="fill:#FFFFFF;" d="M384.394,196.785L384.394,196.785c-4.402-4.402-11.54-4.402-15.942,0v0
				c-4.402,4.402-4.402,11.54,0,15.942l7.971,7.971l7.971-7.971C388.796,208.324,388.796,201.187,384.394,196.785z M373.182,207.997
				c-1.79-1.79-1.79-4.692,0-6.482c1.79-1.79,4.692-1.79,6.482,0c1.79,1.79,1.79,4.692,0,6.482
				C377.874,209.786,374.972,209.786,373.182,207.997z"/>
			<path style="opacity:0.2;enable-background:new    ;" d="M384.394,196.785c-2.219-2.219-5.134-3.317-8.043-3.298v6.693
				c1.197-0.019,2.4,0.422,3.313,1.335c1.79,1.79,1.79,4.692,0,6.482c-0.913,0.913-2.116,1.354-3.313,1.336v11.293l0.072,0.072
				l7.971-7.971C388.796,208.324,388.796,201.187,384.394,196.785z"/>
		</g>
	</g>
</g>
<g id="Character">
	<g id="_x3C_Group_x3E__11_">
		<polygon style="fill:#EEC1BB;" points="92.035,394.992 97.566,400.577 110.962,388.225 105.424,382.633 		"/>
		<path style="fill:#263238;" d="M98.979,400.711l-6.72-6.786c-0.228-0.228-0.583-0.268-0.855-0.096l-6.064,3.824
			c-0.539,0.347-0.694,1.065-0.347,1.603c0.046,0.072,0.101,0.139,0.162,0.199c2.21,2.16,3.928,3.625,6.658,6.382
			c1.682,1.698,6.577,6.997,8.9,9.342c2.322,2.345,4.941,0.356,4.204-0.814c-3.326-5.235-5.235-9.762-5.364-12.365
			C99.535,401.513,99.329,401.051,98.979,400.711z"/>
		<polygon style="opacity:0.2;enable-background:new    ;" points="105.417,382.64 110.955,388.232 104.044,394.598 98.506,389.006 
					"/>
		<path style="fill:#407BFF;" d="M98.585,401.861c-0.039-0.067-0.033-0.151,0.015-0.212c0.043-0.06,0.121-0.086,0.191-0.063
			c0.325,0.072,3.221,0.779,3.513,1.714c0.073,0.209,0.017,0.441-0.144,0.593c-0.232,0.304-0.605,0.465-0.985,0.427
			c-0.526-0.102-1.001-0.382-1.347-0.791C99.354,403.021,98.937,402.462,98.585,401.861z M99.15,402.062
			c0.425,0.87,1.165,1.546,2.07,1.891c0.253,0.015,0.496-0.095,0.652-0.294c0.1-0.113,0.107-0.204,0.072-0.24
			c-0.024-0.08-0.07-0.151-0.133-0.206C101.005,402.663,100.102,402.272,99.15,402.062z"/>
		<path style="fill:#407BFF;" d="M98.521,401.854c-0.013-0.067,0.008-0.136,0.058-0.184c0.085-0.07,1.825-1.526,2.991-1.4
			c0.287,0.02,0.552,0.163,0.726,0.392c0.206,0.206,0.237,0.529,0.074,0.771c-0.477,0.698-2.811,0.799-3.694,0.534l-0.063-0.064
			C98.578,401.897,98.546,401.88,98.521,401.854z M101.582,400.596c-0.891,0.104-1.729,0.477-2.402,1.07
			c1.003,0.146,2.638-0.065,2.93-0.495c0.029-0.042,0.114-0.155-0.055-0.326l-0.063-0.064
			C101.882,400.672,101.737,400.607,101.582,400.596z"/>
		<path style="fill:#EEC1BB;" d="M182.626,195.209c0,0,12.495,19.965,14.869,22.515c2.374,2.55,18.033-23.654,19.22-27.145
			c1.187-3.491,16.849-3.585,17.919-3.142c1.07,0.442,0.35,7.981-2.653,9.553c-3.002,1.571-13.31,1.155-13.31,1.155
			s-9.077,29.247-19.758,30.736c-10.681,1.488-22.32-24.952-22.32-24.952L182.626,195.209z"/>
		<g>
			<path style="fill:#407BFF;" d="M173.47,185.27c7.838,1.4,18.123,22.565,18.123,22.565l-9.062,11.868l-11.27-10.681L173.47,185.27
				z"/>
			<path style="opacity:0.4;fill:#FFFFFF;enable-background:new    ;" d="M191.59,207.84l-9.06,11.86l-0.3-0.29l-10.97-10.39
				l0.14-1.52l2.07-22.23C181.31,186.67,191.59,207.84,191.59,207.84z"/>
		</g>
		<path style="opacity:0.2;enable-background:new    ;" d="M182.23,219.41l-10.97-10.39l0.14-1.52l3.81-7.71
			C175.21,199.79,182.18,206.57,182.23,219.41z"/>
		<g>
			<path style="fill:#263238;" d="M171.262,254.476c0,0-18.548,69.271-31.251,96.568s-30.613,41.538-30.613,41.538l-8.286-10.219
				c0,0,23.297-33.139,28.345-53.592c5.048-20.453,6.73-62.783,6.73-62.783L171.262,254.476z"/>
			<path style="opacity:0.2;enable-background:new    ;" d="M171.262,254.476c0,0-18.548,69.271-31.251,96.568
				s-30.613,41.538-30.613,41.538l-8.286-10.219c0,0,23.297-33.139,28.345-53.592c5.048-20.453,6.73-62.783,6.73-62.783
				L171.262,254.476z"/>
		</g>
		<polygon style="fill:#EEC1BB;" points="176.732,410.365 184.187,407.876 179.039,390.397 171.573,392.889 		"/>
		<path style="fill:#263238;" d="M184.933,406.668l-9.059,3.023c-0.305,0.103-0.498,0.404-0.465,0.724l0.746,7.131
			c0.073,0.637,0.648,1.094,1.284,1.021c0.085-0.01,0.169-0.029,0.25-0.057c2.915-1.026,4.989-1.918,8.67-3.147
			c2.267-0.757,9.185-2.802,12.316-3.847c3.13-1.045,2.506-4.273,1.13-4.13c-6.166,0.666-11.071,0.374-13.462-0.662
			C185.898,406.525,185.393,406.505,184.933,406.668z"/>
		<polygon style="opacity:0.2;enable-background:new    ;" points="171.577,392.898 179.042,390.407 181.692,399.421 
			174.227,401.913 		"/>
		<path style="fill:#407BFF;" d="M185.79,407.531c-0.077,0.005-0.15-0.038-0.183-0.108c-0.035-0.065-0.024-0.146,0.028-0.199
			c0.209-0.259,2.124-2.543,3.092-2.392c0.22,0.027,0.403,0.18,0.468,0.392c0.17,0.342,0.149,0.748-0.053,1.072
			c-0.325,0.426-0.785,0.729-1.306,0.858C187.17,407.355,186.484,407.481,185.79,407.531z M186.22,407.113
			c0.968,0.003,1.902-0.361,2.612-1.019c0.125-0.22,0.135-0.487,0.025-0.715c-0.057-0.139-0.136-0.186-0.184-0.171
			c-0.082-0.014-0.167-0.004-0.243,0.029C187.58,405.716,186.83,406.353,186.22,407.113z"/>
		<path style="fill:#407BFF;" d="M185.756,407.585c-0.066-0.018-0.119-0.068-0.139-0.133c-0.025-0.107-0.561-2.311,0.068-3.301
			c0.145-0.249,0.391-0.423,0.673-0.478c0.276-0.093,0.58,0.022,0.724,0.275c0.415,0.737-0.527,2.875-1.156,3.549l-0.085,0.029
			C185.82,407.553,185.79,407.574,185.756,407.585z M185.982,404.283c-0.301,0.845-0.337,1.762-0.103,2.628
			c0.575-0.835,1.109-2.394,0.853-2.846c-0.025-0.044-0.088-0.171-0.316-0.095l-0.085,0.029
			C186.183,404.048,186.06,404.149,185.982,404.283z"/>
		<path style="fill:#263238;" d="M129.457,249.926c0,0-4.918,18.821,0.814,39.403c4.311,15.478,41.117,109.165,41.117,109.165
			l12.799-3.685l-27.065-111.46c0,0,10.122-14.325,14.14-28.873L129.457,249.926z"/>
		<g>
			<polygon style="fill:#407BFF;" points="186.279,396.298 170.192,401.668 166.178,396.152 185.177,390.974 			"/>
			<polygon style="opacity:0.3;fill:#FFFFFF;enable-background:new    ;" points="186.279,396.298 170.192,401.668 166.178,396.152 
				185.177,390.974 			"/>
		</g>
		<g>
			<polygon style="fill:#407BFF;" points="108.874,397.329 96.94,385.279 100.11,379.238 113.162,393.984 			"/>
			<polygon style="opacity:0.3;fill:#FFFFFF;enable-background:new    ;" points="108.874,397.329 96.94,385.279 100.11,379.238 
				113.162,393.984 			"/>
		</g>
		<path style="fill:#FFFFFF;" d="M159.247,189.044"/>
		<g>
			<path style="fill:#407BFF;" d="M134.394,181.673c0.768,8.762,0.882,17.568,0.343,26.346c-0.34,6.127-0.935,11.923-1.593,17.169
				c-1.548,12.28-7.813,35.065-7.813,35.065l32.311,8.495l2.926-14.271l3.01,14.271l6.417-3.945
				c9.993-31.732,10.253-63.739,9.042-72.939c-0.407-3.096-2.578-5.672-5.56-6.598c-1.472-0.458-3.181-0.958-4.992-1.395
				c-0.708-0.128-1.405-0.324-2.121-0.463c-5.884-0.987-11.82-1.634-17.778-1.937c-1.125-0.07-2.277-0.105-3.392-0.122
				C139.498,181.198,134.394,181.673,134.394,181.673z"/>
			<path style="opacity:0.4;fill:#FFFFFF;enable-background:new    ;" d="M169.99,264.8l-6.41,3.95l-3.01-14.27l-2.93,14.27
				l-32.31-8.5c0,0,6.27-22.78,7.81-35.06c0.16-1.25,0.31-2.53,0.46-3.84c0.47-4.19,0.88-8.66,1.14-13.33
				c0.16-2.56,0.26-5.13,0.3-7.69c0.11-6.23-0.1-12.46-0.65-18.66c0,0,5.11-0.47,10.8-0.32c1.12,0.02,2.27,0.05,3.39,0.12
				c5.96,0.3,11.9,0.95,17.78,1.94c0.72,0.14,1.41,0.33,2.12,0.46c1.81,0.44,3.52,0.94,4.99,1.4c2.99,0.92,5.16,3.5,5.56,6.59
				C180.25,201.06,179.99,233.07,169.99,264.8z"/>
		</g>
		<path style="fill:#EEC1BB;" d="M152.523,161.594c0.493,5.85,0.477,16.444-3.941,19.826c3.158,4.103,7.94,6.635,13.109,6.939
			c4.932,0.43,5.556-2.984,4.669-5.003c-6.216-2.215-5.541-6.93-3.94-11.255L152.523,161.594z"/>
		<path style="opacity:0.2;enable-background:new    ;" d="M156.557,165.886l5.855,6.204c-0.382,1.008-0.68,2.045-0.893,3.101
			c-2.399-0.614-5.44-3.65-5.433-6.23C156.052,167.915,156.212,166.873,156.557,165.886z"/>
		<g>
			<path style="fill:#EEC1BB;" d="M152.772,152.921c-0.384,7.785-0.978,12.332,2.513,16.708c5.231,6.62,15.172,4.11,17.887-3.419
				c2.418-6.779,2.605-18.389-4.638-22.293c-5.158-2.826-11.631-0.936-14.457,4.223C153.272,149.61,152.825,151.247,152.772,152.921
				z"/>
			<path style="fill:#263238;" d="M164.284,156.363c-0.111,0.62,0.205,1.175,0.624,1.22c0.419,0.045,0.8-0.435,0.872-1.062
				c0.072-0.627-0.215-1.177-0.624-1.22C164.747,155.257,164.358,155.726,164.284,156.363z"/>
			<path style="fill:#263238;" d="M171.41,157.136c-0.111,0.62,0.215,1.177,0.624,1.22c0.409,0.043,0.8-0.435,0.872-1.063
				c0.072-0.627-0.215-1.177-0.624-1.22C171.873,156.031,171.477,156.538,171.41,157.136z"/>
			<path style="fill:#D4827D;" d="M169.112,157.201c0.541,2.009,1.358,3.934,2.426,5.719c-0.945,0.532-2.076,0.618-3.091,0.237
				L169.112,157.201z"/>
			<path style="fill:#263238;" d="M162.324,153.816c0.135,0.034,0.277-0.006,0.375-0.105c0.633-0.704,1.561-1.068,2.503-0.982
				c0.201,0.037,0.394-0.096,0.43-0.298c0.037-0.201-0.097-0.394-0.298-0.43c-0.001,0-0.001,0-0.002,0
				c-1.189-0.139-2.371,0.308-3.172,1.198c-0.145,0.145-0.144,0.379,0,0.523c0.002,0.002,0.004,0.004,0.006,0.006
				C162.215,153.764,162.268,153.794,162.324,153.816z"/>
			<path style="fill:#263238;" d="M165.194,165.711L165.194,165.711c-1.826-0.364-3.361-1.595-4.111-3.3
				c-0.036-0.102,0.016-0.214,0.117-0.253c0.097-0.04,0.208,0.006,0.248,0.103c0.002,0.005,0.004,0.009,0.005,0.014
				c0.726,1.562,2.146,2.691,3.831,3.046c0.103,0.018,0.173,0.116,0.155,0.22c-0.001,0.007-0.003,0.014-0.005,0.021
				c-0.018,0.103-0.116,0.173-0.22,0.155C165.208,165.715,165.201,165.713,165.194,165.711z"/>
			<path style="fill:#263238;" d="M174.738,155.012c0.066,0.035,0.142,0.049,0.217,0.039c0.193-0.066,0.297-0.276,0.231-0.469
				c-0.001-0.003-0.002-0.005-0.003-0.008c-0.379-1.139-1.289-2.023-2.439-2.369c-0.199-0.047-0.398,0.076-0.445,0.274l0,0.001
				c-0.042,0.198,0.079,0.394,0.275,0.446l0,0c0.9,0.299,1.605,1.006,1.903,1.907C174.533,154.928,174.629,154.993,174.738,155.012z
				"/>
			<path style="fill:#263238;" d="M154.09,159.506c0,0,4.932-6.37,3.673-12.236c0,0,3.851-0.741,7.666,1.791
				c0,0,0.08-2.072-0.173-2.707c0,0,6.955,0.488,10.409,4.927c0,0,0.059-4.175-2.521-7.127c0,0,1.592-0.344,3.052,0.356
				c0,0-5.588-5.887-15.819-4.343c-10.231,1.544-14.103,7.112-13.029,16.19c1.074,9.078,5.566,11.638,5.566,11.638
				s-1.071-6.947-0.436-8.386C153.113,158.171,154.09,159.506,154.09,159.506z"/>
			<path style="fill:#EEC1BB;" d="M148.349,161.077c0.862,1.762,2.388,3.111,4.243,3.75c2.462,0.829,3.828-1.344,3.264-3.742
				c-0.522-2.126-2.42-5.19-4.951-4.954C148.373,156.367,147.318,158.9,148.349,161.077z"/>
			<g>
				<path style="fill:#407BFF;" d="M168.543,140.325c-2.687,0.452-5.041,1.083-7.118,1.827c-1.813,0.647-3.41,1.37-4.803,2.15
					c-0.01,0.001-0.01,0.011-0.019,0.011c-7.531,4.148-9.454,9.511-9.454,9.511s-0.234-0.686-0.563-1.748
					c-0.327-1.041-0.746-2.438-1.139-3.875l-0.001-0.01c-0.743-2.698-1.364-5.524-1.005-6.329c3.207-7.229,13.388-9.26,14.757-8.857
					c0.827,0.248,4.007,2.821,6.432,4.851c1.227,1.014,2.255,1.9,2.691,2.283C168.468,140.26,168.543,140.325,168.543,140.325z"/>
				<path style="opacity:0.6;fill:#FFFFFF;enable-background:new    ;" d="M168.32,140.139c-1.531,0.198-3.74,0.749-6.896,2.013
					c-1.407,0.561-2.995,1.273-4.803,2.15c-0.01,0.001-0.01,0.011-0.019,0.011c-5.715,2.779-8.583,5.567-10.017,7.763
					c-0.327-1.041-0.746-2.438-1.139-3.875l-0.001-0.01c2.816-2.825,10.334-9.376,20.184-10.335
					C166.857,138.87,167.885,139.756,168.32,140.139z"/>
				<path style="fill:#407BFF;" d="M147.348,156.357c0,0-6.855,4.815-7.289,2.25c-1.112-6.569,17.087-20.985,34.856-20.655
					c14.585,0.271-1.108,4.727-1.108,4.727C168.002,140.672,146.895,149.846,147.348,156.357z"/>
				<path style="opacity:0.3;enable-background:new    ;" d="M147.348,156.357c0,0-6.855,4.815-7.289,2.25
					c-1.112-6.569,17.087-20.985,34.856-20.655c14.585,0.271-1.108,4.727-1.108,4.727
					C168.002,140.672,146.895,149.846,147.348,156.357z"/>
			</g>
		</g>
		<g>
			<path style="fill:#407BFF;" d="M149.462,177.571c0,0,3.441,3.577,11.61,7.426c0,0,1.937-1.492,2.185-6.041l5.226,4.914
				l-1.162,8.231l-3.475-3.833l-1.793,23.919c0,0,1.129-16.01-2.806-23.143l-2.627,4.054c0,0-9.495-3.284-12.283-11.779
				L149.462,177.571z"/>
			<path style="opacity:0.6;fill:#FFFFFF;enable-background:new    ;" d="M168.48,183.87l-1.16,8.23l-3.47-3.83l-1.8,23.92
				c0,0,1.13-16.01-2.8-23.15l-2.63,4.06c0,0-9.5-3.29-12.28-11.78l5.12-3.75c0,0,3.44,3.58,11.61,7.43
				c0.01-0.01,0.01-0.01,0.02-0.02c0.22-0.18,1.94-1.75,2.17-6.02L168.48,183.87z"/>
		</g>
		<path style="opacity:0.2;enable-background:new    ;" d="M162.41,197.45c-0.29-6.03-1.34-12.45-1.34-12.45
			c0.01-0.01,0.01-0.01,0.02-0.02c0.22-0.18,1.94-1.75,2.17-6.02c0.559,1.207,0.509,3.556-0.593,5.205L162.41,197.45z"/>
		<path style="fill:#EEC1BB;" d="M119,266.253c0,0,1.195,1.846,1.323,5.143c0.128,3.297-0.539,9.744-1.323,10.549
			c-0.461,0.474-8.154-1.681-8.901-3.594c-0.341-0.872,0.989-9.725,2.571-12.099C114.253,263.879,119,266.253,119,266.253z"/>
		<path style="opacity:0.2;enable-background:new    ;" d="M144.09,202.59c0,0-3.62,14-10.49,18.76c0.47-4.19,0.88-8.66,1.14-13.33
			c0.16-2.56,0.26-5.13,0.3-7.69L144.09,202.59z"/>
		<path style="fill:#EEC1BB;" d="M125.33,199.788c0,0-9.293,16.355-10.976,21.894c-1.683,5.538-1.683,44.571-1.683,44.571H119
			c0,0,3.956-38.769,6.33-43.78c2.374-5.011,10.857-16.566,10.857-16.566L125.33,199.788z"/>
		<g>
			<path style="fill:#407BFF;" d="M135.982,181.57c-4.255-0.681-15.659,24.236-15.659,24.236l12.036,7.538
				c0,0,7.838-7.306,11.735-10.759C147.991,199.132,142.902,182.677,135.982,181.57z"/>
			<path style="opacity:0.4;fill:#FFFFFF;enable-background:new    ;" d="M135.982,181.57c-4.255-0.681-15.659,24.236-15.659,24.236
				l12.036,7.538c0,0,7.838-7.306,11.735-10.759C147.991,199.132,142.902,182.677,135.982,181.57z"/>
		</g>
		<g>
			<polygon style="fill:#407BFF;" points="120.323,204.077 134.375,213.344 131.264,216.143 118.802,208.033 			"/>
			<polygon style="opacity:0.6;fill:#FFFFFF;enable-background:new    ;" points="120.323,204.077 134.375,213.344 131.264,216.143 
				118.802,208.033 			"/>
		</g>
		<g>
			<polygon style="fill:#407BFF;" points="180.174,218.854 190.914,205.893 193.358,209.29 183.941,220.795 			"/>
			<polygon style="opacity:0.6;fill:#FFFFFF;enable-background:new    ;" points="180.174,218.854 190.914,205.893 193.358,209.29 
				183.941,220.795 			"/>
		</g>
		<g>
			<path style="fill:#263238;" d="M221.284,188.15l10.597-14.697c0.141-0.195,0.381-0.293,0.618-0.251l6.923,1.213
				c0.459,0.081,0.673,0.615,0.397,0.99l-10.837,14.733c-0.143,0.194-0.384,0.29-0.621,0.245l-6.683-1.25
				C221.225,189.049,221.015,188.523,221.284,188.15z"/>
			<path style="fill:#263238;" d="M220.525,187.726l10.597-14.697c0.141-0.195,0.381-0.293,0.618-0.251l6.923,1.213
				c0.459,0.081,0.674,0.615,0.398,0.991l-10.837,14.733c-0.143,0.194-0.384,0.29-0.621,0.245l-6.683-1.25
				C220.466,188.626,220.255,188.099,220.525,187.726z"/>
			<polygon style="fill:#FFFFFF;" points="231.549,173.516 238.176,174.703 227.593,188.945 221.165,187.758 			"/>
		</g>
	</g>
</g>
<g id="Speech_Bubble">
	<g>
		<g>
			<path style="fill:#407BFF;" d="M259.648,117.747c0-14.857-12.044-26.901-26.901-26.901c-14.857,0-26.901,12.044-26.901,26.901
				c0,13.67,10.198,24.95,23.4,26.667l1.307,14.127l2.474-13.899C247.755,144.49,259.648,132.51,259.648,117.747z"/>
			<path style="opacity:0.8;fill:#FFFFFF;enable-background:new    ;" d="M259.648,117.747c0-14.857-12.044-26.901-26.901-26.901
				c-14.857,0-26.901,12.044-26.901,26.901c0,13.67,10.198,24.95,23.4,26.667l1.307,14.127l2.474-13.899
				C247.755,144.49,259.648,132.51,259.648,117.747z"/>
		</g>
		<g>
			<polygon style="fill:#407BFF;" points="245.868,117.747 219.626,106.78 223.934,117.747 219.626,128.714 			"/>
			<polygon style="opacity:0.3;enable-background:new    ;" points="223.934,117.747 245.868,117.747 219.626,128.714 			"/>
		</g>
	</g>
</g>
</svg>
