<?xml version="1.0" encoding="utf-8"?>
<!-- Generator: Adobe Illustrator 27.5.0, SVG Export Plug-In . SVG Version: 6.00 Build 0)  -->
<svg version="1.1" xmlns="http://www.w3.org/2000/svg" xmlns:xlink="http://www.w3.org/1999/xlink" x="0px" y="0px"
	 viewBox="0 0 500 500" style="enable-background:new 0 0 500 500;" xml:space="preserve">
<g id="Background_Complete">
	<g>
		<rect y="382.398" style="fill:#EBEBEB;" width="500" height="0.25"/>
		<rect x="416.779" y="398.494" style="fill:#EBEBEB;" width="33.122" height="0.25"/>
		<rect x="322.527" y="401.208" style="fill:#EBEBEB;" width="8.693" height="0.25"/>
		<rect x="396.586" y="389.208" style="fill:#EBEBEB;" width="19.192" height="0.25"/>
		<rect x="52.459" y="390.888" style="fill:#EBEBEB;" width="43.193" height="0.25"/>
		<rect x="104.556" y="390.888" style="fill:#EBEBEB;" width="6.333" height="0.25"/>
		<rect x="131.471" y="395.111" style="fill:#EBEBEB;" width="93.676" height="0.25"/>
		<path style="fill:#EBEBEB;" d="M237.014,337.8H43.915c-3.147,0-5.708-2.561-5.708-5.708V60.66c0-3.147,2.561-5.708,5.708-5.708
			h193.099c3.146,0,5.707,2.561,5.707,5.708v271.432C242.721,335.239,240.16,337.8,237.014,337.8z M43.915,55.203
			c-3.01,0-5.458,2.448-5.458,5.458v271.432c0,3.01,2.448,5.458,5.458,5.458h193.099c3.009,0,5.457-2.448,5.457-5.458V60.66
			c0-3.009-2.448-5.458-5.457-5.458H43.915z"/>
		<path style="fill:#EBEBEB;" d="M453.31,337.8H260.212c-3.147,0-5.707-2.561-5.707-5.708V60.66c0-3.147,2.561-5.708,5.707-5.708
			H453.31c3.148,0,5.708,2.561,5.708,5.708v271.432C459.019,335.239,456.458,337.8,453.31,337.8z M260.212,55.203
			c-3.009,0-5.457,2.448-5.457,5.458v271.432c0,3.01,2.448,5.458,5.457,5.458H453.31c3.01,0,5.458-2.448,5.458-5.458V60.66
			c0-3.009-2.448-5.458-5.458-5.458H260.212z"/>
	</g>
	<g>
		<polygon style="fill:#E6E6E6;" points="437.241,381.276 437.241,334.456 433.238,334.456 433.238,312.147 427.386,312.147 
			427.386,234.581 418.926,234.581 418.926,224.572 400.863,216.148 400.863,206.056 398.361,206.056 398.361,234.581 
			394.858,234.581 394.858,312.147 391.355,312.147 391.355,271.362 381.847,271.362 381.847,250.344 379.194,250.344 
			379.194,312.147 371.972,312.147 371.972,288.627 367.218,288.627 367.218,282.622 356.209,282.622 356.209,262.104 
			350.18,262.104 350.18,247.592 342.769,247.592 342.769,226.449 340.124,226.449 340.124,247.592 332.713,247.592 
			332.713,262.104 326.684,262.104 326.684,282.622 315.674,282.622 315.674,288.627 310.92,288.627 310.92,312.147 
			305.282,312.147 305.282,282.622 294.272,282.622 294.272,219.068 290.769,219.068 290.769,212.062 267.249,212.062 
			267.249,219.068 262.245,219.068 262.245,265.107 242.228,265.107 242.228,269.611 234.722,269.611 234.722,273.114 
			242.228,273.114 242.228,291.129 221.21,291.129 221.21,231.078 216.706,231.078 216.706,218.317 206.948,218.317 
			206.948,173.028 204.196,173.028 204.196,218.317 197.19,218.317 197.19,231.078 156.117,231.078 156.117,226.878 
			153.614,226.878 153.614,255.402 150.111,255.402 150.111,255.902 148.008,255.902 148.008,284.427 144.505,284.427 
			144.505,292.183 137.1,292.183 137.1,271.165 134.447,271.165 134.447,321.208 131.493,321.208 131.493,300.19 128.84,300.19 
			128.84,332.968 127.226,332.968 127.226,309.448 122.472,309.448 122.472,303.443 111.462,303.443 111.462,282.925 
			105.433,282.925 105.433,268.413 98.022,268.413 98.022,247.27 95.377,247.27 95.377,268.413 87.966,268.413 87.966,282.925 
			81.937,282.925 81.937,303.443 70.928,303.443 70.928,309.448 66.174,309.448 66.174,332.467 65.32,332.467 65.32,332.968 
			62.966,332.968 62.966,381.276 		"/>
		<g>
			<rect x="179.034" y="233.884" style="fill:#F0F0F0;" width="2.836" height="2.836"/>
			<rect x="179.034" y="238.638" style="fill:#F0F0F0;" width="2.836" height="2.836"/>
			<rect x="179.034" y="257.654" style="fill:#F0F0F0;" width="2.836" height="2.836"/>
			<rect x="179.034" y="262.408" style="fill:#F0F0F0;" width="2.836" height="2.836"/>
			<rect x="179.034" y="267.162" style="fill:#F0F0F0;" width="2.836" height="2.836"/>
			<rect x="179.034" y="281.424" style="fill:#F0F0F0;" width="2.836" height="2.836"/>
			<rect x="179.034" y="286.178" style="fill:#F0F0F0;" width="2.836" height="2.836"/>
			<rect x="183.538" y="252.9" style="fill:#F0F0F0;" width="2.836" height="2.836"/>
			<rect x="183.538" y="257.654" style="fill:#F0F0F0;" width="2.836" height="2.836"/>
			<rect x="183.538" y="262.408" style="fill:#F0F0F0;" width="2.836" height="2.836"/>
			<rect x="183.538" y="267.162" style="fill:#F0F0F0;" width="2.836" height="2.836"/>
			<rect x="183.538" y="271.916" style="fill:#F0F0F0;" width="2.836" height="2.836"/>
			<rect x="183.538" y="281.424" style="fill:#F0F0F0;" width="2.836" height="2.836"/>
			<rect x="183.538" y="286.178" style="fill:#F0F0F0;" width="2.836" height="2.836"/>
			<rect x="188.041" y="233.884" style="fill:#F0F0F0;" width="2.836" height="2.836"/>
			<rect x="188.041" y="238.638" style="fill:#F0F0F0;" width="2.836" height="2.836"/>
			<rect x="188.041" y="243.392" style="fill:#F0F0F0;" width="2.836" height="2.836"/>
			<rect x="188.041" y="248.146" style="fill:#F0F0F0;" width="2.836" height="2.836"/>
			<rect x="188.041" y="252.9" style="fill:#F0F0F0;" width="2.836" height="2.836"/>
			<rect x="188.041" y="257.654" style="fill:#F0F0F0;" width="2.836" height="2.836"/>
			<rect x="188.041" y="262.408" style="fill:#F0F0F0;" width="2.836" height="2.836"/>
			<rect x="188.041" y="267.162" style="fill:#F0F0F0;" width="2.836" height="2.836"/>
			<rect x="188.041" y="271.916" style="fill:#F0F0F0;" width="2.836" height="2.836"/>
			<rect x="188.041" y="276.67" style="fill:#F0F0F0;" width="2.836" height="2.836"/>
			<rect x="188.041" y="286.178" style="fill:#F0F0F0;" width="2.836" height="2.836"/>
			<rect x="192.545" y="233.884" style="fill:#F0F0F0;" width="2.836" height="2.836"/>
			<rect x="192.545" y="238.638" style="fill:#F0F0F0;" width="2.836" height="2.836"/>
			<rect x="192.545" y="243.392" style="fill:#F0F0F0;" width="2.836" height="2.836"/>
			<rect x="192.545" y="248.146" style="fill:#F0F0F0;" width="2.836" height="2.836"/>
			<rect x="192.545" y="252.9" style="fill:#F0F0F0;" width="2.836" height="2.836"/>
			<rect x="192.545" y="257.654" style="fill:#F0F0F0;" width="2.836" height="2.836"/>
			<rect x="192.545" y="262.408" style="fill:#F0F0F0;" width="2.836" height="2.836"/>
			<rect x="192.545" y="305.195" style="fill:#F0F0F0;" width="2.836" height="2.836"/>
			<rect x="197.049" y="233.884" style="fill:#F0F0F0;" width="2.836" height="2.836"/>
			<rect x="197.049" y="238.638" style="fill:#F0F0F0;" width="2.836" height="2.836"/>
			<rect x="197.049" y="243.392" style="fill:#F0F0F0;" width="2.836" height="2.836"/>
			<rect x="197.049" y="248.146" style="fill:#F0F0F0;" width="2.836" height="2.836"/>
			<rect x="197.049" y="252.9" style="fill:#F0F0F0;" width="2.836" height="2.836"/>
			<rect x="197.049" y="257.654" style="fill:#F0F0F0;" width="2.836" height="2.836"/>
			<rect x="197.049" y="262.408" style="fill:#F0F0F0;" width="2.836" height="2.836"/>
			<rect x="197.049" y="267.162" style="fill:#F0F0F0;" width="2.836" height="2.836"/>
			<rect x="197.049" y="295.687" style="fill:#F0F0F0;" width="2.836" height="2.836"/>
			<rect x="197.049" y="300.441" style="fill:#F0F0F0;" width="2.836" height="2.836"/>
			<rect x="197.049" y="305.195" style="fill:#F0F0F0;" width="2.836" height="2.836"/>
			<rect x="197.049" y="309.949" style="fill:#F0F0F0;" width="2.836" height="2.836"/>
			<rect x="197.049" y="328.965" style="fill:#F0F0F0;" width="2.836" height="2.836"/>
			<rect x="201.553" y="233.884" style="fill:#F0F0F0;" width="2.836" height="2.836"/>
			<rect x="201.553" y="238.638" style="fill:#F0F0F0;" width="2.836" height="2.836"/>
			<rect x="201.553" y="243.392" style="fill:#F0F0F0;" width="2.836" height="2.836"/>
			<rect x="201.553" y="248.146" style="fill:#F0F0F0;" width="2.836" height="2.836"/>
			<rect x="201.553" y="252.9" style="fill:#F0F0F0;" width="2.836" height="2.836"/>
			<rect x="201.553" y="257.654" style="fill:#F0F0F0;" width="2.836" height="2.836"/>
			<rect x="201.553" y="262.408" style="fill:#F0F0F0;" width="2.836" height="2.836"/>
			<rect x="201.553" y="267.162" style="fill:#F0F0F0;" width="2.836" height="2.836"/>
			<rect x="201.553" y="271.916" style="fill:#F0F0F0;" width="2.836" height="2.836"/>
			<rect x="201.553" y="276.67" style="fill:#F0F0F0;" width="2.836" height="2.836"/>
			<rect x="201.553" y="290.932" style="fill:#F0F0F0;" width="2.836" height="2.836"/>
			<rect x="201.553" y="295.687" style="fill:#F0F0F0;" width="2.836" height="2.836"/>
			<rect x="201.553" y="300.441" style="fill:#F0F0F0;" width="2.836" height="2.836"/>
			<rect x="201.553" y="305.195" style="fill:#F0F0F0;" width="2.836" height="2.836"/>
			<rect x="201.553" y="309.949" style="fill:#F0F0F0;" width="2.836" height="2.836"/>
			<rect x="201.553" y="328.965" style="fill:#F0F0F0;" width="2.836" height="2.836"/>
			<rect x="206.057" y="233.884" style="fill:#F0F0F0;" width="2.836" height="2.836"/>
			<rect x="206.057" y="238.638" style="fill:#F0F0F0;" width="2.836" height="2.836"/>
			<rect x="206.057" y="243.392" style="fill:#F0F0F0;" width="2.836" height="2.836"/>
			<rect x="206.057" y="248.146" style="fill:#F0F0F0;" width="2.836" height="2.836"/>
			<rect x="206.057" y="252.9" style="fill:#F0F0F0;" width="2.836" height="2.836"/>
			<rect x="206.057" y="257.654" style="fill:#F0F0F0;" width="2.836" height="2.836"/>
			<rect x="206.057" y="262.408" style="fill:#F0F0F0;" width="2.836" height="2.836"/>
			<rect x="206.057" y="267.162" style="fill:#F0F0F0;" width="2.836" height="2.836"/>
			<rect x="206.057" y="271.916" style="fill:#F0F0F0;" width="2.836" height="2.836"/>
			<rect x="206.057" y="276.67" style="fill:#F0F0F0;" width="2.836" height="2.836"/>
			<rect x="206.057" y="281.424" style="fill:#F0F0F0;" width="2.836" height="2.836"/>
			<rect x="206.057" y="286.178" style="fill:#F0F0F0;" width="2.836" height="2.836"/>
			<rect x="206.057" y="290.932" style="fill:#F0F0F0;" width="2.836" height="2.836"/>
			<rect x="206.057" y="295.687" style="fill:#F0F0F0;" width="2.836" height="2.836"/>
			<rect x="206.057" y="300.441" style="fill:#F0F0F0;" width="2.836" height="2.836"/>
			<rect x="206.057" y="305.195" style="fill:#F0F0F0;" width="2.836" height="2.836"/>
			<rect x="206.057" y="309.949" style="fill:#F0F0F0;" width="2.836" height="2.836"/>
			<rect x="206.057" y="314.703" style="fill:#F0F0F0;" width="2.836" height="2.836"/>
			<rect x="210.561" y="233.884" style="fill:#F0F0F0;" width="2.836" height="2.836"/>
			<rect x="210.561" y="238.638" style="fill:#F0F0F0;" width="2.836" height="2.836"/>
			<rect x="210.561" y="243.392" style="fill:#F0F0F0;" width="2.836" height="2.836"/>
			<rect x="210.561" y="248.146" style="fill:#F0F0F0;" width="2.836" height="2.836"/>
			<rect x="210.561" y="252.9" style="fill:#F0F0F0;" width="2.836" height="2.836"/>
			<rect x="210.561" y="257.654" style="fill:#F0F0F0;" width="2.836" height="2.836"/>
			<rect x="210.561" y="262.408" style="fill:#F0F0F0;" width="2.836" height="2.836"/>
			<rect x="210.561" y="267.162" style="fill:#F0F0F0;" width="2.836" height="2.836"/>
			<rect x="210.561" y="271.916" style="fill:#F0F0F0;" width="2.836" height="2.836"/>
			<rect x="210.561" y="276.67" style="fill:#F0F0F0;" width="2.836" height="2.836"/>
			<rect x="210.561" y="290.932" style="fill:#F0F0F0;" width="2.836" height="2.836"/>
			<rect x="210.561" y="295.687" style="fill:#F0F0F0;" width="2.836" height="2.836"/>
			<rect x="210.561" y="300.441" style="fill:#F0F0F0;" width="2.836" height="2.836"/>
			<rect x="210.561" y="305.195" style="fill:#F0F0F0;" width="2.836" height="2.836"/>
			<rect x="215.064" y="233.884" style="fill:#F0F0F0;" width="2.836" height="2.836"/>
			<rect x="215.064" y="238.638" style="fill:#F0F0F0;" width="2.836" height="2.836"/>
			<rect x="215.064" y="243.392" style="fill:#F0F0F0;" width="2.836" height="2.836"/>
			<rect x="215.064" y="248.146" style="fill:#F0F0F0;" width="2.836" height="2.836"/>
			<rect x="215.064" y="252.9" style="fill:#F0F0F0;" width="2.836" height="2.836"/>
			<rect x="215.064" y="257.654" style="fill:#F0F0F0;" width="2.836" height="2.836"/>
			<rect x="215.064" y="262.408" style="fill:#F0F0F0;" width="2.836" height="2.836"/>
			<rect x="215.064" y="267.162" style="fill:#F0F0F0;" width="2.836" height="2.836"/>
			<rect x="215.064" y="271.916" style="fill:#F0F0F0;" width="2.836" height="2.836"/>
			<rect x="215.064" y="276.67" style="fill:#F0F0F0;" width="2.836" height="2.836"/>
			<rect x="215.064" y="290.932" style="fill:#F0F0F0;" width="2.836" height="2.836"/>
			<rect x="215.064" y="295.687" style="fill:#F0F0F0;" width="2.836" height="2.836"/>
			<rect x="215.064" y="300.441" style="fill:#F0F0F0;" width="2.836" height="2.836"/>
			<rect x="265.774" y="221.54" style="fill:#F0F0F0;" width="2.836" height="2.836"/>
			<rect x="265.774" y="226.294" style="fill:#F0F0F0;" width="2.836" height="2.836"/>
			<rect x="265.774" y="231.048" style="fill:#F0F0F0;" width="2.836" height="2.836"/>
			<rect x="265.774" y="235.802" style="fill:#F0F0F0;" width="2.836" height="2.836"/>
			<rect x="265.774" y="240.556" style="fill:#F0F0F0;" width="2.836" height="2.836"/>
			<rect x="265.774" y="245.31" style="fill:#F0F0F0;" width="2.836" height="2.836"/>
			<rect x="265.774" y="250.064" style="fill:#F0F0F0;" width="2.836" height="2.836"/>
			<rect x="265.774" y="254.818" style="fill:#F0F0F0;" width="2.836" height="2.836"/>
			<rect x="265.774" y="269.081" style="fill:#F0F0F0;" width="2.836" height="2.836"/>
			<rect x="265.774" y="273.835" style="fill:#F0F0F0;" width="2.836" height="2.836"/>
			<rect x="270.278" y="221.54" style="fill:#F0F0F0;" width="2.836" height="2.836"/>
			<rect x="270.278" y="226.294" style="fill:#F0F0F0;" width="2.836" height="2.836"/>
			<rect x="270.278" y="231.048" style="fill:#F0F0F0;" width="2.836" height="2.836"/>
			<rect x="270.278" y="235.802" style="fill:#F0F0F0;" width="2.836" height="2.836"/>
			<rect x="270.278" y="240.556" style="fill:#F0F0F0;" width="2.836" height="2.836"/>
			<rect x="270.278" y="245.31" style="fill:#F0F0F0;" width="2.836" height="2.836"/>
			<rect x="270.278" y="250.064" style="fill:#F0F0F0;" width="2.836" height="2.836"/>
			<rect x="270.278" y="254.818" style="fill:#F0F0F0;" width="2.836" height="2.836"/>
			<rect x="270.278" y="273.835" style="fill:#F0F0F0;" width="2.836" height="2.836"/>
			<rect x="274.782" y="221.54" style="fill:#F0F0F0;" width="2.836" height="2.836"/>
			<rect x="274.782" y="226.294" style="fill:#F0F0F0;" width="2.836" height="2.836"/>
			<rect x="274.782" y="231.048" style="fill:#F0F0F0;" width="2.836" height="2.836"/>
			<rect x="274.782" y="235.802" style="fill:#F0F0F0;" width="2.836" height="2.836"/>
			<rect x="274.782" y="240.556" style="fill:#F0F0F0;" width="2.836" height="2.836"/>
			<rect x="274.782" y="245.31" style="fill:#F0F0F0;" width="2.836" height="2.836"/>
			<rect x="274.782" y="250.064" style="fill:#F0F0F0;" width="2.836" height="2.836"/>
			<rect x="274.782" y="254.818" style="fill:#F0F0F0;" width="2.836" height="2.836"/>
			<rect x="279.286" y="221.54" style="fill:#F0F0F0;" width="2.836" height="2.836"/>
			<rect x="279.286" y="226.294" style="fill:#F0F0F0;" width="2.836" height="2.836"/>
			<rect x="279.286" y="231.048" style="fill:#F0F0F0;" width="2.836" height="2.836"/>
			<rect x="279.286" y="235.802" style="fill:#F0F0F0;" width="2.836" height="2.836"/>
			<rect x="279.286" y="240.556" style="fill:#F0F0F0;" width="2.836" height="2.836"/>
			<rect x="279.286" y="245.31" style="fill:#F0F0F0;" width="2.836" height="2.836"/>
			<rect x="279.286" y="254.818" style="fill:#F0F0F0;" width="2.836" height="2.836"/>
			<rect x="279.286" y="259.572" style="fill:#F0F0F0;" width="2.836" height="2.836"/>
			<rect x="279.286" y="273.835" style="fill:#F0F0F0;" width="2.836" height="2.836"/>
			<rect x="279.286" y="278.589" style="fill:#F0F0F0;" width="2.836" height="2.836"/>
			<rect x="279.286" y="283.343" style="fill:#F0F0F0;" width="2.836" height="2.836"/>
			<rect x="279.286" y="288.097" style="fill:#F0F0F0;" width="2.836" height="2.836"/>
			<rect x="279.286" y="292.851" style="fill:#F0F0F0;" width="2.836" height="2.836"/>
			<rect x="279.286" y="297.605" style="fill:#F0F0F0;" width="2.836" height="2.836"/>
			<rect x="279.286" y="302.359" style="fill:#F0F0F0;" width="2.836" height="2.836"/>
			<rect x="283.79" y="221.54" style="fill:#F0F0F0;" width="2.836" height="2.836"/>
			<rect x="283.79" y="226.294" style="fill:#F0F0F0;" width="2.836" height="2.836"/>
			<rect x="283.79" y="231.048" style="fill:#F0F0F0;" width="2.836" height="2.836"/>
			<rect x="283.79" y="235.802" style="fill:#F0F0F0;" width="2.836" height="2.836"/>
			<rect x="283.79" y="240.556" style="fill:#F0F0F0;" width="2.836" height="2.836"/>
			<rect x="283.79" y="245.31" style="fill:#F0F0F0;" width="2.836" height="2.836"/>
			<rect x="283.79" y="259.572" style="fill:#F0F0F0;" width="2.836" height="2.836"/>
			<rect x="283.79" y="264.327" style="fill:#F0F0F0;" width="2.836" height="2.836"/>
			<rect x="283.79" y="269.081" style="fill:#F0F0F0;" width="2.836" height="2.836"/>
			<rect x="283.79" y="273.835" style="fill:#F0F0F0;" width="2.836" height="2.836"/>
			<rect x="283.79" y="278.589" style="fill:#F0F0F0;" width="2.836" height="2.836"/>
			<rect x="283.79" y="283.343" style="fill:#F0F0F0;" width="2.836" height="2.836"/>
			<rect x="283.79" y="288.097" style="fill:#F0F0F0;" width="2.836" height="2.836"/>
			<rect x="283.79" y="292.851" style="fill:#F0F0F0;" width="2.836" height="2.836"/>
			<rect x="283.79" y="297.605" style="fill:#F0F0F0;" width="2.836" height="2.836"/>
			<rect x="283.79" y="302.359" style="fill:#F0F0F0;" width="2.836" height="2.836"/>
			<rect x="283.79" y="307.113" style="fill:#F0F0F0;" width="2.836" height="2.836"/>
			<rect x="283.79" y="316.621" style="fill:#F0F0F0;" width="2.836" height="2.836"/>
			<rect x="288.293" y="221.54" style="fill:#F0F0F0;" width="2.836" height="2.836"/>
			<rect x="288.293" y="226.294" style="fill:#F0F0F0;" width="2.836" height="2.836"/>
			<rect x="288.293" y="231.048" style="fill:#F0F0F0;" width="2.836" height="2.836"/>
			<rect x="288.293" y="235.802" style="fill:#F0F0F0;" width="2.836" height="2.836"/>
			<rect x="288.293" y="240.556" style="fill:#F0F0F0;" width="2.836" height="2.836"/>
			<rect x="288.293" y="245.31" style="fill:#F0F0F0;" width="2.836" height="2.836"/>
			<rect x="288.293" y="259.572" style="fill:#F0F0F0;" width="2.836" height="2.836"/>
			<rect x="288.293" y="264.327" style="fill:#F0F0F0;" width="2.836" height="2.836"/>
			<rect x="288.293" y="269.081" style="fill:#F0F0F0;" width="2.836" height="2.836"/>
			<rect x="288.293" y="273.835" style="fill:#F0F0F0;" width="2.836" height="2.836"/>
			<rect x="288.293" y="288.097" style="fill:#F0F0F0;" width="2.836" height="2.836"/>
			<rect x="288.293" y="292.851" style="fill:#F0F0F0;" width="2.836" height="2.836"/>
			<rect x="288.293" y="297.605" style="fill:#F0F0F0;" width="2.836" height="2.836"/>
			<rect x="288.293" y="302.359" style="fill:#F0F0F0;" width="2.836" height="2.836"/>
			<rect x="288.293" y="307.113" style="fill:#F0F0F0;" width="2.836" height="2.836"/>
			<rect x="288.293" y="316.621" style="fill:#F0F0F0;" width="2.836" height="2.836"/>
			<rect x="288.293" y="321.375" style="fill:#F0F0F0;" width="2.836" height="2.836"/>
			<rect x="329.162" y="265.744" style="fill:#F0F0F0;" width="2.836" height="2.836"/>
			<rect x="329.162" y="270.498" style="fill:#F0F0F0;" width="2.836" height="2.836"/>
			<rect x="329.162" y="275.253" style="fill:#F0F0F0;" width="2.836" height="2.836"/>
			<rect x="329.162" y="280.007" style="fill:#F0F0F0;" width="2.836" height="2.836"/>
			<rect x="329.162" y="284.761" style="fill:#F0F0F0;" width="2.836" height="2.836"/>
			<rect x="329.162" y="289.515" style="fill:#F0F0F0;" width="2.836" height="2.836"/>
			<rect x="329.162" y="294.269" style="fill:#F0F0F0;" width="2.836" height="2.836"/>
			<rect x="329.162" y="308.531" style="fill:#F0F0F0;" width="2.836" height="2.836"/>
			<rect x="329.162" y="313.285" style="fill:#F0F0F0;" width="2.836" height="2.836"/>
			<rect x="329.162" y="318.039" style="fill:#F0F0F0;" width="2.836" height="2.836"/>
			<rect x="333.666" y="265.744" style="fill:#F0F0F0;" width="2.836" height="2.836"/>
			<rect x="333.666" y="270.498" style="fill:#F0F0F0;" width="2.836" height="2.836"/>
			<rect x="333.666" y="275.253" style="fill:#F0F0F0;" width="2.836" height="2.836"/>
			<rect x="333.666" y="280.007" style="fill:#F0F0F0;" width="2.836" height="2.836"/>
			<rect x="333.666" y="284.761" style="fill:#F0F0F0;" width="2.836" height="2.836"/>
			<rect x="333.666" y="289.515" style="fill:#F0F0F0;" width="2.836" height="2.836"/>
			<rect x="333.666" y="294.269" style="fill:#F0F0F0;" width="2.836" height="2.836"/>
			<rect x="338.169" y="265.744" style="fill:#F0F0F0;" width="2.836" height="2.836"/>
			<rect x="338.169" y="270.498" style="fill:#F0F0F0;" width="2.836" height="2.836"/>
			<rect x="338.169" y="275.253" style="fill:#F0F0F0;" width="2.836" height="2.836"/>
			<rect x="338.169" y="280.007" style="fill:#F0F0F0;" width="2.836" height="2.836"/>
			<rect x="338.169" y="284.761" style="fill:#F0F0F0;" width="2.836" height="2.836"/>
			<rect x="338.169" y="289.515" style="fill:#F0F0F0;" width="2.836" height="2.836"/>
			<rect x="338.169" y="294.269" style="fill:#F0F0F0;" width="2.836" height="2.836"/>
			<rect x="342.673" y="265.744" style="fill:#F0F0F0;" width="2.836" height="2.836"/>
			<rect x="342.673" y="270.498" style="fill:#F0F0F0;" width="2.836" height="2.836"/>
			<rect x="342.673" y="275.253" style="fill:#F0F0F0;" width="2.836" height="2.836"/>
			<rect x="342.673" y="280.007" style="fill:#F0F0F0;" width="2.836" height="2.836"/>
			<rect x="342.673" y="284.761" style="fill:#F0F0F0;" width="2.836" height="2.836"/>
			<rect x="342.673" y="289.515" style="fill:#F0F0F0;" width="2.836" height="2.836"/>
			<rect x="342.673" y="294.269" style="fill:#F0F0F0;" width="2.836" height="2.836"/>
			<rect x="342.673" y="299.023" style="fill:#F0F0F0;" width="2.836" height="2.836"/>
			<rect x="342.673" y="303.777" style="fill:#F0F0F0;" width="2.836" height="2.836"/>
			<rect x="342.673" y="308.531" style="fill:#F0F0F0;" width="2.836" height="2.836"/>
			<rect x="342.673" y="313.285" style="fill:#F0F0F0;" width="2.836" height="2.836"/>
			<rect x="347.177" y="265.744" style="fill:#F0F0F0;" width="2.836" height="2.836"/>
			<rect x="347.177" y="270.498" style="fill:#F0F0F0;" width="2.836" height="2.836"/>
			<rect x="347.177" y="275.253" style="fill:#F0F0F0;" width="2.836" height="2.836"/>
			<rect x="347.177" y="280.007" style="fill:#F0F0F0;" width="2.836" height="2.836"/>
			<rect x="347.177" y="284.761" style="fill:#F0F0F0;" width="2.836" height="2.836"/>
			<rect x="347.177" y="289.515" style="fill:#F0F0F0;" width="2.836" height="2.836"/>
			<rect x="347.177" y="294.269" style="fill:#F0F0F0;" width="2.836" height="2.836"/>
			<rect x="347.177" y="299.023" style="fill:#F0F0F0;" width="2.836" height="2.836"/>
			<rect x="347.177" y="303.777" style="fill:#F0F0F0;" width="2.836" height="2.836"/>
			<rect x="347.177" y="308.531" style="fill:#F0F0F0;" width="2.836" height="2.836"/>
			<rect x="347.177" y="313.285" style="fill:#F0F0F0;" width="2.836" height="2.836"/>
			<rect x="347.177" y="318.039" style="fill:#F0F0F0;" width="2.836" height="2.836"/>
			<rect x="347.177" y="332.301" style="fill:#F0F0F0;" width="2.836" height="2.836"/>
			<rect x="347.177" y="337.055" style="fill:#F0F0F0;" width="2.836" height="2.836"/>
			<rect x="351.681" y="265.744" style="fill:#F0F0F0;" width="2.836" height="2.836"/>
			<rect x="351.681" y="270.498" style="fill:#F0F0F0;" width="2.836" height="2.836"/>
			<rect x="351.681" y="275.253" style="fill:#F0F0F0;" width="2.836" height="2.836"/>
			<rect x="351.681" y="289.515" style="fill:#F0F0F0;" width="2.836" height="2.836"/>
			<rect x="351.681" y="294.269" style="fill:#F0F0F0;" width="2.836" height="2.836"/>
			<rect x="351.681" y="299.023" style="fill:#F0F0F0;" width="2.836" height="2.836"/>
			<rect x="351.681" y="303.777" style="fill:#F0F0F0;" width="2.836" height="2.836"/>
			<rect x="351.681" y="308.531" style="fill:#F0F0F0;" width="2.836" height="2.836"/>
			<rect x="351.681" y="313.285" style="fill:#F0F0F0;" width="2.836" height="2.836"/>
			<rect x="351.681" y="318.039" style="fill:#F0F0F0;" width="2.836" height="2.836"/>
			<rect x="351.681" y="332.301" style="fill:#F0F0F0;" width="2.836" height="2.836"/>
			<rect x="351.681" y="337.055" style="fill:#F0F0F0;" width="2.836" height="2.836"/>
			<rect x="351.681" y="341.809" style="fill:#F0F0F0;" width="2.836" height="2.836"/>
			<rect x="398.888" y="237.22" style="fill:#F0F0F0;" width="2.836" height="2.836"/>
			<rect x="398.888" y="241.974" style="fill:#F0F0F0;" width="2.836" height="2.836"/>
			<rect x="398.888" y="246.728" style="fill:#F0F0F0;" width="2.836" height="2.836"/>
			<rect x="398.888" y="251.482" style="fill:#F0F0F0;" width="2.836" height="2.836"/>
			<rect x="398.888" y="256.236" style="fill:#F0F0F0;" width="2.836" height="2.836"/>
			<rect x="398.888" y="260.99" style="fill:#F0F0F0;" width="2.836" height="2.836"/>
			<rect x="398.888" y="265.744" style="fill:#F0F0F0;" width="2.836" height="2.836"/>
			<rect x="398.888" y="270.498" style="fill:#F0F0F0;" width="2.836" height="2.836"/>
			<rect x="398.888" y="275.253" style="fill:#F0F0F0;" width="2.836" height="2.836"/>
			<rect x="398.888" y="280.007" style="fill:#F0F0F0;" width="2.836" height="2.836"/>
			<rect x="398.888" y="284.761" style="fill:#F0F0F0;" width="2.836" height="2.836"/>
			<rect x="398.888" y="289.515" style="fill:#F0F0F0;" width="2.836" height="2.836"/>
			<rect x="398.888" y="294.269" style="fill:#F0F0F0;" width="2.836" height="2.836"/>
			<rect x="398.888" y="299.023" style="fill:#F0F0F0;" width="2.836" height="2.836"/>
			<rect x="398.888" y="303.777" style="fill:#F0F0F0;" width="2.836" height="2.836"/>
			<rect x="398.888" y="308.531" style="fill:#F0F0F0;" width="2.836" height="2.836"/>
			<rect x="398.888" y="313.285" style="fill:#F0F0F0;" width="2.836" height="2.836"/>
			<rect x="398.888" y="318.039" style="fill:#F0F0F0;" width="2.836" height="2.836"/>
			<rect x="398.888" y="322.793" style="fill:#F0F0F0;" width="2.836" height="2.836"/>
			<rect x="398.888" y="327.547" style="fill:#F0F0F0;" width="2.836" height="2.836"/>
			<rect x="398.888" y="332.301" style="fill:#F0F0F0;" width="2.836" height="2.836"/>
			<rect x="398.888" y="337.055" style="fill:#F0F0F0;" width="2.836" height="2.836"/>
			<rect x="398.888" y="341.809" style="fill:#F0F0F0;" width="2.836" height="2.836"/>
			<rect x="403.392" y="237.22" style="fill:#F0F0F0;" width="2.836" height="2.836"/>
			<rect x="403.392" y="241.974" style="fill:#F0F0F0;" width="2.836" height="2.836"/>
			<rect x="403.392" y="246.728" style="fill:#F0F0F0;" width="2.836" height="2.836"/>
			<rect x="403.392" y="251.482" style="fill:#F0F0F0;" width="2.836" height="2.836"/>
			<rect x="403.392" y="256.236" style="fill:#F0F0F0;" width="2.836" height="2.836"/>
			<rect x="403.392" y="260.99" style="fill:#F0F0F0;" width="2.836" height="2.836"/>
			<rect x="403.392" y="265.744" style="fill:#F0F0F0;" width="2.836" height="2.836"/>
			<rect x="403.392" y="270.498" style="fill:#F0F0F0;" width="2.836" height="2.836"/>
			<rect x="403.392" y="275.253" style="fill:#F0F0F0;" width="2.836" height="2.836"/>
			<rect x="403.392" y="280.007" style="fill:#F0F0F0;" width="2.836" height="2.836"/>
			<rect x="403.392" y="284.761" style="fill:#F0F0F0;" width="2.836" height="2.836"/>
			<rect x="403.392" y="289.515" style="fill:#F0F0F0;" width="2.836" height="2.836"/>
			<rect x="403.392" y="294.269" style="fill:#F0F0F0;" width="2.836" height="2.836"/>
			<rect x="403.392" y="299.023" style="fill:#F0F0F0;" width="2.836" height="2.836"/>
			<rect x="403.392" y="303.777" style="fill:#F0F0F0;" width="2.836" height="2.836"/>
			<rect x="403.392" y="308.531" style="fill:#F0F0F0;" width="2.836" height="2.836"/>
			<rect x="403.392" y="313.285" style="fill:#F0F0F0;" width="2.836" height="2.836"/>
			<rect x="403.392" y="318.039" style="fill:#F0F0F0;" width="2.836" height="2.836"/>
			<rect x="403.392" y="322.793" style="fill:#F0F0F0;" width="2.836" height="2.836"/>
			<rect x="407.895" y="237.22" style="fill:#F0F0F0;" width="2.836" height="2.836"/>
			<rect x="407.895" y="241.974" style="fill:#F0F0F0;" width="2.836" height="2.836"/>
			<rect x="407.895" y="246.728" style="fill:#F0F0F0;" width="2.836" height="2.836"/>
			<rect x="407.895" y="251.482" style="fill:#F0F0F0;" width="2.836" height="2.836"/>
			<rect x="407.895" y="256.236" style="fill:#F0F0F0;" width="2.836" height="2.836"/>
			<rect x="407.895" y="260.99" style="fill:#F0F0F0;" width="2.836" height="2.836"/>
			<rect x="407.895" y="265.744" style="fill:#F0F0F0;" width="2.836" height="2.836"/>
			<rect x="407.895" y="270.498" style="fill:#F0F0F0;" width="2.836" height="2.836"/>
			<rect x="407.895" y="275.253" style="fill:#F0F0F0;" width="2.836" height="2.836"/>
			<rect x="407.895" y="280.007" style="fill:#F0F0F0;" width="2.836" height="2.836"/>
			<rect x="407.895" y="284.761" style="fill:#F0F0F0;" width="2.836" height="2.836"/>
			<rect x="407.895" y="289.515" style="fill:#F0F0F0;" width="2.836" height="2.836"/>
			<rect x="407.895" y="294.269" style="fill:#F0F0F0;" width="2.836" height="2.836"/>
			<rect x="407.895" y="299.023" style="fill:#F0F0F0;" width="2.836" height="2.836"/>
			<rect x="407.895" y="303.777" style="fill:#F0F0F0;" width="2.836" height="2.836"/>
			<rect x="407.895" y="308.531" style="fill:#F0F0F0;" width="2.836" height="2.836"/>
			<rect x="407.895" y="313.285" style="fill:#F0F0F0;" width="2.836" height="2.836"/>
			<rect x="407.895" y="318.039" style="fill:#F0F0F0;" width="2.836" height="2.836"/>
			<rect x="407.895" y="322.793" style="fill:#F0F0F0;" width="2.836" height="2.836"/>
			<rect x="412.399" y="237.22" style="fill:#F0F0F0;" width="2.836" height="2.836"/>
			<rect x="412.399" y="241.974" style="fill:#F0F0F0;" width="2.836" height="2.836"/>
			<rect x="412.399" y="246.728" style="fill:#F0F0F0;" width="2.836" height="2.836"/>
			<rect x="412.399" y="251.482" style="fill:#F0F0F0;" width="2.836" height="2.836"/>
			<rect x="412.399" y="256.236" style="fill:#F0F0F0;" width="2.836" height="2.836"/>
			<rect x="412.399" y="260.99" style="fill:#F0F0F0;" width="2.836" height="2.836"/>
			<rect x="412.399" y="265.744" style="fill:#F0F0F0;" width="2.836" height="2.836"/>
			<rect x="412.399" y="270.498" style="fill:#F0F0F0;" width="2.836" height="2.836"/>
			<rect x="412.399" y="275.253" style="fill:#F0F0F0;" width="2.836" height="2.836"/>
			<rect x="412.399" y="280.007" style="fill:#F0F0F0;" width="2.836" height="2.836"/>
			<rect x="412.399" y="284.761" style="fill:#F0F0F0;" width="2.836" height="2.836"/>
			<rect x="412.399" y="289.515" style="fill:#F0F0F0;" width="2.836" height="2.836"/>
			<rect x="412.399" y="294.269" style="fill:#F0F0F0;" width="2.836" height="2.836"/>
			<rect x="412.399" y="299.023" style="fill:#F0F0F0;" width="2.836" height="2.836"/>
			<rect x="412.399" y="303.777" style="fill:#F0F0F0;" width="2.836" height="2.836"/>
			<rect x="416.903" y="237.22" style="fill:#F0F0F0;" width="2.836" height="2.836"/>
			<rect x="416.903" y="241.974" style="fill:#F0F0F0;" width="2.836" height="2.836"/>
			<rect x="416.903" y="246.728" style="fill:#F0F0F0;" width="2.836" height="2.836"/>
			<rect x="416.903" y="251.482" style="fill:#F0F0F0;" width="2.836" height="2.836"/>
			<rect x="416.903" y="256.236" style="fill:#F0F0F0;" width="2.836" height="2.836"/>
			<rect x="416.903" y="260.99" style="fill:#F0F0F0;" width="2.836" height="2.836"/>
			<rect x="416.903" y="265.744" style="fill:#F0F0F0;" width="2.836" height="2.836"/>
			<rect x="416.903" y="270.498" style="fill:#F0F0F0;" width="2.836" height="2.836"/>
			<rect x="416.903" y="275.253" style="fill:#F0F0F0;" width="2.836" height="2.836"/>
			<rect x="416.903" y="280.007" style="fill:#F0F0F0;" width="2.836" height="2.836"/>
			<rect x="416.903" y="284.761" style="fill:#F0F0F0;" width="2.836" height="2.836"/>
			<rect x="416.903" y="289.515" style="fill:#F0F0F0;" width="2.836" height="2.836"/>
			<rect x="416.903" y="294.269" style="fill:#F0F0F0;" width="2.836" height="2.836"/>
			<rect x="421.407" y="237.22" style="fill:#F0F0F0;" width="2.836" height="2.836"/>
			<rect x="421.407" y="241.974" style="fill:#F0F0F0;" width="2.836" height="2.836"/>
			<rect x="421.407" y="246.728" style="fill:#F0F0F0;" width="2.836" height="2.836"/>
			<rect x="421.407" y="251.482" style="fill:#F0F0F0;" width="2.836" height="2.836"/>
			<rect x="421.407" y="256.236" style="fill:#F0F0F0;" width="2.836" height="2.836"/>
			<rect x="421.407" y="260.99" style="fill:#F0F0F0;" width="2.836" height="2.836"/>
			<rect x="421.407" y="265.744" style="fill:#F0F0F0;" width="2.836" height="2.836"/>
			<rect x="421.407" y="270.498" style="fill:#F0F0F0;" width="2.836" height="2.836"/>
			<rect x="421.407" y="275.253" style="fill:#F0F0F0;" width="2.836" height="2.836"/>
			<rect x="421.407" y="280.007" style="fill:#F0F0F0;" width="2.836" height="2.836"/>
			<rect x="421.407" y="284.761" style="fill:#F0F0F0;" width="2.836" height="2.836"/>
			<rect x="421.407" y="289.515" style="fill:#F0F0F0;" width="2.836" height="2.836"/>
			<rect x="90.458" y="271.916" style="fill:#F0F0F0;" width="2.836" height="2.836"/>
			<rect x="90.458" y="276.67" style="fill:#F0F0F0;" width="2.836" height="2.836"/>
			<rect x="90.458" y="281.424" style="fill:#F0F0F0;" width="2.836" height="2.836"/>
			<rect x="90.458" y="286.178" style="fill:#F0F0F0;" width="2.836" height="2.836"/>
			<rect x="90.458" y="290.932" style="fill:#F0F0F0;" width="2.836" height="2.836"/>
			<rect x="90.458" y="295.687" style="fill:#F0F0F0;" width="2.836" height="2.836"/>
			<rect x="90.458" y="300.441" style="fill:#F0F0F0;" width="2.836" height="2.836"/>
			<rect x="90.458" y="305.195" style="fill:#F0F0F0;" width="2.836" height="2.836"/>
			<rect x="90.458" y="309.949" style="fill:#F0F0F0;" width="2.836" height="2.836"/>
			<rect x="90.458" y="314.703" style="fill:#F0F0F0;" width="2.836" height="2.836"/>
			<rect x="90.458" y="319.457" style="fill:#F0F0F0;" width="2.836" height="2.836"/>
			<rect x="90.458" y="324.211" style="fill:#F0F0F0;" width="2.836" height="2.836"/>
			<rect x="90.458" y="328.965" style="fill:#F0F0F0;" width="2.836" height="2.836"/>
			<rect x="90.458" y="333.719" style="fill:#F0F0F0;" width="2.836" height="2.836"/>
			<rect x="90.458" y="338.473" style="fill:#F0F0F0;" width="2.836" height="2.836"/>
			<rect x="90.458" y="343.227" style="fill:#F0F0F0;" width="2.836" height="2.836"/>
			<rect x="90.458" y="347.981" style="fill:#F0F0F0;" width="2.836" height="2.836"/>
			<rect x="90.458" y="352.735" style="fill:#F0F0F0;" width="2.836" height="2.836"/>
			<rect x="90.458" y="357.489" style="fill:#F0F0F0;" width="2.836" height="2.836"/>
			<rect x="90.458" y="362.243" style="fill:#F0F0F0;" width="2.836" height="2.836"/>
			<rect x="94.962" y="271.916" style="fill:#F0F0F0;" width="2.836" height="2.836"/>
			<rect x="94.962" y="276.67" style="fill:#F0F0F0;" width="2.836" height="2.836"/>
			<rect x="94.962" y="281.424" style="fill:#F0F0F0;" width="2.836" height="2.836"/>
			<rect x="94.962" y="286.178" style="fill:#F0F0F0;" width="2.836" height="2.836"/>
			<rect x="94.962" y="290.932" style="fill:#F0F0F0;" width="2.836" height="2.836"/>
			<rect x="94.962" y="295.687" style="fill:#F0F0F0;" width="2.836" height="2.836"/>
			<rect x="94.962" y="300.441" style="fill:#F0F0F0;" width="2.836" height="2.836"/>
			<rect x="94.962" y="305.195" style="fill:#F0F0F0;" width="2.836" height="2.836"/>
			<rect x="94.962" y="309.949" style="fill:#F0F0F0;" width="2.836" height="2.836"/>
			<rect x="94.962" y="314.703" style="fill:#F0F0F0;" width="2.836" height="2.836"/>
			<rect x="94.962" y="319.457" style="fill:#F0F0F0;" width="2.836" height="2.836"/>
			<rect x="94.962" y="324.211" style="fill:#F0F0F0;" width="2.836" height="2.836"/>
			<rect x="94.962" y="328.965" style="fill:#F0F0F0;" width="2.836" height="2.836"/>
			<rect x="94.962" y="333.719" style="fill:#F0F0F0;" width="2.836" height="2.836"/>
			<rect x="94.962" y="338.473" style="fill:#F0F0F0;" width="2.836" height="2.836"/>
			<rect x="94.962" y="343.227" style="fill:#F0F0F0;" width="2.836" height="2.836"/>
			<rect x="94.962" y="347.981" style="fill:#F0F0F0;" width="2.836" height="2.836"/>
			<rect x="94.962" y="352.735" style="fill:#F0F0F0;" width="2.836" height="2.836"/>
			<rect x="99.466" y="271.916" style="fill:#F0F0F0;" width="2.836" height="2.836"/>
			<rect x="99.466" y="276.67" style="fill:#F0F0F0;" width="2.836" height="2.836"/>
			<rect x="99.466" y="281.424" style="fill:#F0F0F0;" width="2.836" height="2.836"/>
			<rect x="99.466" y="286.178" style="fill:#F0F0F0;" width="2.836" height="2.836"/>
			<rect x="99.466" y="290.932" style="fill:#F0F0F0;" width="2.836" height="2.836"/>
			<rect x="99.466" y="295.687" style="fill:#F0F0F0;" width="2.836" height="2.836"/>
			<rect x="99.466" y="300.441" style="fill:#F0F0F0;" width="2.836" height="2.836"/>
			<rect x="99.466" y="305.195" style="fill:#F0F0F0;" width="2.836" height="2.836"/>
			<rect x="99.466" y="309.949" style="fill:#F0F0F0;" width="2.836" height="2.836"/>
			<rect x="99.466" y="314.703" style="fill:#F0F0F0;" width="2.836" height="2.836"/>
			<rect x="99.466" y="319.457" style="fill:#F0F0F0;" width="2.836" height="2.836"/>
			<rect x="99.466" y="324.211" style="fill:#F0F0F0;" width="2.836" height="2.836"/>
			<rect x="99.466" y="328.965" style="fill:#F0F0F0;" width="2.836" height="2.836"/>
			<rect x="99.466" y="333.719" style="fill:#F0F0F0;" width="2.836" height="2.836"/>
			<rect x="99.466" y="338.473" style="fill:#F0F0F0;" width="2.836" height="2.836"/>
			<rect x="99.466" y="343.227" style="fill:#F0F0F0;" width="2.836" height="2.836"/>
			<rect x="99.466" y="347.981" style="fill:#F0F0F0;" width="2.836" height="2.836"/>
			<rect x="99.466" y="352.735" style="fill:#F0F0F0;" width="2.836" height="2.836"/>
			<rect x="73.61" y="306.613" style="fill:#F0F0F0;" width="2.836" height="2.836"/>
			<rect x="73.61" y="311.367" style="fill:#F0F0F0;" width="2.836" height="2.836"/>
			<rect x="73.61" y="316.121" style="fill:#F0F0F0;" width="2.836" height="2.836"/>
			<rect x="73.61" y="320.875" style="fill:#F0F0F0;" width="2.836" height="2.836"/>
			<rect x="73.61" y="325.629" style="fill:#F0F0F0;" width="2.836" height="2.836"/>
			<rect x="73.61" y="330.383" style="fill:#F0F0F0;" width="2.836" height="2.836"/>
			<rect x="73.61" y="335.137" style="fill:#F0F0F0;" width="2.836" height="2.836"/>
			<rect x="73.61" y="339.891" style="fill:#F0F0F0;" width="2.836" height="2.836"/>
			<rect x="73.61" y="344.645" style="fill:#F0F0F0;" width="2.836" height="2.836"/>
			<rect x="73.61" y="349.399" style="fill:#F0F0F0;" width="2.836" height="2.836"/>
			<rect x="73.61" y="354.153" style="fill:#F0F0F0;" width="2.836" height="2.836"/>
			<rect x="73.61" y="358.907" style="fill:#F0F0F0;" width="2.836" height="2.836"/>
			<rect x="73.61" y="363.661" style="fill:#F0F0F0;" width="2.836" height="2.836"/>
			<rect x="78.114" y="306.613" style="fill:#F0F0F0;" width="2.836" height="2.836"/>
			<rect x="78.114" y="311.367" style="fill:#F0F0F0;" width="2.836" height="2.836"/>
			<rect x="78.114" y="316.121" style="fill:#F0F0F0;" width="2.836" height="2.836"/>
			<rect x="78.114" y="320.875" style="fill:#F0F0F0;" width="2.836" height="2.836"/>
			<rect x="78.114" y="325.629" style="fill:#F0F0F0;" width="2.836" height="2.836"/>
			<rect x="78.114" y="330.383" style="fill:#F0F0F0;" width="2.836" height="2.836"/>
			<rect x="78.114" y="335.137" style="fill:#F0F0F0;" width="2.836" height="2.836"/>
			<rect x="78.114" y="339.891" style="fill:#F0F0F0;" width="2.836" height="2.836"/>
			<rect x="78.114" y="344.645" style="fill:#F0F0F0;" width="2.836" height="2.836"/>
			<rect x="78.114" y="349.399" style="fill:#F0F0F0;" width="2.836" height="2.836"/>
			<rect x="78.114" y="354.153" style="fill:#F0F0F0;" width="2.836" height="2.836"/>
			<rect x="78.114" y="358.907" style="fill:#F0F0F0;" width="2.836" height="2.836"/>
			<rect x="78.114" y="363.661" style="fill:#F0F0F0;" width="2.836" height="2.836"/>
			<rect x="82.618" y="306.613" style="fill:#F0F0F0;" width="2.836" height="2.836"/>
			<rect x="82.618" y="311.367" style="fill:#F0F0F0;" width="2.836" height="2.836"/>
			<rect x="82.618" y="316.121" style="fill:#F0F0F0;" width="2.836" height="2.836"/>
			<rect x="82.618" y="320.875" style="fill:#F0F0F0;" width="2.836" height="2.836"/>
			<rect x="82.618" y="325.629" style="fill:#F0F0F0;" width="2.836" height="2.836"/>
			<rect x="82.618" y="330.383" style="fill:#F0F0F0;" width="2.836" height="2.836"/>
			<rect x="82.618" y="335.137" style="fill:#F0F0F0;" width="2.836" height="2.836"/>
			<rect x="82.618" y="339.891" style="fill:#F0F0F0;" width="2.836" height="2.836"/>
			<rect x="82.618" y="344.645" style="fill:#F0F0F0;" width="2.836" height="2.836"/>
			<rect x="82.618" y="349.399" style="fill:#F0F0F0;" width="2.836" height="2.836"/>
			<rect x="82.618" y="354.153" style="fill:#F0F0F0;" width="2.836" height="2.836"/>
			<rect x="82.618" y="358.907" style="fill:#F0F0F0;" width="2.836" height="2.836"/>
			<rect x="82.618" y="363.661" style="fill:#F0F0F0;" width="2.836" height="2.836"/>
			<rect x="82.618" y="368.415" style="fill:#F0F0F0;" width="2.836" height="2.836"/>
			<rect x="107.639" y="308.03" style="fill:#F0F0F0;" width="2.836" height="2.836"/>
			<rect x="107.639" y="312.784" style="fill:#F0F0F0;" width="2.836" height="2.836"/>
			<rect x="107.639" y="317.539" style="fill:#F0F0F0;" width="2.836" height="2.836"/>
			<rect x="107.639" y="322.293" style="fill:#F0F0F0;" width="2.836" height="2.836"/>
			<rect x="107.639" y="327.047" style="fill:#F0F0F0;" width="2.836" height="2.836"/>
			<rect x="107.639" y="331.801" style="fill:#F0F0F0;" width="2.836" height="2.836"/>
			<rect x="107.639" y="336.555" style="fill:#F0F0F0;" width="2.836" height="2.836"/>
			<rect x="107.639" y="341.309" style="fill:#F0F0F0;" width="2.836" height="2.836"/>
			<rect x="107.639" y="346.063" style="fill:#F0F0F0;" width="2.836" height="2.836"/>
			<rect x="107.639" y="350.817" style="fill:#F0F0F0;" width="2.836" height="2.836"/>
			<rect x="107.639" y="365.079" style="fill:#F0F0F0;" width="2.836" height="2.836"/>
			<rect x="112.143" y="308.03" style="fill:#F0F0F0;" width="2.836" height="2.836"/>
			<rect x="112.143" y="312.784" style="fill:#F0F0F0;" width="2.836" height="2.836"/>
			<rect x="112.143" y="317.539" style="fill:#F0F0F0;" width="2.836" height="2.836"/>
			<rect x="112.143" y="322.293" style="fill:#F0F0F0;" width="2.836" height="2.836"/>
			<rect x="112.143" y="327.047" style="fill:#F0F0F0;" width="2.836" height="2.836"/>
			<rect x="112.143" y="331.801" style="fill:#F0F0F0;" width="2.836" height="2.836"/>
			<rect x="112.143" y="336.555" style="fill:#F0F0F0;" width="2.836" height="2.836"/>
			<rect x="112.143" y="341.309" style="fill:#F0F0F0;" width="2.836" height="2.836"/>
			<rect x="112.143" y="346.063" style="fill:#F0F0F0;" width="2.836" height="2.836"/>
			<rect x="112.143" y="360.325" style="fill:#F0F0F0;" width="2.836" height="2.836"/>
			<rect x="112.143" y="365.079" style="fill:#F0F0F0;" width="2.836" height="2.836"/>
			<rect x="116.647" y="308.03" style="fill:#F0F0F0;" width="2.836" height="2.836"/>
			<rect x="116.647" y="312.784" style="fill:#F0F0F0;" width="2.836" height="2.836"/>
			<rect x="116.647" y="317.539" style="fill:#F0F0F0;" width="2.836" height="2.836"/>
			<rect x="116.647" y="322.293" style="fill:#F0F0F0;" width="2.836" height="2.836"/>
			<rect x="116.647" y="327.047" style="fill:#F0F0F0;" width="2.836" height="2.836"/>
			<rect x="116.647" y="331.801" style="fill:#F0F0F0;" width="2.836" height="2.836"/>
			<rect x="116.647" y="336.555" style="fill:#F0F0F0;" width="2.836" height="2.836"/>
			<rect x="116.647" y="341.309" style="fill:#F0F0F0;" width="2.836" height="2.836"/>
			<rect x="116.647" y="355.571" style="fill:#F0F0F0;" width="2.836" height="2.836"/>
			<rect x="116.647" y="360.325" style="fill:#F0F0F0;" width="2.836" height="2.836"/>
			<rect x="116.647" y="365.079" style="fill:#F0F0F0;" width="2.836" height="2.836"/>
			<rect x="158.516" y="235.802" style="fill:#F0F0F0;" width="2.836" height="2.836"/>
			<rect x="158.516" y="240.556" style="fill:#F0F0F0;" width="2.836" height="2.836"/>
			<rect x="158.516" y="245.31" style="fill:#F0F0F0;" width="2.836" height="2.836"/>
			<rect x="158.516" y="250.064" style="fill:#F0F0F0;" width="2.836" height="2.836"/>
			<rect x="158.516" y="254.818" style="fill:#F0F0F0;" width="2.836" height="2.836"/>
			<rect x="158.516" y="259.572" style="fill:#F0F0F0;" width="2.836" height="2.836"/>
			<rect x="158.516" y="264.327" style="fill:#F0F0F0;" width="2.836" height="2.836"/>
			<rect x="158.516" y="269.081" style="fill:#F0F0F0;" width="2.836" height="2.836"/>
			<rect x="158.516" y="273.835" style="fill:#F0F0F0;" width="2.836" height="2.836"/>
			<rect x="158.516" y="278.589" style="fill:#F0F0F0;" width="2.836" height="2.836"/>
			<rect x="158.516" y="283.343" style="fill:#F0F0F0;" width="2.836" height="2.836"/>
			<rect x="158.516" y="288.097" style="fill:#F0F0F0;" width="2.836" height="2.836"/>
			<rect x="158.516" y="292.851" style="fill:#F0F0F0;" width="2.836" height="2.836"/>
			<rect x="158.516" y="297.605" style="fill:#F0F0F0;" width="2.836" height="2.836"/>
			<rect x="158.516" y="302.359" style="fill:#F0F0F0;" width="2.836" height="2.836"/>
			<rect x="158.516" y="307.113" style="fill:#F0F0F0;" width="2.836" height="2.836"/>
			<rect x="158.516" y="311.867" style="fill:#F0F0F0;" width="2.836" height="2.836"/>
			<rect x="158.516" y="321.375" style="fill:#F0F0F0;" width="2.836" height="2.836"/>
			<rect x="158.516" y="326.129" style="fill:#F0F0F0;" width="2.836" height="2.836"/>
			<rect x="158.516" y="330.883" style="fill:#F0F0F0;" width="2.836" height="2.836"/>
			<rect x="158.516" y="335.637" style="fill:#F0F0F0;" width="2.836" height="2.836"/>
			<rect x="158.516" y="340.391" style="fill:#F0F0F0;" width="2.836" height="2.836"/>
			<rect x="163.02" y="235.802" style="fill:#F0F0F0;" width="2.836" height="2.836"/>
			<rect x="163.02" y="240.556" style="fill:#F0F0F0;" width="2.836" height="2.836"/>
			<rect x="163.02" y="245.31" style="fill:#F0F0F0;" width="2.836" height="2.836"/>
			<rect x="163.02" y="250.064" style="fill:#F0F0F0;" width="2.836" height="2.836"/>
			<rect x="163.02" y="254.818" style="fill:#F0F0F0;" width="2.836" height="2.836"/>
			<rect x="163.02" y="259.572" style="fill:#F0F0F0;" width="2.836" height="2.836"/>
			<rect x="163.02" y="264.327" style="fill:#F0F0F0;" width="2.836" height="2.836"/>
			<rect x="163.02" y="269.081" style="fill:#F0F0F0;" width="2.836" height="2.836"/>
			<rect x="163.02" y="273.835" style="fill:#F0F0F0;" width="2.836" height="2.836"/>
			<rect x="163.02" y="278.589" style="fill:#F0F0F0;" width="2.836" height="2.836"/>
			<rect x="163.02" y="283.343" style="fill:#F0F0F0;" width="2.836" height="2.836"/>
			<rect x="163.02" y="288.097" style="fill:#F0F0F0;" width="2.836" height="2.836"/>
			<rect x="163.02" y="292.851" style="fill:#F0F0F0;" width="2.836" height="2.836"/>
			<rect x="163.02" y="297.605" style="fill:#F0F0F0;" width="2.836" height="2.836"/>
			<rect x="163.02" y="302.359" style="fill:#F0F0F0;" width="2.836" height="2.836"/>
			<rect x="163.02" y="307.113" style="fill:#F0F0F0;" width="2.836" height="2.836"/>
			<rect x="163.02" y="335.637" style="fill:#F0F0F0;" width="2.836" height="2.836"/>
			<rect x="163.02" y="340.391" style="fill:#F0F0F0;" width="2.836" height="2.836"/>
			<rect x="167.524" y="235.802" style="fill:#F0F0F0;" width="2.836" height="2.836"/>
			<rect x="167.524" y="240.556" style="fill:#F0F0F0;" width="2.836" height="2.836"/>
			<rect x="167.524" y="245.31" style="fill:#F0F0F0;" width="2.836" height="2.836"/>
			<rect x="167.524" y="250.064" style="fill:#F0F0F0;" width="2.836" height="2.836"/>
			<rect x="167.524" y="254.818" style="fill:#F0F0F0;" width="2.836" height="2.836"/>
			<rect x="167.524" y="259.572" style="fill:#F0F0F0;" width="2.836" height="2.836"/>
			<rect x="167.524" y="264.327" style="fill:#F0F0F0;" width="2.836" height="2.836"/>
			<rect x="167.524" y="269.081" style="fill:#F0F0F0;" width="2.836" height="2.836"/>
			<rect x="167.524" y="273.835" style="fill:#F0F0F0;" width="2.836" height="2.836"/>
			<rect x="167.524" y="278.589" style="fill:#F0F0F0;" width="2.836" height="2.836"/>
			<rect x="167.524" y="283.343" style="fill:#F0F0F0;" width="2.836" height="2.836"/>
			<rect x="167.524" y="288.097" style="fill:#F0F0F0;" width="2.836" height="2.836"/>
			<rect x="167.524" y="292.851" style="fill:#F0F0F0;" width="2.836" height="2.836"/>
			<rect x="167.524" y="297.605" style="fill:#F0F0F0;" width="2.836" height="2.836"/>
			<rect x="167.524" y="302.359" style="fill:#F0F0F0;" width="2.836" height="2.836"/>
			<rect x="167.524" y="307.113" style="fill:#F0F0F0;" width="2.836" height="2.836"/>
			<rect x="167.524" y="316.621" style="fill:#F0F0F0;" width="2.836" height="2.836"/>
			<rect x="167.524" y="321.375" style="fill:#F0F0F0;" width="2.836" height="2.836"/>
			<rect x="167.524" y="326.129" style="fill:#F0F0F0;" width="2.836" height="2.836"/>
			<rect x="167.524" y="330.883" style="fill:#F0F0F0;" width="2.836" height="2.836"/>
			<rect x="167.524" y="340.391" style="fill:#F0F0F0;" width="2.836" height="2.836"/>
			<rect x="142.169" y="295.687" style="fill:#F0F0F0;" width="2.836" height="2.836"/>
			<rect x="142.169" y="300.441" style="fill:#F0F0F0;" width="2.836" height="2.836"/>
			<rect x="142.169" y="305.195" style="fill:#F0F0F0;" width="2.836" height="2.836"/>
			<rect x="142.169" y="309.949" style="fill:#F0F0F0;" width="2.836" height="2.836"/>
			<rect x="142.169" y="314.703" style="fill:#F0F0F0;" width="2.836" height="2.836"/>
			<rect x="142.169" y="319.457" style="fill:#F0F0F0;" width="2.836" height="2.836"/>
			<rect x="142.169" y="324.211" style="fill:#F0F0F0;" width="2.836" height="2.836"/>
			<rect x="142.169" y="333.719" style="fill:#F0F0F0;" width="2.836" height="2.836"/>
			<rect x="142.169" y="338.473" style="fill:#F0F0F0;" width="2.836" height="2.836"/>
			<rect x="142.169" y="343.227" style="fill:#F0F0F0;" width="2.836" height="2.836"/>
			<rect x="142.169" y="347.981" style="fill:#F0F0F0;" width="2.836" height="2.836"/>
			<rect x="142.169" y="352.735" style="fill:#F0F0F0;" width="2.836" height="2.836"/>
			<rect x="142.169" y="357.489" style="fill:#F0F0F0;" width="2.836" height="2.836"/>
			<rect x="142.169" y="362.243" style="fill:#F0F0F0;" width="2.836" height="2.836"/>
			<rect x="142.169" y="366.997" style="fill:#F0F0F0;" width="2.836" height="2.836"/>
			<rect x="146.673" y="295.687" style="fill:#F0F0F0;" width="2.836" height="2.836"/>
			<rect x="146.673" y="300.441" style="fill:#F0F0F0;" width="2.836" height="2.836"/>
			<rect x="146.673" y="305.195" style="fill:#F0F0F0;" width="2.836" height="2.836"/>
			<rect x="146.673" y="309.949" style="fill:#F0F0F0;" width="2.836" height="2.836"/>
			<rect x="146.673" y="314.703" style="fill:#F0F0F0;" width="2.836" height="2.836"/>
			<rect x="146.673" y="319.457" style="fill:#F0F0F0;" width="2.836" height="2.836"/>
			<rect x="146.673" y="333.719" style="fill:#F0F0F0;" width="2.836" height="2.836"/>
			<rect x="146.673" y="338.473" style="fill:#F0F0F0;" width="2.836" height="2.836"/>
			<rect x="146.673" y="343.227" style="fill:#F0F0F0;" width="2.836" height="2.836"/>
			<rect x="146.673" y="347.981" style="fill:#F0F0F0;" width="2.836" height="2.836"/>
			<rect x="146.673" y="352.735" style="fill:#F0F0F0;" width="2.836" height="2.836"/>
			<rect x="146.673" y="357.489" style="fill:#F0F0F0;" width="2.836" height="2.836"/>
			<rect x="146.673" y="362.243" style="fill:#F0F0F0;" width="2.836" height="2.836"/>
			<rect x="146.673" y="366.997" style="fill:#F0F0F0;" width="2.836" height="2.836"/>
			<rect x="151.177" y="295.687" style="fill:#F0F0F0;" width="2.836" height="2.836"/>
			<rect x="151.177" y="300.441" style="fill:#F0F0F0;" width="2.836" height="2.836"/>
			<rect x="151.177" y="305.195" style="fill:#F0F0F0;" width="2.836" height="2.836"/>
			<rect x="151.177" y="309.949" style="fill:#F0F0F0;" width="2.836" height="2.836"/>
			<rect x="151.177" y="314.703" style="fill:#F0F0F0;" width="2.836" height="2.836"/>
			<rect x="151.177" y="319.457" style="fill:#F0F0F0;" width="2.836" height="2.836"/>
			<rect x="151.177" y="328.965" style="fill:#F0F0F0;" width="2.836" height="2.836"/>
			<rect x="151.177" y="333.719" style="fill:#F0F0F0;" width="2.836" height="2.836"/>
			<rect x="151.177" y="338.473" style="fill:#F0F0F0;" width="2.836" height="2.836"/>
			<rect x="151.177" y="343.227" style="fill:#F0F0F0;" width="2.836" height="2.836"/>
			<rect x="151.177" y="347.981" style="fill:#F0F0F0;" width="2.836" height="2.836"/>
			<rect x="151.177" y="352.735" style="fill:#F0F0F0;" width="2.836" height="2.836"/>
			<rect x="151.177" y="357.489" style="fill:#F0F0F0;" width="2.836" height="2.836"/>
			<rect x="151.177" y="362.243" style="fill:#F0F0F0;" width="2.836" height="2.836"/>
			<rect x="151.177" y="366.997" style="fill:#F0F0F0;" width="2.836" height="2.836"/>
			<rect x="246.091" y="269.081" style="fill:#F0F0F0;" width="2.836" height="2.836"/>
			<rect x="246.091" y="273.835" style="fill:#F0F0F0;" width="2.836" height="2.836"/>
			<rect x="246.091" y="278.589" style="fill:#F0F0F0;" width="2.836" height="2.836"/>
			<rect x="246.091" y="283.343" style="fill:#F0F0F0;" width="2.836" height="2.836"/>
			<rect x="246.091" y="288.097" style="fill:#F0F0F0;" width="2.836" height="2.836"/>
			<rect x="246.091" y="292.851" style="fill:#F0F0F0;" width="2.836" height="2.836"/>
			<rect x="246.091" y="297.605" style="fill:#F0F0F0;" width="2.836" height="2.836"/>
			<rect x="246.091" y="302.359" style="fill:#F0F0F0;" width="2.836" height="2.836"/>
			<rect x="246.091" y="307.113" style="fill:#F0F0F0;" width="2.836" height="2.836"/>
			<rect x="246.091" y="311.867" style="fill:#F0F0F0;" width="2.836" height="2.836"/>
			<rect x="246.091" y="316.621" style="fill:#F0F0F0;" width="2.836" height="2.836"/>
			<rect x="246.091" y="321.375" style="fill:#F0F0F0;" width="2.836" height="2.836"/>
			<rect x="246.091" y="326.129" style="fill:#F0F0F0;" width="2.836" height="2.836"/>
			<rect x="246.091" y="335.637" style="fill:#F0F0F0;" width="2.836" height="2.836"/>
			<rect x="246.091" y="340.391" style="fill:#F0F0F0;" width="2.836" height="2.836"/>
			<rect x="246.091" y="345.145" style="fill:#F0F0F0;" width="2.836" height="2.836"/>
			<rect x="246.091" y="349.899" style="fill:#F0F0F0;" width="2.836" height="2.836"/>
			<rect x="246.091" y="359.408" style="fill:#F0F0F0;" width="2.836" height="2.836"/>
			<rect x="246.091" y="364.162" style="fill:#F0F0F0;" width="2.836" height="2.836"/>
			<rect x="246.091" y="368.916" style="fill:#F0F0F0;" width="2.836" height="2.836"/>
			<rect x="250.595" y="269.081" style="fill:#F0F0F0;" width="2.836" height="2.836"/>
			<rect x="250.595" y="273.835" style="fill:#F0F0F0;" width="2.836" height="2.836"/>
			<rect x="250.595" y="278.589" style="fill:#F0F0F0;" width="2.836" height="2.836"/>
			<rect x="250.595" y="283.343" style="fill:#F0F0F0;" width="2.836" height="2.836"/>
			<rect x="250.595" y="288.097" style="fill:#F0F0F0;" width="2.836" height="2.836"/>
			<rect x="250.595" y="292.851" style="fill:#F0F0F0;" width="2.836" height="2.836"/>
			<rect x="250.595" y="297.605" style="fill:#F0F0F0;" width="2.836" height="2.836"/>
			<rect x="250.595" y="302.359" style="fill:#F0F0F0;" width="2.836" height="2.836"/>
			<rect x="250.595" y="307.113" style="fill:#F0F0F0;" width="2.836" height="2.836"/>
			<rect x="250.595" y="311.867" style="fill:#F0F0F0;" width="2.836" height="2.836"/>
			<rect x="250.595" y="316.621" style="fill:#F0F0F0;" width="2.836" height="2.836"/>
			<rect x="250.595" y="321.375" style="fill:#F0F0F0;" width="2.836" height="2.836"/>
			<rect x="250.595" y="326.129" style="fill:#F0F0F0;" width="2.836" height="2.836"/>
			<rect x="250.595" y="340.391" style="fill:#F0F0F0;" width="2.836" height="2.836"/>
			<rect x="250.595" y="345.145" style="fill:#F0F0F0;" width="2.836" height="2.836"/>
			<rect x="250.595" y="354.654" style="fill:#F0F0F0;" width="2.836" height="2.836"/>
			<rect x="250.595" y="359.408" style="fill:#F0F0F0;" width="2.836" height="2.836"/>
			<rect x="250.595" y="364.162" style="fill:#F0F0F0;" width="2.836" height="2.836"/>
			<rect x="250.595" y="368.916" style="fill:#F0F0F0;" width="2.836" height="2.836"/>
			<rect x="255.099" y="269.081" style="fill:#F0F0F0;" width="2.836" height="2.836"/>
			<rect x="255.099" y="273.835" style="fill:#F0F0F0;" width="2.836" height="2.836"/>
			<rect x="255.099" y="278.589" style="fill:#F0F0F0;" width="2.836" height="2.836"/>
			<rect x="255.099" y="283.343" style="fill:#F0F0F0;" width="2.836" height="2.836"/>
			<rect x="255.099" y="288.097" style="fill:#F0F0F0;" width="2.836" height="2.836"/>
			<rect x="255.099" y="292.851" style="fill:#F0F0F0;" width="2.836" height="2.836"/>
			<rect x="255.099" y="297.605" style="fill:#F0F0F0;" width="2.836" height="2.836"/>
			<rect x="255.099" y="302.359" style="fill:#F0F0F0;" width="2.836" height="2.836"/>
			<rect x="255.099" y="307.113" style="fill:#F0F0F0;" width="2.836" height="2.836"/>
			<rect x="255.099" y="311.867" style="fill:#F0F0F0;" width="2.836" height="2.836"/>
			<rect x="255.099" y="316.621" style="fill:#F0F0F0;" width="2.836" height="2.836"/>
			<rect x="255.099" y="321.375" style="fill:#F0F0F0;" width="2.836" height="2.836"/>
			<rect x="255.099" y="326.129" style="fill:#F0F0F0;" width="2.836" height="2.836"/>
			<rect x="255.099" y="330.883" style="fill:#F0F0F0;" width="2.836" height="2.836"/>
			<rect x="255.099" y="340.391" style="fill:#F0F0F0;" width="2.836" height="2.836"/>
			<rect x="255.099" y="349.899" style="fill:#F0F0F0;" width="2.836" height="2.836"/>
			<rect x="255.099" y="354.654" style="fill:#F0F0F0;" width="2.836" height="2.836"/>
			<rect x="255.099" y="359.408" style="fill:#F0F0F0;" width="2.836" height="2.836"/>
			<rect x="255.099" y="364.162" style="fill:#F0F0F0;" width="2.836" height="2.836"/>
			<rect x="255.099" y="368.916" style="fill:#F0F0F0;" width="2.836" height="2.836"/>
			<rect x="227.742" y="296.187" style="fill:#F0F0F0;" width="2.836" height="2.836"/>
			<rect x="227.742" y="300.941" style="fill:#F0F0F0;" width="2.836" height="2.836"/>
			<rect x="227.742" y="305.695" style="fill:#F0F0F0;" width="2.836" height="2.836"/>
			<rect x="227.742" y="310.449" style="fill:#F0F0F0;" width="2.836" height="2.836"/>
			<rect x="227.742" y="315.203" style="fill:#F0F0F0;" width="2.836" height="2.836"/>
			<rect x="227.742" y="319.957" style="fill:#F0F0F0;" width="2.836" height="2.836"/>
			<rect x="227.742" y="334.22" style="fill:#F0F0F0;" width="2.836" height="2.836"/>
			<rect x="227.742" y="338.974" style="fill:#F0F0F0;" width="2.836" height="2.836"/>
			<rect x="227.742" y="343.728" style="fill:#F0F0F0;" width="2.836" height="2.836"/>
			<rect x="227.742" y="348.482" style="fill:#F0F0F0;" width="2.836" height="2.836"/>
			<rect x="227.742" y="353.236" style="fill:#F0F0F0;" width="2.836" height="2.836"/>
			<rect x="227.742" y="357.99" style="fill:#F0F0F0;" width="2.836" height="2.836"/>
			<rect x="227.742" y="362.744" style="fill:#F0F0F0;" width="2.836" height="2.836"/>
			<rect x="232.246" y="296.187" style="fill:#F0F0F0;" width="2.836" height="2.836"/>
			<rect x="232.246" y="300.941" style="fill:#F0F0F0;" width="2.836" height="2.836"/>
			<rect x="232.246" y="305.695" style="fill:#F0F0F0;" width="2.836" height="2.836"/>
			<rect x="232.246" y="310.449" style="fill:#F0F0F0;" width="2.836" height="2.836"/>
			<rect x="232.246" y="315.203" style="fill:#F0F0F0;" width="2.836" height="2.836"/>
			<rect x="232.246" y="319.957" style="fill:#F0F0F0;" width="2.836" height="2.836"/>
			<rect x="232.246" y="334.22" style="fill:#F0F0F0;" width="2.836" height="2.836"/>
			<rect x="232.246" y="338.974" style="fill:#F0F0F0;" width="2.836" height="2.836"/>
			<rect x="232.246" y="343.728" style="fill:#F0F0F0;" width="2.836" height="2.836"/>
			<rect x="232.246" y="348.482" style="fill:#F0F0F0;" width="2.836" height="2.836"/>
			<rect x="232.246" y="353.236" style="fill:#F0F0F0;" width="2.836" height="2.836"/>
			<rect x="232.246" y="357.99" style="fill:#F0F0F0;" width="2.836" height="2.836"/>
			<rect x="232.246" y="367.498" style="fill:#F0F0F0;" width="2.836" height="2.836"/>
			<rect x="381.873" y="275.253" style="fill:#F0F0F0;" width="2.836" height="2.836"/>
			<rect x="381.873" y="280.007" style="fill:#F0F0F0;" width="2.836" height="2.836"/>
			<rect x="381.873" y="284.761" style="fill:#F0F0F0;" width="2.836" height="2.836"/>
			<rect x="381.873" y="289.515" style="fill:#F0F0F0;" width="2.836" height="2.836"/>
			<rect x="381.873" y="294.269" style="fill:#F0F0F0;" width="2.836" height="2.836"/>
			<rect x="381.873" y="299.023" style="fill:#F0F0F0;" width="2.836" height="2.836"/>
			<rect x="381.873" y="303.777" style="fill:#F0F0F0;" width="2.836" height="2.836"/>
			<rect x="381.873" y="308.531" style="fill:#F0F0F0;" width="2.836" height="2.836"/>
			<rect x="381.873" y="313.285" style="fill:#F0F0F0;" width="2.836" height="2.836"/>
			<rect x="381.873" y="318.039" style="fill:#F0F0F0;" width="2.836" height="2.836"/>
			<rect x="381.873" y="322.793" style="fill:#F0F0F0;" width="2.836" height="2.836"/>
			<rect x="381.873" y="332.301" style="fill:#F0F0F0;" width="2.836" height="2.836"/>
			<rect x="381.873" y="337.055" style="fill:#F0F0F0;" width="2.836" height="2.836"/>
			<rect x="381.873" y="341.809" style="fill:#F0F0F0;" width="2.836" height="2.836"/>
			<rect x="381.873" y="346.563" style="fill:#F0F0F0;" width="2.836" height="2.836"/>
			<rect x="381.873" y="351.317" style="fill:#F0F0F0;" width="2.836" height="2.836"/>
			<rect x="381.873" y="356.071" style="fill:#F0F0F0;" width="2.836" height="2.836"/>
			<rect x="381.873" y="360.825" style="fill:#F0F0F0;" width="2.836" height="2.836"/>
			<rect x="381.873" y="365.579" style="fill:#F0F0F0;" width="2.836" height="2.836"/>
			<rect x="386.377" y="275.253" style="fill:#F0F0F0;" width="2.836" height="2.836"/>
			<rect x="386.377" y="280.007" style="fill:#F0F0F0;" width="2.836" height="2.836"/>
			<rect x="386.377" y="284.761" style="fill:#F0F0F0;" width="2.836" height="2.836"/>
			<rect x="386.377" y="289.515" style="fill:#F0F0F0;" width="2.836" height="2.836"/>
			<rect x="386.377" y="294.269" style="fill:#F0F0F0;" width="2.836" height="2.836"/>
			<rect x="386.377" y="299.023" style="fill:#F0F0F0;" width="2.836" height="2.836"/>
			<rect x="386.377" y="303.777" style="fill:#F0F0F0;" width="2.836" height="2.836"/>
			<rect x="386.377" y="308.531" style="fill:#F0F0F0;" width="2.836" height="2.836"/>
			<rect x="386.377" y="313.285" style="fill:#F0F0F0;" width="2.836" height="2.836"/>
			<rect x="386.377" y="318.039" style="fill:#F0F0F0;" width="2.836" height="2.836"/>
			<rect x="386.377" y="322.793" style="fill:#F0F0F0;" width="2.836" height="2.836"/>
			<rect x="386.377" y="327.547" style="fill:#F0F0F0;" width="2.836" height="2.836"/>
			<rect x="386.377" y="332.301" style="fill:#F0F0F0;" width="2.836" height="2.836"/>
			<rect x="386.377" y="337.055" style="fill:#F0F0F0;" width="2.836" height="2.836"/>
			<rect x="386.377" y="341.809" style="fill:#F0F0F0;" width="2.836" height="2.836"/>
			<rect x="386.377" y="346.563" style="fill:#F0F0F0;" width="2.836" height="2.836"/>
			<rect x="386.377" y="351.317" style="fill:#F0F0F0;" width="2.836" height="2.836"/>
			<rect x="386.377" y="356.071" style="fill:#F0F0F0;" width="2.836" height="2.836"/>
			<rect x="386.377" y="360.825" style="fill:#F0F0F0;" width="2.836" height="2.836"/>
			<rect x="386.377" y="365.579" style="fill:#F0F0F0;" width="2.836" height="2.836"/>
			<rect x="359.688" y="293.768" style="fill:#F0F0F0;" width="2.836" height="2.836"/>
			<rect x="359.688" y="298.522" style="fill:#F0F0F0;" width="2.836" height="2.836"/>
			<rect x="359.688" y="303.276" style="fill:#F0F0F0;" width="2.836" height="2.836"/>
			<rect x="359.688" y="308.03" style="fill:#F0F0F0;" width="2.836" height="2.836"/>
			<rect x="359.688" y="312.784" style="fill:#F0F0F0;" width="2.836" height="2.836"/>
			<rect x="359.688" y="317.539" style="fill:#F0F0F0;" width="2.836" height="2.836"/>
			<rect x="359.688" y="322.293" style="fill:#F0F0F0;" width="2.836" height="2.836"/>
			<rect x="359.688" y="327.047" style="fill:#F0F0F0;" width="2.836" height="2.836"/>
			<rect x="359.688" y="331.801" style="fill:#F0F0F0;" width="2.836" height="2.836"/>
			<rect x="359.688" y="336.555" style="fill:#F0F0F0;" width="2.836" height="2.836"/>
			<rect x="364.192" y="293.768" style="fill:#F0F0F0;" width="2.836" height="2.836"/>
			<rect x="364.192" y="298.522" style="fill:#F0F0F0;" width="2.836" height="2.836"/>
			<rect x="364.192" y="303.276" style="fill:#F0F0F0;" width="2.836" height="2.836"/>
			<rect x="364.192" y="308.03" style="fill:#F0F0F0;" width="2.836" height="2.836"/>
			<rect x="364.192" y="312.784" style="fill:#F0F0F0;" width="2.836" height="2.836"/>
			<rect x="364.192" y="317.539" style="fill:#F0F0F0;" width="2.836" height="2.836"/>
			<rect x="364.192" y="322.293" style="fill:#F0F0F0;" width="2.836" height="2.836"/>
			<rect x="364.192" y="327.047" style="fill:#F0F0F0;" width="2.836" height="2.836"/>
			<rect x="364.192" y="331.801" style="fill:#F0F0F0;" width="2.836" height="2.836"/>
		</g>
		<path style="fill:#F0F0F0;" d="M140.258,176.132c0-4.869-3.947-8.817-8.817-8.817c-0.881,0-1.729,0.133-2.532,0.373
			c0.128-0.884,0.198-1.787,0.198-2.707c0-10.312-8.36-18.671-18.671-18.671c-1.175,0-2.324,0.114-3.439,0.322
			c-2.87-4.697-8.029-7.842-13.935-7.842c-8.94,0-16.192,7.183-16.325,16.092c-0.091-0.002-0.18-0.014-0.272-0.014
			c-8.307,0-15.041,6.734-15.041,15.041s6.734,15.04,15.041,15.04h55.235l-0.011-0.012
			C136.443,184.803,140.258,180.917,140.258,176.132z"/>
		<path style="fill:#F0F0F0;" d="M372.899,156.737c0-3.109,2.52-5.629,5.629-5.629c0.562,0,1.104,0.085,1.616,0.238
			c-0.082-0.565-0.126-1.141-0.126-1.728c0-6.584,5.337-11.921,11.921-11.921c0.75,0,1.484,0.073,2.196,0.205
			c1.832-2.999,5.126-5.007,8.897-5.007c5.708,0,10.338,4.586,10.423,10.274c0.058-0.001,0.115-0.009,0.173-0.009
			c5.304,0,9.603,4.299,9.603,9.603c0,5.304-4.299,9.603-9.603,9.603h-35.266l0.007-0.008
			C375.335,162.274,372.899,159.793,372.899,156.737z"/>
		<path style="fill:#F0F0F0;" d="M260.783,95.995c0-1.905,1.544-3.448,3.448-3.448c0.344,0,0.676,0.052,0.99,0.146
			c-0.05-0.346-0.077-0.699-0.077-1.059c0-4.033,3.27-7.303,7.303-7.303c0.46,0,0.909,0.045,1.345,0.126
			c1.122-1.837,3.14-3.067,5.45-3.067c3.497,0,6.333,2.81,6.385,6.294c0.036-0.001,0.07-0.005,0.106-0.005
			c3.249,0,5.883,2.634,5.883,5.883c0,3.249-2.634,5.883-5.883,5.883H264.13l0.004-0.005
			C262.275,99.387,260.783,97.867,260.783,95.995z"/>
	</g>
</g>
<g id="Background_Simple" style="display:none;">
	<g style="display:inline;">
		<path style="fill:#407BFF;" d="M104.556,101.625c27.919-59.449,127.059-51.062,165.317-9.255
			c38.258,41.806,50.696,68.599,85.208,52.983c34.512-15.616,78.518-11.44,81.043,38.164s-37.913,108.263-102.09,125.615
			c-64.177,17.352-64.161,78.759-149.1,66.368c-46.31-6.756-47.365-56.86-40.825-98.301S72.177,170.569,104.556,101.625z"/>
		<path style="opacity:0.9;fill:#FFFFFF;" d="M104.556,101.625c27.919-59.449,127.059-51.062,165.317-9.255
			c38.258,41.806,50.696,68.599,85.208,52.983c34.512-15.616,78.518-11.44,81.043,38.164s-37.913,108.263-102.09,125.615
			c-64.177,17.352-64.161,78.759-149.1,66.368c-46.31-6.756-47.365-56.86-40.825-98.301S72.177,170.569,104.556,101.625z"/>
	</g>
</g>
<g id="Shadow_1_">
	<ellipse id="_x3C_Path_x3E__359_" style="fill:#F5F5F5;" cx="250" cy="416.238" rx="193.889" ry="11.323"/>
</g>
<g id="Street">
	<g>
		<g>
			<path style="fill:#407BFF;" d="M74.196,383.85c0,0-4.696-15.733,4.804-18.867s15.136-10.491,14.818-18.812
				c-0.318-8.321,9.682-16.42,17.182-8.62c7.5,7.799,6.5-5.997,16.5-9.349c10-3.352,18.477,4.781,15.738,12.214
				c-2.738,7.433,7.13,12.076,18.946,5.755C174,339.85,187,351.35,184.5,360.35s-0.453,10,7.023,7c7.477-3,20.85,5.5,16.163,16.5
				S74.196,383.85,74.196,383.85z"/>
			<path style="opacity:0.3;fill:#FFFFFF;enable-background:new    ;" d="M74.196,383.85c0,0-4.696-15.733,4.804-18.867
				s15.136-10.491,14.818-18.812c-0.318-8.321,9.682-16.42,17.182-8.62c7.5,7.799,6.5-5.997,16.5-9.349
				c10-3.352,18.477,4.781,15.738,12.214c-2.738,7.433,7.13,12.076,18.946,5.755C174,339.85,187,351.35,184.5,360.35
				s-0.453,10,7.023,7c7.477-3,20.85,5.5,16.163,16.5S74.196,383.85,74.196,383.85z"/>
		</g>
		<g>
			<path style="fill:#407BFF;" d="M325.5,385.35c-5-5-0.5-13.5,4.5-14.5s10.026-9.798,10.263-15.399
				c0.237-5.601,9.237-22.829,23.237-12.19c14,10.639,9.745,1.567,19.872-1.422s16.516,5.611,12.072,12.061
				c0,0,10.174-2.55,14.365,6.95c4.191,9.5,0,15.4,0,15.4s19.134-0.566,17.413,11.267S325.5,385.35,325.5,385.35z"/>
			<path style="opacity:0.3;fill:#FFFFFF;enable-background:new    ;" d="M325.5,385.35c-5-5-0.5-13.5,4.5-14.5
				s10.026-9.798,10.263-15.399c0.237-5.601,9.237-22.829,23.237-12.19c14,10.639,9.745,1.567,19.872-1.422
				s16.516,5.611,12.072,12.061c0,0,10.174-2.55,14.365,6.95c4.191,9.5,0,15.4,0,15.4s19.134-0.566,17.413,11.267
				S325.5,385.35,325.5,385.35z"/>
		</g>
		<g>
			<path style="fill:#263238;" d="M57,385.65v13.7h386v-13.7c0-2.38-1.66-4.3-4.04-4.3H61.04C58.66,381.35,57,383.27,57,385.65z"/>
			<g>
				<rect x="397" y="381.35" style="fill:#407BFF;" width="24" height="18"/>
				<rect x="352" y="381.35" style="fill:#407BFF;" width="23" height="18"/>
				<rect x="306" y="381.35" style="fill:#407BFF;" width="24" height="18"/>
				<rect x="261" y="381.35" style="fill:#407BFF;" width="23" height="18"/>
				<rect x="216" y="381.35" style="fill:#407BFF;" width="23" height="18"/>
				<rect x="170" y="381.35" style="fill:#407BFF;" width="24" height="18"/>
				<rect x="125" y="381.35" style="fill:#407BFF;" width="23" height="18"/>
				<rect x="79" y="381.35" style="fill:#407BFF;" width="24" height="18"/>
				<g style="opacity:0.6;enable-background:new    ;">
					<rect x="397" y="381.35" style="fill:#FFFFFF;" width="24" height="18"/>
					<rect x="352" y="381.35" style="fill:#FFFFFF;" width="23" height="18"/>
					<rect x="306" y="381.35" style="fill:#FFFFFF;" width="24" height="18"/>
					<rect x="261" y="381.35" style="fill:#FFFFFF;" width="23" height="18"/>
					<rect x="216" y="381.35" style="fill:#FFFFFF;" width="23" height="18"/>
					<rect x="170" y="381.35" style="fill:#FFFFFF;" width="24" height="18"/>
					<rect x="125" y="381.35" style="fill:#FFFFFF;" width="23" height="18"/>
					<rect x="79" y="381.35" style="fill:#FFFFFF;" width="24" height="18"/>
				</g>
			</g>
			<path style="opacity:0.1;fill:#FFFFFF;enable-background:new    ;" d="M57,385.65v13.7h386v-13.7c0-2.38-1.66-4.3-4.04-4.3H61.04
				C58.66,381.35,57,383.27,57,385.65z"/>
		</g>
	</g>
</g>
<g id="Device">
	<g>
		<g>
			<path style="fill:#407BFF;" d="M251.903,115.044v296.471c0,2.44-1.956,4.335-4.396,4.335H109.531
				c-1.102,0-2.059-0.412-2.759-1.112c-0.731-0.71-1.174-1.719-1.174-2.862V114.683c0-1.936,1.431-3.634,3.367-3.634h39.186
				c1.102,0,2.111,0.721,2.523,1.761l1.627,3.995c0.412,1.03,1.411,1.75,2.522,1.75h47.948c1.112,0,2.111-0.69,2.523-1.719
				l1.627-4.015c0.412-1.04,1.411-1.771,2.522-1.771h38.62C250.194,111.049,251.903,112.902,251.903,115.044z"/>
		</g>
		<g>
			<rect x="105.598" y="130.374" style="opacity:0.3;fill:#FFFFFF;enable-background:new    ;" width="146.305" height="272.347"/>
		</g>
		<rect x="109.711" y="162.549" style="opacity:0.5;fill:#FFFFFF;enable-background:new    ;" width="138.079" height="125.906"/>
		<path style="fill:#FFFFFF;" d="M240.122,153.242H117.379c-3.913,0-7.084-3.172-7.084-7.084l0,0c0-3.913,3.172-7.084,7.084-7.084
			h122.743c3.913,0,7.084,3.172,7.084,7.084l0,0C247.207,150.07,244.035,153.242,240.122,153.242z"/>
		<path style="opacity:0.5;fill:#FFFFFF;enable-background:new    ;" d="M247.791,300.98v88.66c0,3.16-2.56,5.72-5.72,5.72h-126.64
			c-3.16,0-5.72-2.56-5.72-5.72v-88.66c0-3.16,2.56-5.72,5.72-5.72h126.64C245.231,295.26,247.791,297.82,247.791,300.98z"/>
		<path style="fill:#407BFF;" d="M247.791,300.98v9.81h-138.08v-9.81c0-3.16,2.56-5.72,5.72-5.72h126.64
			C245.231,295.26,247.791,297.82,247.791,300.98z"/>
		<g>
			<path style="fill:#407BFF;" d="M151.059,387.967h-30.857c-1.675,0-3.033-1.358-3.033-3.033v-39.561
				c0-1.675,1.358-3.033,3.033-3.033h30.857c1.675,0,3.033,1.358,3.033,3.033v39.561
				C154.091,386.609,152.734,387.967,151.059,387.967z"/>
			<path style="fill:#407BFF;" d="M194.179,387.967h-30.857c-1.675,0-3.033-1.358-3.033-3.033v-39.561
				c0-1.675,1.358-3.033,3.033-3.033h30.857c1.675,0,3.033,1.358,3.033,3.033v39.561
				C197.212,386.609,195.854,387.967,194.179,387.967z"/>
			<path style="fill:#407BFF;" d="M237.3,387.967h-30.857c-1.675,0-3.033-1.358-3.033-3.033v-39.561
				c0-1.675,1.358-3.033,3.033-3.033H237.3c1.675,0,3.033,1.358,3.033,3.033v39.561C240.333,386.609,238.975,387.967,237.3,387.967z
				"/>
			<g style="opacity:0.7;">
				<g>
					<polygon style="fill:#FFFFFF;" points="144.287,381.914 126.973,381.914 128.973,368.859 128.973,365.496 142.287,365.496 
						142.287,368.859 					"/>
				</g>
				<g>
					<path style="fill:#FFFFFF;" d="M138.43,364.611c-0.276,0-0.5-0.224-0.5-0.5v-2.361c0-1.422-1.156-2.578-2.578-2.578
						c-1.421,0-2.578,1.156-2.578,2.578v2.361c0,0.276-0.224,0.5-0.5,0.5s-0.5-0.224-0.5-0.5v-2.361
						c0-1.973,1.605-3.578,3.578-3.578c1.973,0,3.578,1.605,3.578,3.578v2.361C138.93,364.388,138.706,364.611,138.43,364.611z"/>
				</g>
			</g>
			<g style="opacity:0.7;">
				<polygon style="fill:#FFFFFF;" points="123.044,345.31 123.758,346.759 125.357,346.991 124.2,348.119 124.474,349.711 
					123.044,348.959 121.614,349.711 121.887,348.119 120.73,346.991 122.329,346.759 				"/>
				<polygon style="fill:#FFFFFF;" points="129.337,345.31 130.052,346.759 131.65,346.991 130.494,348.119 130.767,349.711 
					129.337,348.959 127.907,349.711 128.18,348.119 127.023,346.991 128.622,346.759 				"/>
				<polygon style="fill:#FFFFFF;" points="135.63,345.31 136.345,346.759 137.943,346.991 136.787,348.119 137.06,349.711 
					135.63,348.959 134.2,349.711 134.473,348.119 133.316,346.991 134.915,346.759 				"/>
				<polygon style="opacity:0.5;" points="141.923,345.31 142.638,346.759 144.237,346.991 143.08,348.119 143.353,349.711 
					141.923,348.959 140.493,349.711 140.766,348.119 139.609,346.991 141.208,346.759 				"/>
				<polygon style="opacity:0.5;" points="148.216,345.31 148.931,346.759 150.53,346.991 149.373,348.119 149.646,349.711 
					148.216,348.959 146.786,349.711 147.059,348.119 145.903,346.991 147.501,346.759 				"/>
			</g>
			<g style="opacity:0.7;">
				<polygon style="fill:#FFFFFF;" points="209.285,345.994 210,347.442 211.599,347.675 210.442,348.802 210.715,350.394 
					209.285,349.643 207.855,350.394 208.128,348.802 206.972,347.675 208.57,347.442 				"/>
				<polygon style="fill:#FFFFFF;" points="215.579,345.994 216.294,347.442 217.892,347.675 216.735,348.802 217.008,350.394 
					215.579,349.643 214.149,350.394 214.422,348.802 213.265,347.675 214.864,347.442 				"/>
				<polygon style="fill:#FFFFFF;" points="221.872,345.994 222.587,347.442 224.185,347.675 223.029,348.802 223.302,350.394 
					221.872,349.643 220.442,350.394 220.715,348.802 219.558,347.675 221.157,347.442 				"/>
				<polygon style="fill:#FFFFFF;" points="228.165,345.994 228.88,347.442 230.479,347.675 229.322,348.802 229.595,350.394 
					228.165,349.643 226.735,350.394 227.008,348.802 225.851,347.675 227.45,347.442 				"/>
				<polygon style="opacity:0.5;" points="234.458,345.994 235.173,347.442 236.772,347.675 235.615,348.802 235.888,350.394 
					234.458,349.643 233.028,350.394 233.301,348.802 232.144,347.675 233.743,347.442 				"/>
			</g>
			<g style="opacity:0.7;">
				<polygon style="fill:#FFFFFF;" points="165.723,345.994 166.438,347.442 168.036,347.675 166.88,348.802 167.153,350.394 
					165.723,349.643 164.293,350.394 164.566,348.802 163.409,347.675 165.008,347.442 				"/>
				<polygon style="fill:#FFFFFF;" points="172.016,345.994 172.731,347.442 174.33,347.675 173.173,348.802 173.446,350.394 
					172.016,349.643 170.586,350.394 170.859,348.802 169.702,347.675 171.301,347.442 				"/>
				<polygon style="fill:#FFFFFF;" points="178.309,345.994 179.024,347.442 180.623,347.675 179.466,348.802 179.739,350.394 
					178.309,349.643 176.879,350.394 177.152,348.802 175.996,347.675 177.594,347.442 				"/>
				<polygon style="fill:#FFFFFF;" points="184.602,345.994 185.317,347.442 186.916,347.675 185.759,348.802 186.032,350.394 
					184.602,349.643 183.173,350.394 183.445,348.802 182.289,347.675 183.887,347.442 				"/>
				<polygon style="fill:#FFFFFF;" points="190.895,345.994 191.611,347.442 193.209,347.675 192.052,348.802 192.325,350.394 
					190.895,349.643 189.466,350.394 189.739,348.802 188.582,347.675 190.181,347.442 				"/>
			</g>
			<polygon style="opacity:0.7;fill:#FFFFFF;" points="187.144,367.867 180.485,367.867 180.485,361.208 176.133,361.208 
				176.133,367.867 169.474,367.867 169.474,372.219 176.133,372.219 176.133,378.878 180.485,378.878 180.485,372.219 
				187.144,372.219 			"/>
			<g>
				<path style="opacity:0.7;fill:#FFFFFF;" d="M215.575,361.142v17.802h11.949v-17.802H215.575z M225.855,369.186h-8.609v-5.802
					h8.609V369.186z"/>
				<path style="opacity:0.7;fill:#FFFFFF;" d="M230.845,365.642v-1.583c0-0.1-0.039-0.195-0.11-0.266l-1.051-1.051l-0.53,0.531
					l0.941,0.94v1.427h-0.49v4.401h0.365v5.206c0,0.829-0.674,1.503-1.503,1.503v1c1.38,0,2.503-1.123,2.503-2.503v-5.206h0.366
					v-4.401H230.845z"/>
			</g>
		</g>
		<g>
			<path style="fill:#FFFFFF;" d="M237.036,335.088H120.465c-1.821,0-3.297-1.476-3.297-3.297v-8.967
				c0-1.821,1.476-3.297,3.297-3.297h116.571c1.821,0,3.297,1.476,3.297,3.297v8.967
				C240.333,333.612,238.857,335.088,237.036,335.088z"/>
			<path style="fill:#407BFF;" d="M127.076,323.897c-1.457-1.457-3.819-1.457-5.276,0s-1.457,3.819,0,5.276l2.638,2.638l2.638-2.638
				C128.533,327.716,128.533,325.354,127.076,323.897z M124.438,328.008c-0.813,0-1.473-0.659-1.473-1.473
				c0-0.813,0.66-1.473,1.473-1.473c0.813,0,1.473,0.659,1.473,1.473C125.911,327.348,125.252,328.008,124.438,328.008z"/>
			<polyline style="fill:none;stroke:#407BFF;stroke-linecap:round;stroke-linejoin:round;stroke-miterlimit:10;" points="
				233.782,330.12 236.595,327.308 233.782,324.495 			"/>
		</g>
		<g>
			<g>
				
					<rect x="123.789" y="120.272" transform="matrix(-1 -1.224647e-16 1.224647e-16 -1 249.6163 243.2631)" style="opacity:0.6;fill:#FFFFFF;enable-background:new    ;" width="2.039" height="2.718"/>
				
					<rect x="120.466" y="119.366" transform="matrix(-1 -1.224647e-16 1.224647e-16 -1 242.9709 242.3564)" style="opacity:0.6;fill:#FFFFFF;enable-background:new    ;" width="2.039" height="3.625"/>
				
					<rect x="117.143" y="118.459" transform="matrix(-1 -1.224647e-16 1.224647e-16 -1 236.3255 241.4497)" style="opacity:0.6;fill:#FFFFFF;enable-background:new    ;" width="2.039" height="4.531"/>
				
					<rect x="113.821" y="117.552" transform="matrix(-1 -1.224647e-16 1.224647e-16 -1 229.6802 240.5429)" style="opacity:0.6;fill:#FFFFFF;enable-background:new    ;" width="2.039" height="5.438"/>
			</g>
			<g>
				<rect x="232.014" y="119.281" style="opacity:0.6;fill:#FFFFFF;enable-background:new    ;" width="1.208" height="2.718"/>
				
					<rect x="234.053" y="118.289" transform="matrix(-1 -1.224647e-16 1.224647e-16 -1 477.7338 241.2793)" style="opacity:0.6;fill:#FFFFFF;enable-background:new    ;" width="9.628" height="4.702"/>
			</g>
		</g>
		<g style="opacity:0.5;enable-background:new    ;">
			<path style="fill:#FFFFFF;" d="M247.79,238.36v-40.22l-0.53,0.13l-9.01-35.72h-18.23l-24.79,6.26l-1.58-6.26h-5.85l12.03,47.69
				l-25.63,6.47l-3.22-12.75l11.41-2.88c1.14-0.29,1.83-1.44,1.54-2.58l-8.48-33.62l9.23-2.33h-14.21l8.81,34.92l-9.34,2.36
				l-9.41-37.28h-9.59l6.34,25.12l-8.98,2.27l-33.98-27.39h-4.61v1.74l18.34,14.79l-18.34,19.04v6.14l21.67-22.5l15.07,12.16
				c0.52,0.42,1.21,0.57,1.86,0.4l10.01-2.52l6.86,27.19l-52.01,13.13l-3.46-13.71v24.18l1.61-0.41L114,252.8l-4.29,1.08v4.39
				l5.33-1.34l3.2,12.68l-8.53,14.29v4.56h2.23l2.05-3.43l0.87,3.43h4.39l-2.17-8.6l5.27-8.83c0.29-0.48,0.37-1.06,0.23-1.61
				l-7.14-28.28l27.52-6.95l11.64,46.13l-3.85,8.14h4.71l2.89-6.1l21.46-5.42l2.91,11.52h9.59l-7.88-31.22l25.63-6.47l9.52,37.69
				h5.85l-9.86-39.08l13.64-3.44l10.91,6.51l7.67,30.39v-17.42l-3.23-12.8l3.23-0.82v-4.39l-5.48,1.39l-10.91-6.52l-7.22-28.59
				l16.34-4.12L247.79,238.36z M158.4,277.96l-11.31-44.81l20.37-5.14l11.31,44.8L158.4,277.96z M183.39,253.11l-6.91-27.38
				l25.63-6.47l6.91,27.38L183.39,253.11z M226.96,242.12l-12.43,3.13l-6.91-27.38l12.43-3.14L226.96,242.12z M205.34,208.85
				l-9.07-35.91l32.91-8.31l9.07,35.92L205.34,208.85z"/>
		</g>
		<g>
			<path style="fill:#407BFF;" d="M239.396,207.087c-1.457-1.457-3.819-1.457-5.276,0c-1.457,1.457-1.457,3.819,0,5.276l2.638,2.638
				l2.638-2.638C240.852,210.906,240.852,208.544,239.396,207.087z M236.758,211.197c-0.813,0-1.473-0.659-1.473-1.473
				c0-0.813,0.66-1.473,1.473-1.473c0.813,0,1.473,0.659,1.473,1.473C238.23,210.538,237.571,211.197,236.758,211.197z"/>
			<path style="fill:#407BFF;" d="M228.682,171.085c-1.457-1.457-3.819-1.457-5.276,0c-1.457,1.457-1.457,3.819,0,5.276l2.638,2.638
				l2.638-2.638C230.139,174.904,230.139,172.542,228.682,171.085z M226.044,175.196c-0.813,0-1.473-0.659-1.473-1.473
				s0.66-1.473,1.473-1.473c0.813,0,1.473,0.659,1.473,1.473S226.857,175.196,226.044,175.196z"/>
			<path style="fill:#407BFF;" d="M202.639,220.127c-1.457-1.457-3.819-1.457-5.276,0c-1.457,1.457-1.457,3.819,0,5.276l2.638,2.638
				l2.638-2.638C204.096,223.946,204.096,221.584,202.639,220.127z M200.001,224.238c-0.813,0-1.473-0.659-1.473-1.473
				c0-0.813,0.66-1.473,1.473-1.473c0.813,0,1.473,0.659,1.473,1.473C201.473,223.578,200.814,224.238,200.001,224.238z"/>
			<path style="fill:#407BFF;" d="M177.677,274.549c-1.457-1.457-3.819-1.457-5.276,0c-1.457,1.457-1.457,3.819,0,5.276l2.638,2.638
				l2.638-2.638C179.134,278.368,179.134,276.006,177.677,274.549z M175.039,278.66c-0.813,0-1.473-0.659-1.473-1.473
				c0-0.813,0.66-1.473,1.473-1.473c0.813,0,1.473,0.659,1.473,1.473C176.512,278.001,175.853,278.66,175.039,278.66z"/>
			<path style="fill:#407BFF;" d="M135.006,166.582c-1.457-1.457-3.819-1.457-5.276,0c-1.457,1.457-1.457,3.819,0,5.276l2.638,2.638
				l2.638-2.638C136.463,170.401,136.463,168.039,135.006,166.582z M132.368,170.693c-0.813,0-1.473-0.659-1.473-1.473
				c0-0.813,0.66-1.473,1.473-1.473c0.813,0,1.473,0.659,1.473,1.473C133.84,170.033,133.181,170.693,132.368,170.693z"/>
			<path style="fill:#407BFF;" d="M121.42,236.565c-1.457-1.457-3.819-1.457-5.276,0c-1.457,1.457-1.457,3.819,0,5.276l2.638,2.638
				l2.638-2.638C122.877,240.384,122.877,238.022,121.42,236.565z M118.782,240.676c-0.813,0-1.473-0.659-1.473-1.473
				c0-0.813,0.66-1.473,1.473-1.473c0.813,0,1.473,0.659,1.473,1.473C120.255,240.017,119.595,240.676,118.782,240.676z"/>
			<g>
				<path style="fill:#407BFF;" d="M176.474,190.231h-32.369c-1.815,0-3.286,1.471-3.286,3.286v35.956
					c0,1.815,1.471,3.286,3.286,3.286h13.933l2.252,6.763l2.252-6.763h13.933c1.815,0,3.286-1.471,3.286-3.286v-35.956
					C179.76,191.702,178.288,190.231,176.474,190.231z"/>
				<g style="opacity:0.7;">
					<polygon style="fill:#FFFFFF;" points="147.703,194.887 148.418,196.335 150.017,196.568 148.86,197.695 149.133,199.287 
						147.703,198.536 146.273,199.287 146.546,197.695 145.389,196.568 146.988,196.335 					"/>
					<polygon style="fill:#FFFFFF;" points="153.996,194.887 154.711,196.335 156.31,196.568 155.153,197.695 155.426,199.287 
						153.996,198.536 152.566,199.287 152.839,197.695 151.682,196.568 153.281,196.335 					"/>
					<polygon style="fill:#FFFFFF;" points="160.289,194.887 161.004,196.335 162.603,196.568 161.446,197.695 161.719,199.287 
						160.289,198.536 158.859,199.287 159.132,197.695 157.976,196.568 159.574,196.335 					"/>
					<polygon style="fill:#FFFFFF;" points="166.582,194.887 167.297,196.335 168.896,196.568 167.739,197.695 168.012,199.287 
						166.582,198.536 165.152,199.287 165.426,197.695 164.269,196.568 165.867,196.335 					"/>
					<polygon style="opacity:0.5;" points="172.876,194.887 173.59,196.335 175.189,196.568 174.032,197.695 174.305,199.287 
						172.876,198.536 171.446,199.287 171.719,197.695 170.562,196.568 172.161,196.335 					"/>
				</g>
				<g style="opacity:0.7;">
					<g>
						
							<ellipse transform="matrix(0.2298 -0.9732 0.9732 0.2298 -87.1446 323.0842)" style="fill:#FFFFFF;" cx="160.545" cy="216.598" rx="7.866" ry="7.866"/>
						<g>
							<path style="fill:#407BFF;" d="M160.545,222.229c-3.105,0-5.631-2.526-5.631-5.631c0-3.105,2.526-5.632,5.631-5.632
								s5.632,2.526,5.632,5.632C166.176,219.703,163.65,222.229,160.545,222.229z M160.545,211.383
								c-2.875,0-5.214,2.339-5.214,5.215c0,2.875,2.339,5.214,5.214,5.214c2.876,0,5.215-2.339,5.215-5.214
								C165.759,213.723,163.42,211.383,160.545,211.383z"/>
						</g>
					</g>
					<path style="fill:#FFFFFF;" d="M169.56,205.961v5.171v7.593v7.872c0,0.352,0.285,0.637,0.637,0.637l0,0
						c0.352,0,0.637-0.285,0.637-0.637v-7.872h1.022C171.857,218.725,172.343,208.841,169.56,205.961z"/>
					<path style="fill:#FFFFFF;" d="M152.647,210.564l-0.072-0.432l-0.143-0.863c-0.188-1.152-0.374-2.303-0.605-3.451
						c-0.046,1.17-0.048,2.337-0.052,3.504l-0.004,0.875c-0.01,0.274,0.022,0.661-0.042,0.69c-0.061,0.096-0.154,0.166-0.252,0.162
						c-0.001,0.007-0.239,0.005-0.357,0.006c-0.009,0-0.019,0.001-0.029,0.002l-0.407-5.239l-0.407,5.239
						c-0.01,0-0.019-0.001-0.029-0.002c-0.118-0.002-0.356,0.001-0.357-0.006c-0.098,0.004-0.191-0.066-0.252-0.162
						c-0.064-0.029-0.032-0.416-0.042-0.69l-0.004-0.875c-0.004-1.167-0.005-2.333-0.052-3.504c-0.231,1.148-0.417,2.3-0.605,3.451
						l-0.143,0.863l-0.071,0.432c-0.026,0.103-0.059,0.395,0.008,0.611c0.11,0.461,0.523,0.832,1.005,0.913
						c0.152,0.016,0.238,0.017,0.312,0.015v14.638c0,0.352,0.285,0.637,0.637,0.637h0c0.352,0,0.637-0.285,0.637-0.637v-14.638
						c0.074,0.002,0.16,0.001,0.312-0.015c0.482-0.081,0.895-0.452,1.005-0.913C152.706,210.959,152.672,210.667,152.647,210.564z"
						/>
				</g>
			</g>
		</g>
		<g>
			
				<circle style="fill:none;stroke:#407BFF;stroke-linecap:round;stroke-linejoin:round;stroke-miterlimit:10;" cx="231.101" cy="272.502" r="7.958"/>
			<circle style="fill:#407BFF;" cx="231.101" cy="272.502" r="3.979"/>
			<g>
				
					<line style="fill:none;stroke:#407BFF;stroke-linecap:round;stroke-linejoin:round;stroke-miterlimit:10;" x1="231.101" y1="264.551" x2="231.101" y2="261.452"/>
				
					<line style="fill:none;stroke:#407BFF;stroke-linecap:round;stroke-linejoin:round;stroke-miterlimit:10;" x1="231.101" y1="283.551" x2="231.101" y2="280.452"/>
			</g>
			<g>
				
					<line style="fill:none;stroke:#407BFF;stroke-linecap:round;stroke-linejoin:round;stroke-miterlimit:10;" x1="239.052" y1="272.502" x2="242.151" y2="272.502"/>
				
					<line style="fill:none;stroke:#407BFF;stroke-linecap:round;stroke-linejoin:round;stroke-miterlimit:10;" x1="220.052" y1="272.502" x2="223.151" y2="272.502"/>
			</g>
		</g>
	</g>
</g>
<g id="Character">
	<g>
		<path style="fill:#E4897B;" d="M351.742,179.551c6.076,1.884,9.871,29.734,11.779,35.192c1.43,4.09,15.22,29.744,15.22,29.744
			s12.67,3.53,11.484,5.508c-1.187,1.978-4.549,5.143-6.527,5.538s-8.11-4.549-8.703-5.934c-0.593-1.385-0.593-3.789-0.593-3.789
			s-14.715-22.191-16.556-26.864c-1.39-3.527-10.51-27.072-10.51-27.072s-1.78-2.783,0-7.106
			C349.115,180.446,351.742,179.551,351.742,179.551z"/>
		<path style="fill:#407BFF;" d="M312.167,181.586c-5.549,0.447-14.945,23.148-14.945,23.148l-7.121-1.867
			c0,0-4.99,14.769,3.258,16.879c8.248,2.11,19.774-20.197,19.774-20.197L312.167,181.586z"/>
		<path style="opacity:0.6;fill:#FFFFFF;enable-background:new    ;" d="M313.13,199.55c0,0-3.19,6.17-7.41,11.72
			c-3.8,4.99-8.45,9.48-12.36,8.48c-8.25-2.11-3.26-16.88-3.26-16.88l7.12,1.86c0,0,9.4-22.7,14.95-23.14l0.94,17.61L313.13,199.55z
			"/>
		<path style="opacity:0.2;enable-background:new    ;" d="M313.13,199.55c0,0-3.19,6.17-7.41,11.72
			c-1.57-8.54,5.51-15.25,5.51-15.25l1.88,3.18L313.13,199.55z"/>
		<path style="fill:#263238;" d="M315.559,139.073h7.636c0,0,3.241-5.271,9.127-2.897c5.886,2.374,11.82,4.945,13.205,8.703
			c1.385,3.758,0,9.648,0,9.648s5.563,4.737,6.923,10.265c1.087,4.416-3.363,6.491-3.363,6.491s0.791-1.58-0.198-3.064
			c0,0-1.187,2.718-5.341,4.227c-4.154,1.509-17.536,3.736-24.497,0c-4.762-2.556-4.658-6.063-4.658-6.063
			c-2,2.132-0.42,4.9-0.42,4.9s-4.723-3.166-2.331-12.64S307.814,142.852,315.559,139.073z"/>
		<path style="fill:#E4897B;" d="M335.351,277.137c1.317,3.494,2.527,7.031,3.623,10.503c5.557,17.578,8.402,38.468,8.402,38.468
			c14.863,30.034,25.29,75.168,25.29,75.168l-5.5,1.837l-36.134-80.329l-10.724-27.636L335.351,277.137z"/>
		<path style="fill:#263238;" d="M372.898,397.083c-0.333-0.648-8.135,3.776-8.135,3.776s-2.507,7.443-6.768,10.912
			c-4.262,3.469-0.171,5.05,5.207,2.439c5.378-2.612,9.482-4.605,13.303-6.46C380.325,405.894,376.356,403.799,372.898,397.083z"/>
		<g>
			<path style="fill:#407BFF;" d="M361.527,404.977c-0.294,0.143-0.57,0.208-0.804,0.152c-0.218-0.052-0.501-0.228-0.612-0.764
				c-0.054-0.259,0.002-0.513,0.165-0.754c0.309-0.452,0.998-0.809,1.709-1.074c-0.824-0.032-1.604-0.178-1.834-0.589
				c-0.149-0.268-0.082-0.582,0.201-0.934c0.266-0.329,0.611-0.51,1.028-0.534c1.306-0.076,2.887,1.461,2.968,1.54
				c0.023,0.022,0.041,0.049,0.054,0.08l0,0c0.001,0.001,0.001,0.001,0.001,0.001l0,0.001l0,0c0.01,0.024,0.015,0.049,0.017,0.074
				v0.001l0,0c0.001,0.026-0.002,0.052-0.009,0.076l0,0l0,0.001c-0.008,0.03-0.022,0.058-0.043,0.082
				C364.043,402.743,362.652,404.43,361.527,404.977z M361.531,403.24c-0.386,0.188-0.703,0.401-0.864,0.637
				c-0.09,0.133-0.121,0.261-0.094,0.393c0.073,0.355,0.214,0.389,0.26,0.4c0.531,0.128,1.79-1.032,2.733-2.111
				C362.95,402.705,362.151,402.939,361.531,403.24z M361.049,401.041c-0.123,0.06-0.231,0.149-0.327,0.269
				c-0.085,0.105-0.218,0.299-0.157,0.408c0.197,0.352,1.652,0.419,3.064,0.293c-0.52-0.43-1.462-1.104-2.221-1.06
				C361.276,400.959,361.157,400.988,361.049,401.041z"/>
		</g>
		<path style="fill:#263238;" d="M311.298,276.937c2.03,12.63,5.18,22.27,8.61,30.27c4.48,10.41,9.43,18.07,13.03,25.97
			c6.36,13.98,22.81,47.21,22.81,47.21l11.01-8.31c0,0-17.57-42.33-18.76-50.64c-0.77-5.38-1.51-34.31-1.94-54.03
			c-0.23-10.75-0.37-18.76-0.37-18.76l-31.45-25.11C314.238,223.537,306.638,247.867,311.298,276.937z"/>
		<path style="opacity:0.2;enable-background:new    ;" d="M319.908,307.207c4.48,10.41,9.43,18.07,13.03,25.97
			c6.36,13.98,22.81,47.21,22.81,47.21l11.01-8.31c0,0-17.57-42.33-18.76-50.64c-0.77-5.38-1.51-34.31-1.94-54.03l-9.31-19.55
			l-12.07,4.85l3.94,15.16L319.908,307.207z"/>
		<path style="fill:#E4897B;" d="M331.417,339.241c-8.292,31.569-23.872,69.024-23.872,69.024l-5.4-2.1l15.824-66.924H331.417z"/>
		<path style="fill:#263238;" d="M310.402,405.185c0.156-0.712-8.673-2.285-8.673-2.285s-6.68,4.131-12.175,4.082
			c-5.495-0.049-3.354,3.779,2.453,5.2c5.807,1.421,10.239,2.506,14.365,3.516C310.497,416.708,308.779,412.562,310.402,405.185z"/>
		<g>
			<path style="fill:#407BFF;" d="M296.61,404.006c-0.317-0.078-0.571-0.204-0.716-0.396c-0.134-0.179-0.241-0.495,0.017-0.978
				c0.124-0.234,0.329-0.394,0.608-0.475c0.526-0.151,1.285,0.014,2.001,0.264c-0.614-0.55-1.121-1.16-1.036-1.624
				c0.056-0.302,0.309-0.5,0.751-0.591c0.414-0.083,0.796-0.003,1.132,0.245c1.054,0.776,1.291,2.967,1.302,3.08
				c0.004,0.031,0.001,0.064-0.009,0.096l0,0c0,0.001,0,0.001,0,0.001l-0.001,0.001l0,0c-0.008,0.025-0.019,0.047-0.034,0.067
				l-0.001,0.001l0,0c-0.016,0.021-0.035,0.039-0.055,0.053l0,0l-0.001,0.001c-0.025,0.017-0.054,0.03-0.086,0.036
				C299.973,403.892,297.825,404.304,296.61,404.006z M297.722,402.671c-0.417-0.102-0.797-0.14-1.071-0.061
				c-0.154,0.045-0.26,0.124-0.323,0.243c-0.17,0.32-0.083,0.435-0.055,0.474c0.328,0.438,2.037,0.348,3.451,0.119
				C299.156,403.166,298.391,402.835,297.722,402.671z M298.754,400.671c-0.133-0.032-0.273-0.032-0.423-0.001
				c-0.133,0.026-0.359,0.091-0.381,0.214c-0.073,0.397,1.004,1.376,2.172,2.181c-0.125-0.663-0.421-1.784-1.033-2.233
				C298.981,400.753,298.87,400.699,298.754,400.671z"/>
		</g>
		<path style="fill:#263238;" d="M347.501,220.166c0,0,12.19,25.712,7.882,49.976c-4.308,24.264-17.326,55.408-20.835,62.963
			s-16.615,52.29-16.615,52.29l-11.341-3.692c0,0,10.133-44.401,13.316-59.868c1.503-7.307,14.376-59.341,14.376-59.341
			s-22.056-16.389-20.495-42.036L347.501,220.166z"/>
		<g>
			<g>
				<polygon points="335.442,225.958 317.818,226.226 317.611,220.926 335.253,221.115 				"/>
				<polygon points="316.058,220.91 316.266,226.249 314.485,226.277 313.999,220.888 				"/>
				<polygon points="336.807,221.132 346.159,221.232 346.57,225.789 336.994,225.934 				"/>
			</g>
			
				<rect x="321.726" y="221.309" transform="matrix(-1 6.267946e-04 -6.267946e-04 -1 650.4528 447.6162)" style="fill:#FFFFFF;" width="6.86" height="5.203"/>
		</g>
		<path style="fill:#407BFF;" d="M351.742,179.551c0,0-22.158-4.882-40.445,2.239c0,0-1.256,19.317,2.701,39.097l33.852,0.244
			c0,0-1.83-9.216,5.687-27.048L351.742,179.551z"/>
		<path style="fill:#E4897B;" d="M326.975,184.769c7.783-1.916,9.771-5.566,9.771-5.566c-3.577-2.671-3.504-7.229-2.999-10.125
			c0.27-1.601,0.678-2.695,0.678-2.695l-9.305,2.866c0.428,1.541,0.688,2.85,0.826,3.962c0.16,1.22,0.16,2.196,0.068,2.972
			c-0.321,2.915-1.936,3.14-1.936,3.14C322.765,182.634,326.975,184.769,326.975,184.769z"/>
		<path style="opacity:0.2;enable-background:new    ;" d="M325.945,173.212c0.16,1.22,0.16,2.196,0.068,2.972
			c3.718-0.928,6.234-4.276,7.733-7.105c0.27-1.601,0.678-2.695,0.678-2.695l-9.305,2.866
			C325.547,170.791,325.808,172.1,325.945,173.212z"/>
		<g>
			<path style="fill:#E4897B;" d="M324.047,142.703c-8.233,1.252-10.213,6.063-9.526,14.639
				c0.859,10.717,4.355,17.893,14.305,14.063C342.339,166.202,337.719,140.623,324.047,142.703z"/>
			<path style="fill:#DE5753;" d="M319.773,156.072c0,0-0.814,2.324-1.876,3.779c0,0,0.875,1.013,2.312,0.601L319.773,156.072z"/>
			<g>
				<path style="fill:#263238;" d="M324.71,154.633c0.087,0.679,0.524,1.182,0.977,1.124c0.453-0.058,0.749-0.655,0.662-1.334
					c-0.087-0.679-0.524-1.182-0.977-1.124C324.919,153.357,324.623,153.954,324.71,154.633z"/>
				<path style="fill:#263238;" d="M325.565,153.307l-1.55-0.39C324.014,152.917,324.908,154.065,325.565,153.307z"/>
			</g>
			<g>
				<path style="fill:#263238;" d="M316.254,155.573c0.087,0.679,0.524,1.182,0.977,1.124c0.453-0.058,0.749-0.655,0.662-1.334
					c-0.087-0.679-0.524-1.182-0.977-1.124C316.464,154.297,316.168,154.895,316.254,155.573z"/>
				<path style="fill:#263238;" d="M317.109,154.248l-1.55-0.39C315.559,153.858,316.453,155.006,317.109,154.248z"/>
			</g>
			
				<path style="fill:none;stroke:#263238;stroke-width:0.708;stroke-linecap:round;stroke-linejoin:round;stroke-miterlimit:10;" d="
				M323.928,148.935c0,0,2.268-0.653,3.76,0.702"/>
			
				<path style="fill:none;stroke:#263238;stroke-width:0.708;stroke-linecap:round;stroke-linejoin:round;stroke-miterlimit:10;" d="
				M317.891,149.497c0,0-1.536-0.317-3.178,1.176"/>
			<path style="fill:#263238;" d="M335.155,155.21c0,0-4.878-6.179-5.089-11.49c0,0-17.329-4.184-15.615,12.498
				c0,0-3.83-14.462,10.273-16.942c14.081-2.476,17.192,18.234,10.821,25.515C335.543,164.792,338.179,159.079,335.155,155.21z"/>
			<path style="fill:#E4897B;" d="M334.074,157.153c-0.147-1.334,0.88-3.785,3.386-3.891c2.594-0.11,4.606,4.943-1.548,7.167
				C335.029,160.748,334.38,159.936,334.074,157.153z"/>
			<path style="fill:#263238;" d="M332.323,137.527c0,0-5.032-2.883-9.019-2.233c-3.987,0.65-5.029,3.156-5.029,3.156
				s-2.122-1.319-4.891,0c-2.769,1.319-5.802,6.658-5.407,13.483c0.396,6.825,5.999,7.616,5.999,7.616s-4.154-11.234,5.077-14.848
				c0,0,3.33-2.163,5.621,0.474c2.291,2.637,2.044,10.606,9.75,7.742C342.13,150.054,337.264,140.591,332.323,137.527z"/>
			
				<path style="fill:none;stroke:#263238;stroke-width:0.708;stroke-linecap:round;stroke-linejoin:round;stroke-miterlimit:10;" d="
				M325.12,161.165c0,0-1.35,2.637-3.724,2.769"/>
		</g>
		<g>
			<path style="fill:#407BFF;" d="M341.666,176.183c0,0-6.204,12.101-16.883,17.514l22.145,36.65l6.834-3.686
				c0,0-4.259-12.509-4.368-15.408c-0.108-2.899,6.851-26.648,5.432-30.29C353.406,177.322,341.666,176.183,341.666,176.183z"/>
			<path style="opacity:0.6;fill:#FFFFFF;enable-background:new    ;" d="M349.39,211.25c0.11,2.9,4.37,15.41,4.37,15.41l-6.83,3.69
				l-22.15-36.65c10.68-5.42,16.89-17.52,16.89-17.52s11.74,1.14,13.16,4.78c0.73,1.87-0.74,9.01-2.34,15.92
				c-1.15,5-2.37,9.89-2.87,12.56C349.46,210.29,349.38,210.91,349.39,211.25z"/>
		</g>
		<g>
			<path style="fill:#407BFF;" d="M319.412,178.839c0,0,0.458,11.732,8.276,16.743l-13.293,35.035h-3.287l0.536-13.063
				c0,0-3.72-26.083-0.347-35.764L319.412,178.839z"/>
			<path style="opacity:0.6;fill:#FFFFFF;enable-background:new    ;" d="M319.412,178.839c0,0,0.458,11.732,8.276,16.743
				l-13.293,35.035h-3.287l0.536-13.063c0,0-3.72-26.083-0.347-35.764L319.412,178.839z"/>
		</g>
		<path style="fill:#263238;" d="M327.688,195.009c0,0.559-0.453,1.013-1.013,1.013s-1.013-0.453-1.013-1.013
			c0-0.559,0.453-1.013,1.013-1.013S327.688,194.45,327.688,195.009z"/>
		<g>
			<path style="fill:#263238;" d="M305.431,192.16c0.058,0.507-0.312,0.918-0.826,0.918h-9.14c-0.514,0-0.977-0.411-1.035-0.918
				l-2.041-18.038c-0.058-0.507,0.312-1.043,0.826-1.043h9.14c0.514,0,0.977,0.536,1.035,1.043L305.431,192.16z"/>
			<path style="opacity:0.5;fill:#FFFFFF;" d="M302.377,174.003l2.068,18.213c0.059,0.513-0.209,0.862-0.719,0.862h-7.75
				c-0.52,0-1.473-0.286-1.531-0.8l-2.068-18.275c-0.058-0.514,0.829-0.925,1.349-0.925h7.75
				C301.986,173.078,302.318,173.489,302.377,174.003z"/>
		</g>
		<path style="fill:#E4897B;" d="M292.384,203.645l3.044-9.015c0,0-2.274-4.223-2.07-6.3c0.204-2.077,5.743-3.561,6.039-3.066
			c0.296,0.494,2.151,6.527,1.471,8.11c-0.68,1.582-2.065,2.769-2.065,2.769l-2.047,8.47L292.384,203.645z"/>
		<path style="opacity:0.2;enable-background:new    ;" d="M352.49,196.88c-1.15,5-2.37,9.89-2.87,12.56
			c-2.87-7.99-0.241-16.033-0.241-16.033L352.49,196.88z"/>
		<g>
			<path style="fill:#407BFF;" d="M353.642,179.551c3.754,3.702,8.093,25.962,10.479,33.768c2.386,7.806,9.89,19.385,9.89,19.385
				l-7.253,2.769c0,0-10.361-16.813-11.741-19.78c-1.38-2.967-4.815-12.427-4.815-12.427s-1.852-8.738,0-15.661
				C352.055,180.681,353.642,179.551,353.642,179.551z"/>
			<path style="opacity:0.6;fill:#FFFFFF;enable-background:new    ;" d="M353.642,179.551c3.754,3.702,8.093,25.962,10.479,33.768
				c2.386,7.806,9.89,19.385,9.89,19.385l-7.253,2.769c0,0-10.361-16.813-11.741-19.78c-1.38-2.967-4.815-12.427-4.815-12.427
				s-1.852-8.738,0-15.661C352.055,180.681,353.642,179.551,353.642,179.551z"/>
		</g>
	</g>
</g>
</svg>
