<svg width="35" height="35" viewBox="0 0 35 35" fill="none" xmlns="http://www.w3.org/2000/svg">
<path d="M12.0312 29.5312C12.6353 29.5312 13.125 29.0416 13.125 28.4375C13.125 27.8334 12.6353 27.3438 12.0312 27.3438C11.4272 27.3438 10.9375 27.8334 10.9375 28.4375C10.9375 29.0416 11.4272 29.5312 12.0312 29.5312Z" stroke="black" stroke-width="1.5" stroke-linecap="round" stroke-linejoin="round"/>
<path d="M27.3438 29.5312C27.9478 29.5312 28.4375 29.0416 28.4375 28.4375C28.4375 27.8334 27.9478 27.3438 27.3438 27.3438C26.7397 27.3438 26.25 27.8334 26.25 28.4375C26.25 29.0416 26.7397 29.5312 27.3438 29.5312Z" stroke="black" stroke-width="1.5" stroke-linecap="round" stroke-linejoin="round"/>
<path d="M3.28125 5.46875H7.65625L10.9375 24.0625H28.4375" stroke="black" stroke-width="1.5" stroke-linecap="round" stroke-linejoin="round"/>
<path d="M10.9375 18.2292H27.9891C28.1155 18.2293 28.2381 18.1855 28.336 18.1054C28.4338 18.0252 28.5009 17.9136 28.5257 17.7896L30.4944 7.94587C30.5103 7.8665 30.5084 7.78458 30.4888 7.70605C30.4692 7.62751 30.4324 7.5543 30.381 7.49172C30.3297 7.42913 30.2651 7.37872 30.1919 7.34412C30.1187 7.30953 30.0388 7.29162 29.9578 7.29167H8.75" stroke="black" stroke-width="1.5" stroke-linecap="round" stroke-linejoin="round"/>
</svg>
