<svg width="49" height="49" viewBox="0 0 49 49" fill="none" xmlns="http://www.w3.org/2000/svg">
<path d="M24.5 41.65L23.716 40.768C23.226 40.278 11.76 26.754 11.76 18.62C11.76 11.564 17.444 5.88 24.5 5.88C31.556 5.88 37.24 11.564 37.24 18.62C37.24 26.754 25.774 40.278 25.284 40.866L24.5 41.65ZM24.5 7.84C18.522 7.84 13.72 12.642 13.72 18.62C13.72 24.892 21.952 35.476 24.5 38.612C27.048 35.476 35.28 24.892 35.28 18.62C35.28 12.642 30.478 7.84 24.5 7.84Z" fill="black"/>
<path d="M24.5 23.52C21.756 23.52 19.6 21.364 19.6 18.62C19.6 15.876 21.756 13.72 24.5 13.72C27.244 13.72 29.4 15.876 29.4 18.62C29.4 21.364 27.244 23.52 24.5 23.52ZM24.5 15.68C22.834 15.68 21.56 16.954 21.56 18.62C21.56 20.286 22.834 21.56 24.5 21.56C26.166 21.56 27.44 20.286 27.44 18.62C27.44 16.954 26.166 15.68 24.5 15.68Z" fill="black"/>
</svg>
